<?xml version="1.0" encoding="UTF-8" standalone="no"?>
<!-- Uploaded to: SVG Repo, www.svgrepo.com, Generator: SVG Repo Mixer Tools -->

<svg
   width="800px"
   height="800px"
   viewBox="0 0 16 16"
   fill="none"
   version="1.1"
   id="svg2"
   sodipodi:docname="activity-svgrepo-com.svg"
   inkscape:version="1.4.3 (0d15f75, 2025-12-25)"
   xmlns:inkscape="http://www.inkscape.org/namespaces/inkscape"
   xmlns:sodipodi="http://sodipodi.sourceforge.net/DTD/sodipodi-0.dtd"
   xmlns="http://www.w3.org/2000/svg"
   xmlns:svg="http://www.w3.org/2000/svg">
  <defs
     id="defs2" />
  <sodipodi:namedview
     id="namedview2"
     pagecolor="#ffffff"
     bordercolor="#000000"
     borderopacity="0.25"
     inkscape:showpageshadow="2"
     inkscape:pageopacity="0.0"
     inkscape:pagecheckerboard="0"
     inkscape:deskcolor="#d1d1d1"
     inkscape:zoom="0.32482718"
     inkscape:cx="404.83066"
     inkscape:cy="454.08762"
     inkscape:window-width="1920"
     inkscape:window-height="974"
     inkscape:window-x="-11"
     inkscape:window-y="-11"
     inkscape:window-maximized="1"
     inkscape:current-layer="svg2" />
  <path
     d="m 2.6663202,28.337595 -4.030133,-0.02987 V 13.372827 -1.5626026 h 9.582134 9.5821338 V 13.374253 28.311109 l -1.042762,0.0026 c -0.573519,0.0014 -3.071919,0.01409 -5.552001,0.02818 -2.4800808,0.01409 -6.3227988,0.0124 -8.5393718,-0.004 z m 1.007584,-0.990167 c 1.368763,-0.310686 2.853452,-0.755878 2.853452,-0.855673 0,-0.150045 -0.183977,-0.122933 -1.634599,0.24085 -1.107965,0.277882 -1.570174,0.337009 -2.59071,0.331485 -0.683178,-0.0037 -1.49578795,-0.04904 -1.80579895,-0.100556 -0.646861,-0.107658 -0.749396,-0.07051 -0.442694,0.160529 0.531188,0.400139 2.34779695,0.51225 3.62034995,0.223433 z M 15.917723,27.310788 C 17.044757,27.116496 16.636,27.014305 14.72295,27.01222 c -1.734327,-0.0019 -2.068011,-0.03438 -3.160876,-0.31001 -0.672023,-0.169322 -1.293452,-0.307869 -1.380954,-0.307869 -0.2854908,0 -0.16718,0.198463 0.15089,0.253194 0.170506,0.02931 0.797476,0.186739 1.39327,0.349748 1.839015,0.503231 2.712922,0.568587 4.192426,0.313505 z m -5.509789,0.01353 c 0.04678,-0.04678 -0.109518,-0.13973 -0.347605,-0.207199 -0.3988428,-0.113013 -0.4388618,-0.161825 -0.5090938,-0.62002 -0.131388,-0.857455 -0.09994,-1.946707 0.06527,-2.263402 0.139448,-0.267285 0.128682,-0.381031 -0.097,-1.026985 -0.139618,-0.399519 -0.289606,-0.784258 -0.333233,-0.85494 -0.04735,-0.07694 -0.405437,-0.128514 -0.892204,-0.128514 h -0.812776 l -0.318916,0.835218 c -0.281546,0.737408 -0.303078,0.87933 -0.183865,1.211859 0.09717,0.271061 0.108166,0.708119 0.03946,1.55908 -0.08562,1.056611 -0.119833,1.186274 -0.321283,1.218459 -0.124004,0.01973 -0.300146,0.06116 -0.391402,0.09182 -0.146099,0.04904 -0.146099,0.06837 0,0.160755 0.196828,0.124511 3.9791668,0.146494 4.1028828,0.02367 z m -5.1769838,-1.005261 1.240041,-0.319311 0.03269,-0.799127 0.03269,-0.799122 -1.300978,-0.335544 -1.300977,-0.335543 v 0.305331 c 0,0.33064 -0.221686,0.479558 -0.535473,0.359781 -0.143337,-0.05467 -0.114647,0.02311 0.104953,0.284759 0.322185,0.383849 0.494325,0.785966 0.383736,0.896527 -0.0372,0.0372 -0.249079,-0.144916 -0.471159,-0.404423 -0.447486,-0.52279 -0.70458,-0.688876 -1.260479,-0.81425 -0.859083,-0.193784 -1.69241295,0.399406 -2.01968795,1.43767 -0.103262,0.327652 -0.153935,0.629636 -0.112506,0.671037 0.178059,0.178058 1.02486595,0.251897 2.44511795,0.213117 1.207062,-0.03269 1.778377,-0.107601 2.76191,-0.360851 z m 10.7838628,0.27884 c 0.616757,-0.127386 0.648243,-0.150045 0.587982,-0.422741 -0.03495,-0.1585 -0.184597,-0.544547 -0.332331,-0.857911 -0.567087,-1.202586 -1.977577,-1.2913 -2.944302,-0.185217 -0.36181,0.414004 -0.562415,0.440778 -0.441004,0.0589 0.03607,-0.113182 0.191756,-0.341913 0.346141,-0.508304 l 0.2807,-0.302514 -0.390218,0.0633 c -0.554919,0.09007 -0.672311,-0.237806 -0.21588,-0.60302 0.42043,-0.336446 0.376127,-0.3325 -0.836718,0.07384 -0.5552,0.186006 -1.128781,0.338982 -1.274638,0.33994 -0.48959,0.0032 -0.560498,0.133699 -0.524424,0.965276 l 0.03382,0.77772 0.732751,0.200943 c 1.873589,0.513771 3.711832,0.661404 4.978218,0.399857 z M -0.01101775,24.928746 c 0.281714,-0.552157 0.975838,-1.014529 1.52314195,-1.014529 0.279629,0 0.421275,-0.05947 0.469862,-0.197279 0.03833,-0.108503 0.180934,-0.349466 0.317169,-0.535472 0.136235,-0.186006 0.278277,-0.541109 0.315647,-0.789117 0.0372,-0.248008 0.104163,-0.57362 0.148354,-0.723586 0.06961,-0.236172 0.05129,-0.261254 -0.135052,-0.187585 -0.322354,0.12733 -1.94584395,0.08196 -2.22583395,-0.06223 -0.134319,-0.06916 -0.358315,-0.22969 -0.49782,-0.356737 l -0.253645,-0.231043 v 2.274269 c 0,1.250852 0.02424,2.274275 0.05411,2.274275 0.02987,0 0.157598,-0.202916 0.284139,-0.450981 z M 16.734905,20.782252 c -0.031,-0.031 -0.123779,-1.92e-4 -0.206354,0.06831 -0.215937,0.179242 -1.405085,0.471215 -1.918975,0.471215 -0.264861,0 -0.570007,-0.09396 -0.77192,-0.237749 -0.421614,-0.300203 -0.480403,-0.239836 -0.266045,0.273203 0.09379,0.22456 0.171746,0.498666 0.173211,0.609142 0.0014,0.110476 0.191699,0.579685 0.422742,1.042643 0.41547,0.832378 0.425277,0.841971 0.88248,0.862116 0.596781,0.02649 1.087928,0.284984 1.416989,0.746341 l 0.262551,0.368067 0.031,-2.073523 c 0.01691,-1.140437 0.0055,-2.098837 -0.02537,-2.12977 z m -2.767236,3.248614 c 0,-0.06003 -0.07609,-0.07998 -0.169097,-0.04453 -0.093,0.03551 -0.169096,0.08483 -0.169096,0.10918 0,0.02424 0.07609,0.04453 0.169096,0.04453 0.093,0 0.169097,-0.04904 0.169097,-0.10918 z M 2.9763982,23.914584 c 0.03833,-0.062 0.01578,-0.112731 -0.0496,-0.112731 -0.06567,0 -0.119382,0.05073 -0.119382,0.112731 0,0.062 0.02255,0.112731 0.0496,0.112731 0.02705,0 0.08105,-0.05073 0.119382,-0.112731 z m 3.438295,-0.262382 c 0,-0.08229 0.125582,-0.458758 0.279065,-0.836497 l 0.279066,-0.686831 -0.335431,-0.359104 c -0.417725,-0.447148 -0.473301,-0.799877 -0.08179,-0.518957 0.539981,0.387512 1.02287,0.521888 1.8755,0.521888 0.948851,0 1.47199,-0.199365 2.1056788,-0.802386 0.190064,-0.180877 0.378551,-0.295975 0.418795,-0.25573 0.08844,0.08844 -0.09605,0.466537 -0.38041,0.779834 -0.202183,0.2227 -0.201507,0.256012 0.02367,1.211858 0.202972,0.860999 0.261931,0.982856 0.475612,0.982991 0.198745,1.3e-4 2.285441,-0.641067 2.42565,-0.745354 0.02198,-0.01635 -0.09086,-0.426011 -0.250545,-0.910433 -0.159683,-0.484461 -0.323199,-1.093936 -0.363388,-1.354418 l -0.07299,-0.473582 -0.747407,0.07902 c -0.99688,0.105404 -5.9395018,0.10112 -7.0039758,-0.0062 l -0.845482,-0.08517 -0.323256,1.342755 c -0.177777,0.738512 -0.289493,1.397397 -0.248177,1.464184 0.04115,0.06679 0.516477,0.254096 1.05599,0.416316 0.539531,0.162163 1.031675,0.31125 1.093677,0.331203 0.284927,0.09188 0.62002,0.04002 0.62002,-0.09548 z m -3.128285,-0.155343 c -0.139505,-0.02706 -0.367785,-0.02706 -0.507289,0 -0.139505,0.02706 -0.02536,0.04904 0.253644,0.04904 0.279009,0 0.39315,-0.02198 0.253645,-0.04904 z m -1.911529,-2.358451 c 0.03889,-0.03889 0.0036,-0.203704 -0.07846,-0.366375 -0.256744,-0.50915 -0.06206,-0.603038 0.204156,-0.09841 0.294904,0.559089 0.539249,0.630233 1.060793,0.308939 0.393544,-0.242428 0.463437,-0.647983 0.100951,-0.585835 -0.216106,0.0372 -0.253645,-0.09667 -0.07677,-0.273542 0.208721,-0.208721 -0.0068,-0.491732 -0.382158,-0.501991 l -0.354314,-0.0096 0.328555,-0.09824 c 0.180707,-0.05411 0.378776,-0.06719 0.440158,-0.02931 0.06296,0.03889 0.07621,0.01184 0.03044,-0.06245 -0.05467,-0.08838 -0.439369,-0.12344 -1.174302,-0.106925 -0.60118299,0.01353 -1.15922399,-0.01635 -1.24007999,-0.06634 -0.08089,-0.05017 -0.177439,-0.06042 -0.214696,-0.02311 -0.0372,0.0372 -0.0085,0.06764 0.06386,0.06764 0.07232,0 0.1315,0.04904 0.1315,0.10918 0,0.06003 -0.06944,0.08258 -0.154272,0.05017 -0.191417,-0.07344 -0.307699,0.320945 -0.221573,0.751532 0.03438,0.172422 0.189839,0.431252 0.345183,0.575075 l 0.282447,0.261535 -0.07288,-0.394558 -0.07288,-0.394559 0.257027,0.41936 c 0.223207,0.364177 0.348169,0.463606 0.66096399,0.525777 0.03607,0.0073 0.09757,-0.0186 0.136404,-0.0576 z m -0.45041595,-1.46601 c 0.11036295,-0.110363 0.86825895,-0.1315 0.86825895,-0.02424 0,0.05242 -0.21137,0.09537 -0.469693,0.09537 -0.258323,0 -0.43767795,-0.03213 -0.39856095,-0.07119 z M 15.033338,20.58424 c 0.179749,-0.378776 0.178622,-0.418007 -0.02142,-0.760568 -0.275571,-0.471892 -0.593304,-0.545449 -0.593304,-0.137306 0,0.163629 0.05467,0.399969 0.121863,0.525213 0.151228,0.282504 0.05411,0.400984 -0.174057,0.211822 -0.09374,-0.07778 -0.259789,-0.106475 -0.369081,-0.06375 -0.174001,0.06798 -0.156696,0.111547 0.139448,0.350255 0.462761,0.373027 0.673985,0.343378 0.896572,-0.125639 z m 0.738027,0.06116 c 0.158669,-0.158668 0.225462,-0.375788 0.225462,-0.732751 V 19.40536 h -0.450924 c -0.44743,0 -0.623481,0.218247 -0.324891,0.402787 0.07953,0.04904 0.10112,0.259451 0.05851,0.570312 -0.07711,0.562697 0.09999,0.658845 0.491846,0.266941 z m 0.770544,-0.366375 c 0.29451,-0.478994 0.216387,-0.986396 -0.151848,-0.986396 -0.239497,0 -0.256463,0.04566 -0.250489,0.676385 0.0035,0.372013 0.04453,0.676386 0.09171,0.676386 0.04678,0 0.186739,-0.164869 0.31063,-0.366375 z m -12.9494588,-0.1899 c 0.164362,-0.307135 0.142943,-0.474033 -0.101796,-0.792521 l -0.213513,-0.277826 -0.231154,0.277826 c -0.288817,0.347099 -0.28893,0.335487 0.0079,0.70427 0.292706,0.363783 0.383285,0.378607 0.538685,0.08827 z m 5.753249,-0.295919 c 0,-0.129527 -0.211202,-0.162952 -1.042762,-0.164981 -0.573519,-0.0014 -1.674782,-0.05186 -2.447255,-0.111717 -1.412434,-0.1098 -1.790619,-0.04847 -1.498752,0.243499 0.117578,0.117579 4.673731,0.333797 4.90422,0.232733 0.04622,-0.02029 0.08455,-0.110194 0.084549,-0.199534 z m 0.563655,-0.119889 c 0,-0.181891 -0.291636,-0.209116 -0.397884,-0.0372 -0.04002,0.06499 -0.04227,0.197505 -0.0053,0.29451 0.05467,0.142548 0.09988,0.149706 0.235438,0.0372 0.09227,-0.07655 0.167744,-0.209116 0.167744,-0.29451 z m 4.0391558,0.309841 c 0.08517,-0.05411 0.133868,-0.235889 0.112731,-0.420994 -0.02987,-0.262607 -0.09199,-0.325961 -0.319028,-0.325961 -0.244288,0 -0.286506,0.05636 -0.316831,0.422741 -0.02875,0.346197 0.002,0.422403 0.169097,0.420994 0.112223,-9.47e-4 0.271569,-0.04453 0.354031,-0.09678 z m -1.231186,-0.293777 c 0.09131,-0.09131 0.14362,-0.183526 0.116339,-0.205001 -0.02706,-0.02142 -0.645718,0.009 -1.374242,0.06815 -1.064485,0.08613 -1.324589,0.140914 -1.324589,0.278953 0,0.14779 0.168759,0.16143 1.208262,0.09785 0.832519,-0.05073 1.259882,-0.125526 1.374247,-0.239891 z m 2.875548,-0.413835 c 0.538347,-0.02029 0.98107,-0.232564 0.820389,-0.393262 -0.0496,-0.0496 -0.125808,-0.04115 -0.168928,0.01916 -0.07846,0.109518 -0.224616,0.134488 -1.120664,0.191643 -0.469468,0.02987 -0.617783,0.131275 -0.3387,0.23138 0.0775,0.02762 0.173098,0.03269 0.212441,0.01071 0.03946,-0.02198 0.307305,-0.04847 0.595479,-0.05958 z M 9.5781842,18.992253 c 0.06279,-0.165151 0.14531,-0.773915 0.1833,-1.352772 l 0.06916,-1.052468 h -1.239144 -1.239128 l -0.299751,0.550747 c -0.352679,0.647995 -0.364178,0.784197 -0.104558,1.236558 0.187979,0.32754 0.115662,0.675123 -0.07598,0.365079 -0.05186,-0.08365 -0.154498,-0.114704 -0.228506,-0.06893 -0.08816,0.05467 -0.125357,0.01071 -0.107996,-0.126484 0.01465,-0.115267 -0.01296,-0.301274 -0.06172,-0.413272 -0.05924,-0.136799 0.03664,-0.477923 0.292706,-1.038895 l 0.380861,-0.835235 1.340941,-0.0039 1.340935,-0.0039 -0.06454,-0.769885 c -0.03551,-0.423356 -0.140181,-0.943344 -0.232621,-1.155431 l -0.168082,-0.385596 -0.009,0.794753 c -0.0096,0.847839 -0.119043,1.065308 -0.535077,1.065308 -0.34056,0 -0.499511,-0.331598 -0.471892,-0.984502 0.04509,-1.069885 0.02311,-1.134339 -0.374831,-1.103011 -0.196884,0.01522 -0.742226,-0.11352 -1.211858,-0.286731 -0.908578,-0.335037 -2.056376,-0.888935 -1.868454,-0.901634 0.062,-0.0042 -0.01409,-0.06302 -0.169096,-0.130711 -0.155005,-0.0677 -0.350312,-0.11183 -0.434071,-0.09808 -0.09469,0.01578 -0.119664,-0.02762 -0.06606,-0.114366 0.06009,-0.09723 0.02931,-0.117635 -0.101401,-0.06747 -0.103149,0.03946 -0.187585,0.02649 -0.187585,-0.02875 0,-0.186908 -1.015007,-0.04847 -1.328213,0.181384 -0.454306,0.333177 -1.056887,1.271363 -0.977406,1.521778 0.04509,0.14176 1.46e-4,0.231155 -0.13849,0.276079 -0.87361995,0.282785 -0.83337495,0.226307 -1.55893395,2.187133 l -0.396306,1.070944 0.283462,0.248403 c 0.393657,0.345013 0.976047,0.483278 2.03038595,0.482038 1.066103,-0.0012 1.477143,-0.163066 1.440364,-0.567037 -0.01409,-0.151905 0.0029,-0.593207 0.0372,-0.98072 0.05242,-0.592092 0.0961,-0.704569 0.274049,-0.704569 0.226477,0 0.925713,-0.628227 1.317279,-1.183472 0.131106,-0.185894 0.265087,-0.311251 0.297722,-0.278615 0.06375,0.06375 -0.36491,1.356717 -0.585519,1.76619 -0.213343,0.395911 -0.309052,2.244277 -0.127555,2.462969 0.125695,0.151454 0.124342,0.197167 -0.0085,0.279179 -0.134657,0.0832 -0.133022,0.10794 0.01071,0.163009 0.284026,0.109011 2.228697,0.253475 3.631928,0.269878 l 1.327379,0.01578 z m 0.5872718,-0.377367 c 0.114422,-0.788841 0.06031,-2.084244 -0.08703,-2.084244 -0.0624,0 -0.1435066,0.478149 -0.1817226,1.070944 -0.03777,0.58902 -0.108109,1.215472 -0.155907,1.39211 -0.07474,0.276191 -0.05738,0.315477 0.124005,0.280531 0.1612606,-0.031 0.2320556,-0.186232 0.3006536,-0.659358 z m 0.538966,-1.197045 c -0.142153,-1.003616 -0.231436,-1.033033 -0.231436,-0.07626 0,0.435705 -0.02706,1.040214 -0.06037,1.343376 l -0.06037,0.551198 0.228618,-0.538121 c 0.198181,-0.466538 0.21464,-0.63688 0.123497,-1.280207 z m 0.895879,1.649248 c 0,-0.062 -0.06341,-0.11352 -0.140913,-0.114478 -0.103713,-0.0013 -0.1005,-0.02705 0.01184,-0.09864 0.106644,-0.06758 0.115155,-0.120284 0.02818,-0.174 -0.0686,-0.04227 -0.170787,-0.04847 -0.226984,-0.01409 -0.05637,0.03495 -0.08156,-0.02593 -0.05637,-0.134263 0.02536,-0.108616 -9.98e-4,-0.451093 -0.05839,-0.761086 l -0.104332,-0.563655 0.01127,0.629247 c 0.0073,0.42105 -0.05129,0.718407 -0.177608,0.898748 -0.272922,0.389655 -0.240455,0.44478 0.262156,0.44478 0.248008,0 0.450924,-0.05073 0.450924,-0.112731 z m 1.183676,-0.112731 c 0.16222,-0.06972 0.0434,-0.09909 -0.422742,-0.104783 -0.362261,-0.0044 -0.648203,0.04171 -0.648203,0.104783 0,0.135841 0.75487,0.135841 1.070945,0 z M 2.7227362,18.722978 c 0.729127,-0.202465 0.490887,-0.343097 -0.450924,-0.266102 -0.816617,0.06674 -1.58749395,-0.04904 -2.31098495,-0.347155 -0.297272,-0.122482 -0.252348,0.243612 0.0496,0.405325 0.618633,0.331091 1.91177095,0.430237 2.71212695,0.207988 z M 15.791741,18.435063 c 0.166222,-0.03213 0.369137,-0.139956 0.450924,-0.239159 0.132008,-0.160021 0.121862,-0.165996 -0.0903,-0.05298 -0.131444,0.07006 -0.651433,0.161712 -1.155492,0.203761 -0.504077,0.04227 -0.916464,0.123891 -0.916464,0.181891 0,0.09915 1.003565,0.04453 1.711358,-0.09351 z m -4.471373,-1.66834 c 0.630414,0.158218 1.545829,-0.474879 1.698534,-1.174724 0.127499,-0.5842 0.191587,-0.653992 0.276755,-0.30133 0.08122,0.336333 0.08173,0.335882 0.09503,-0.07903 0.01353,-0.416484 -0.114253,-1.194576 -0.341067,-2.080653 l -0.120003,-0.468679 -0.692833,0.398391 c -0.381087,0.219149 -0.752034,0.472005 -0.82439,0.561964 -0.08731,0.10856 -0.110589,0.440835 -0.06922,0.988127 0.05687,0.751876 0.04171,0.835522 -0.17028,0.94906 -0.470483,0.251784 -0.699902,-0.107151 -0.699902,-1.094996 0,-0.269709 -0.0372,-0.365587 -0.113182,-0.289831 -0.06972,0.06972 -0.08443,0.452671 -0.03833,0.997088 0.06189,0.732267 0.120002,0.923295 0.338643,1.113388 0.158782,0.138039 0.270048,0.367277 0.279292,0.575508 0.01184,0.265877 0.02649,0.287239 0.06426,0.09221 0.03946,-0.203761 0.10174,-0.240568 0.316831,-0.186569 z m -1.11868,-1.053302 c -0.03946,-0.356511 -0.100331,-0.885282 -0.135109,-1.175046 -0.06093,-0.507176 -0.04509,-0.543983 0.424602,-0.986396 0.268356,-0.252743 0.554129,-0.459548 0.635047,-0.459548 0.20393,0 2.009126,-1.241528 1.939587,-1.333934 -0.031,-0.04115 0.02762,-0.07497 0.130036,-0.07508 0.102528,-7.9e-5 0.366432,-0.150045 0.586483,-0.333233 0.306571,-0.255279 0.371279,-0.367841 0.276754,-0.481699 -0.09441,-0.113802 -0.08348,-0.133305 0.04678,-0.08325 0.293045,0.112449 0.328837,-0.395122 0.06138,-0.8709478 L 13.92589,9.4848382 14.181001,8.7621764 c 0.248684,-0.704484 0.251784,-0.767591 0.122369,-2.508169 -0.07299,-0.982028 -0.209961,-2.039145 -0.304317,-2.349156 -0.19587,-0.643592 -0.666781,-1.4688 -1.243795,-2.179563 -0.404197,-0.497933 -1.432146,-1.37146302 -1.61384,-1.37146302 -0.05524,0 0.05687,0.222926 0.24891,0.495453 0.192094,0.27247102 0.326638,0.56314802 0.299075,0.64589802 -0.03213,0.09672 -0.125638,0.03044 -0.261535,-0.185443 -0.116282,-0.184709 -0.352003,-0.51901302 -0.523805,-0.74285802 -0.171858,-0.223827 -0.287859,-0.431534 -0.257816,-0.461577 0.123441,-0.12344 -1.1934988,-0.451487 -2.0334298,-0.506556 -1.143402,-0.07497 -1.99845,0.08567 -3.031826,0.569629 -0.989829,0.46355 -1.4753,0.87512002 -2.153861,1.82604002 -1.11673,1.564959 -1.267486,2.284454 -0.803586,3.835198 0.50898,1.701454 0.485758,2.301871 -0.124737,3.22436 -0.313449,0.4736388 -0.362317,1.0351126 -0.128175,1.4725876 0.171915,0.321227 0.393318,0.542349 0.468172,0.467495 0.03213,-0.03213 0.05073,0.03382 0.04171,0.146269 -0.01465,0.176762 0.07959,0.20641 0.687659,0.216556 0.387512,0.0062 0.704568,-0.0054 0.704568,-0.02649 0,-0.02086 -0.250037,-0.164756 -0.555651,-0.319592 -0.57397,-0.290849 -0.762473,-0.470768 -0.630961,-0.602308 0.1036,-0.1036 2.406237,1.115124 2.482517,1.313902 0.04791,0.124793 -0.01691,0.143225 -0.303923,0.08584 -0.200661,-0.04002 -0.315703,-0.03213 -0.255674,0.01804 0.198576,0.165094 1.669586,0.800751 2.814752,1.216328 0.62002,0.225011 1.292179,0.509938 1.493686,0.633238 0.201506,0.123271 0.366375,0.175184 0.366375,0.115324 0,-0.157711 -0.825219,-0.879026 -1.261488,-1.102678 -0.74217,-0.380466 -2.55303,-1.614357 -2.946055,-2.007377 -0.221178,-0.221178 -0.538967,-0.635605 -0.706186,-0.9209838 -0.286337,-0.4886318 -0.300146,-0.5758688 -0.236172,-1.4960858 0.261705,-3.765446 2.995043,-6.912343 5.7392198,-6.607558 0.775205,0.08613 2.005202,0.660953 2.584177,1.207755 0.809842,0.764834 0.828449,0.848954 0.828449,3.746202 v 2.592813 l -0.31762,0.6467488 c -0.185048,0.3768028 -0.726173,1.0850078 -1.296406,1.6966408 -0.538347,0.577436 -1.267784,1.362253 -1.62097,1.744039 l -0.6421498,0.694152 0.0673,1.188416 c 0.05298,0.937803 0.102134,1.188421 0.2323948,1.188421 0.13415,0 0.151623,-0.121468 0.09328,-0.648203 z M 7.1128362,12.537034 c -0.982005,-0.585237 -1.261003,-0.898015 -0.416316,-0.466706 0.676516,0.345408 1.452539,0.906064 1.240041,0.895862 -0.062,-0.003 -0.432661,-0.196096 -0.823725,-0.429167 z m 4.1492888,0.367898 c 0,-0.06031 0.387569,-0.486716 0.861197,-0.947504 0.47364,-0.460788 1.080843,-1.088807 1.349294,-1.395565 0.268469,-0.306741 0.519916,-0.52589 0.558808,-0.486998 0.136066,0.136067 -0.610055,1.051476 -1.48859,1.826389 -1.245306,1.098422 -1.280703,1.126165 -1.280703,1.003706 z m 2.197127,-1.615058 c 0.177608,-0.185386 0.349523,-0.310405 0.382046,-0.277882 0.06533,0.06533 -0.491113,0.61488 -0.622546,0.61488 -0.04509,0 0.0629,-0.151679 0.240511,-0.337009 z M 3.0327632,11.143719 c 0,-0.05129 0.04622,-0.0651 0.103093,-0.02987 0.0567,0.03495 0.122482,0.0056 0.146099,-0.06533 0.031,-0.09272 0.12857,-0.08427 0.346704,0.02987 l 0.303698,0.15912 h -0.449797 c -0.247388,0 -0.449797,-0.04227 -0.449797,-0.09379 z m 0.56538,-2.8141826 c -9.47e-4,-0.29451 0.04904,-0.535472 0.110984,-0.535472 0.144013,0 0.144013,0.678973 0,0.901848 -0.07902,0.122313 -0.109744,0.02085 -0.110984,-0.366376 z M 13.9961,6.9485814 c 0.0013,-0.248008 0.02424,-0.336163 0.05129,-0.195982 0.02706,0.140237 0.02593,0.343153 -0.0023,0.450923 -0.02818,0.107771 -0.05016,-0.0068 -0.04904,-0.254941 z M 7.3598462,1.1616544 C 7.0157352,0.75187738 6.7853072,0.59681638 6.1328652,0.33601838 c -0.307192,-0.122764 -0.315646,-0.13911 -0.09216,-0.178284 0.427984,-0.07497 1.444107,0.57986 1.736785,1.11925002 0.20021,0.368912 -0.07474,0.292988 -0.417612,-0.115324 z m 9.5232658,4.570143 c 0.0062,-4.88522602 -0.02255,-6.30158302 -0.130542,-6.34297802 -0.07638,-0.02931 -1.533221,-0.04002 -3.237398,-0.02311 l -3.098501,0.02987 0.667661,0.338193 c 1.211632,0.613735 2.564979,2.08249602 3.220053,3.49466002 0.20021,0.431534 0.283462,0.880705 0.355441,1.916427 0.05186,0.744025 0.126202,1.766004 0.165658,2.271067 0.05699,0.73008 0.03157,1.023874 -0.125019,1.433386 -0.183131,0.479501 -0.184089,0.546689 -0.01353,0.9722308 0.248121,0.6201668 0.229858,1.0388558 -0.0615,1.4092898 -0.162051,0.206016 -0.209511,0.357808 -0.140914,0.450304 0.404479,0.545449 0.53102,0.782421 0.730542,1.36847 0.124117,0.364515 0.325511,0.847252 0.447542,1.072703 0.122031,0.225462 0.221855,0.480741 0.221855,0.567341 0,0.08658 0.190233,0.510897 0.422741,0.942865 l 0.422741,0.785431 0.0726,-2.198255 c 0.04002,-1.20904 0.07637,-5.0286126 0.08094,-8.4879326 z M 9.0500622,15.369378 c 0.109574,-0.177326 -0.09836,-1.638489 -0.239836,-1.685385 -0.104952,-0.03495 -0.140913,0.185781 -0.140913,0.864534 0,0.718254 0.03438,0.911244 0.162445,0.911244 0.08934,0 0.187584,-0.04058 0.218304,-0.09041 z m -9.10785295,-0.540884 c 0.07108,-0.378832 0.641321,-1.05652 0.8923,-1.060398 0.062,-9.58e-4 0.28983095,-0.30939 0.50633095,-0.685342 0.2165,-0.375958 0.564433,-0.854434 0.773233,-1.063234 l 0.379622,-0.379622 -0.213625,-0.316492 c -0.690872,-1.023501 -0.732323,-1.7186848 -0.15602,-2.6167676 0.478036,-0.745 0.491282,-1.218791 0.0739,-2.64432 -0.443202,-1.513622 -0.406564,-2.199319 0.178453,-3.340269 0.635843,-1.240126 1.649103,-2.32306502 2.680907,-2.86526102 0.43655,-0.229408 0.793739,-0.439708 0.793739,-0.467327 0,-0.02762 -1.395046,-0.05016 -3.100103,-0.05016 H -0.34915575 V 7.3498524 c 0,7.5253566 0.04847,8.7728096 0.291354,7.4787146 z M 11.11482,14.544581 c -0.07249,-0.864782 -0.125695,-0.998785 -0.319536,-0.804938 -0.198801,0.198801 -0.01465,1.607403 0.210356,1.607403 0.149932,0 0.166334,-0.120735 0.10918,-0.802465 z m -0.97974,-2.63857 c 0.41485,-0.210694 0.630764,-0.495734 0.83346,-1.100328 0.212441,-0.633599 0.228675,-0.9396008 0.0558,-1.0466108 -0.176424,-0.109011 -0.288761,0.118142 -0.373253,0.7549758 -0.04002,0.302063 -0.124116,0.549226 -0.186795,0.549226 -0.06916,0 -0.08489,-0.155005 -0.04002,-0.394559 0.06927,-0.369081 0.05524,-0.394558 -0.220333,-0.394558 -0.2612538,0 -0.2943968,0.04453 -0.2943968,0.394558 0,0.497257 -0.199083,0.520028 -0.246486,0.02818 -0.02706,-0.27946 -0.08883,-0.366376 -0.260803,-0.366376 -0.17913,0 -0.232621,0.0868 -0.260465,0.422741 -0.01916,0.232508 -0.07959,0.422742 -0.134094,0.422742 -0.05467,0 -0.114873,-0.190234 -0.134093,-0.422742 -0.02818,-0.339545 -0.08489,-0.429843 -0.288648,-0.458758 -0.222418,-0.03157 -0.253645,0.01353 -0.253645,0.366375 0,0.581461 -0.185724,0.494889 -0.254884,-0.118818 -0.06307,-0.5597088 -0.2621,-0.7851488 -0.510897,-0.5786758 -0.375169,0.3113628 0.202352,1.4829978 0.911779,1.8498698 0.751008,0.388358 1.043731,0.404761 1.6579518,0.09278 z M 8.8947752,9.8675302 c 0,-0.08635 0.05073,-0.157034 0.112731,-0.157034 0.062,0 0.112731,0.07311 0.112731,0.162446 0,0.3659238 0.673049,0.3370648 0.67997,-0.02931 0.0033,-0.174113 0.01578,-0.173493 0.153315,0.0073 0.2123848,0.2797418 0.5033428,0.2443438 0.5824688,-0.07091 0.05355,-0.212723 0.162558,-0.280925 0.527863,-0.329963 0.533668,-0.07158 1.02933,-0.3999138 1.076508,-0.7130458 0.01804,-0.119664 0.144859,-0.266778 0.281827,-0.326864 0.432718,-0.189895 0.839998,-1.991449 0.533669,-2.36057 -0.223377,-0.269145 -0.340955,-0.09182 -0.340955,0.514222 0,0.652566 -0.180821,1.139987 -0.612958,1.652507 -0.540432,0.640898 -1.298464,0.470257 -1.743125,-0.392416 -0.118199,-0.229352 -0.199647,-0.248685 -0.9237008,-0.219544 -0.777619,0.03157 -0.997692,0.13911 -1.002269,0.491056 -9.47e-4,0.07299 -0.13539,0.237863 -0.298737,0.366376 -0.357357,0.281095 -1.013243,0.307248 -1.373695,0.05467 -0.202352,-0.141669 -0.289493,-0.150519 -0.419641,-0.0428 -0.218303,0.181158 -0.207312,0.374774 0.03326,0.582402 0.23651,0.204325 1.069874,0.4532908 1.578234,0.4714408 0.26458,0.0096 0.366376,0.06634 0.366376,0.204776 0,0.223207 0.314519,0.4303498 0.528652,0.3481688 0.08122,-0.031 0.147734,-0.1273288 0.147734,-0.2137378 z m 4.22e-4,-0.9179678 c 5.87e-4,-0.274782 0.416823,-0.930031 0.590823,-0.930031 0.184372,0 0.373253,0.304543 0.474316,0.764632 0.085,0.387062 -0.0952,0.498835 -0.366657,0.227379 -0.105235,-0.105235 -0.16532,-0.105235 -0.270555,0 -0.198294,0.198293 -0.428434,0.164925 -0.427927,-0.062 z m -2.764366,-0.585429 c 0.03946,-0.124906 -0.02987,-0.41361 -0.161488,-0.671894 -0.142435,-0.279178 -0.231042,-0.670755 -0.231042,-1.020987 0,-0.466537 -0.03551,-0.567871 -0.197279,-0.566597 -0.139392,0.0011 -0.254546,0.181891 -0.392416,0.616339 -0.10732,0.338137 -0.174959,0.679853 -0.150327,0.759385 0.0248,0.07953 0.07508,0.282785 0.112054,0.451769 0.06273,0.286675 0.504415,0.635938 0.817683,0.64654 0.07333,0.0025 0.164588,-0.09407 0.20286,-0.214527 z m 3.531377,-1.575032 c 0.03551,-0.618279 -0.08387,-0.83767 -0.390839,-0.719872 -0.09971,0.03833 -0.151115,0.258548 -0.151115,0.647166 0,0.634935 0.06093,0.76572 0.332725,0.714139 0.126541,-0.02424 0.184146,-0.200548 0.209285,-0.641433 z m -0.767433,-0.323482 v -0.764789 l -0.591838,-0.583564 c -0.617929,-0.609294 -1.414509,-0.988786 -1.847695,-0.880237 -0.204099,0.05129 -0.942397,1.008813 -0.942397,1.222421 0,0.03833 0.249643,0.04002 0.554806,0.0037 0.450924,-0.05355 0.630363,-0.01917 0.958213,0.183582 0.221855,0.137137 0.403408,0.290395 0.403408,0.340673 0,0.200098 1.04921,1.24304 1.250485,1.24304 0.190403,0 0.215035,-0.08754 0.215035,-0.764784 z m 1.6659998,0.31328 c 0.627883,-1.099505 1.476274,-1.661418 2.04715,-1.355895 0.364177,0.194912 0.422966,0.05298 0.171576,-0.413779 -0.254885,-0.473301 -0.764598,-0.821488 -1.203448,-0.822091 -0.356963,-4.96e-4 -0.922737,0.459999 -1.385464,1.127733 -0.2706108,0.3905 -0.3154778,0.558018 -0.2936638,1.097047 0.04002,0.98386 0.2463738,1.098051 0.6638268,0.366996 z m 0.708283,0.106418 c 0.243217,-0.243217 0.25714,-0.56281 0.02762,-0.639117 -0.129246,-0.04284 -0.485701,0.509713 -0.485701,0.753184 0,0.188937 0.206241,0.137531 0.457857,-0.114084 z m -3.6148818,0.03495 c -3.1e-4,-0.04679 -0.119044,-0.232624 -0.263791,-0.413557 -0.177044,-0.221235 -0.324552,-0.305445 -0.45036,-0.257196 -0.247783,0.09509 -0.236171,0.255279 0.03833,0.529779 0.217853,0.217853 0.676966,0.313561 0.675828,0.140914 z"
     style="display:inline;fill:#201e1e;stroke-width:5.63655"
     id="path1" />
</svg>
