<?xml version="1.0" ?><!-- Uploaded to: SVG Repo, www.svgrepo.com, Generator: SVG Repo Mixer Tools -->
<svg fill="#000000" width="800px" height="800px" viewBox="0 0 100 100" data-name="Layer 1" id="Layer_1" xmlns="http://www.w3.org/2000/svg"><title/><path d="M78.82,22.59a3.17,3.17,0,0,0-3.17,3.17V27.5L50,56.53l-25.65-29V25.76a3.18,3.18,0,0,0-6.35,0V77.41h6.35V64h51.3V77.41H82V25.76A3.17,3.17,0,0,0,78.82,22.59ZM75.65,45.35,56.41,55.13l19.24-15ZM24.35,40.1l19.24,15L24.35,45.35Zm51.3-2.54L55.57,53.25,75.65,30.52ZM44.43,53.25,24.35,37.56v-7ZM24.35,47.59l19.32,9.82H24.35Zm32,9.82,19.32-9.82v9.82Z"/></svg>