<?xml version="1.0" ?><!-- Uploaded to: SVG Repo, www.svgrepo.com, Generator: SVG Repo Mixer Tools -->
<svg fill="#000000" width="800px" height="800px" viewBox="0 0 100 100" data-name="Layer 1" id="Layer_1" xmlns="http://www.w3.org/2000/svg"><title/><path d="M78.34,44.83a9.45,9.45,0,0,0,.15-1.61,9.26,9.26,0,1,0-18.51,0,9.45,9.45,0,0,0,.15,1.61,9.75,9.75,0,0,0-3.67,7.43c0,5.12,4.38,9.4,10.19,10.39V74.06H52.09V22.11a1.82,1.82,0,0,0-1.83-1.83H24.68a1.82,1.82,0,0,0-1.83,1.83v52H18v5.66H77.38V74.06H71.81V62.65C77.63,61.66,82,57.38,82,52.26A9.77,9.77,0,0,0,78.34,44.83ZM40.12,28.57a1.09,1.09,0,0,1,1.09-1.09h4.3a1.09,1.09,0,0,1,1.09,1.09v4.3A1.09,1.09,0,0,1,45.51,34h-4.3a1.09,1.09,0,0,1-1.09-1.09Zm0,10.67a1.09,1.09,0,0,1,1.09-1.09h4.3a1.09,1.09,0,0,1,1.09,1.09v4.3a1.09,1.09,0,0,1-1.09,1.09h-4.3a1.09,1.09,0,0,1-1.09-1.09Zm0,10.67a1.09,1.09,0,0,1,1.09-1.1h4.3a1.09,1.09,0,0,1,1.09,1.1V54.2a1.09,1.09,0,0,1-1.09,1.1h-4.3a1.09,1.09,0,0,1-1.09-1.1Zm0,10.66a1.09,1.09,0,0,1,1.09-1.09h4.3a1.09,1.09,0,0,1,1.09,1.09v4.3A1.09,1.09,0,0,1,45.51,66h-4.3a1.09,1.09,0,0,1-1.09-1.09Zm-11.78-32a1.09,1.09,0,0,1,1.09-1.09h4.3a1.09,1.09,0,0,1,1.09,1.09v4.3A1.09,1.09,0,0,1,33.73,34h-4.3a1.09,1.09,0,0,1-1.09-1.09Zm0,10.67a1.09,1.09,0,0,1,1.09-1.09h4.3a1.09,1.09,0,0,1,1.09,1.09v4.3a1.09,1.09,0,0,1-1.09,1.09h-4.3a1.09,1.09,0,0,1-1.09-1.09Zm0,10.67a1.09,1.09,0,0,1,1.09-1.1h4.3a1.09,1.09,0,0,1,1.09,1.1V54.2a1.09,1.09,0,0,1-1.09,1.1h-4.3a1.09,1.09,0,0,1-1.09-1.1Zm0,10.66a1.09,1.09,0,0,1,1.09-1.09h4.3a1.09,1.09,0,0,1,1.09,1.09v4.3A1.09,1.09,0,0,1,33.73,66h-4.3a1.09,1.09,0,0,1-1.09-1.09Z"/></svg>