<?xml version="1.0" ?><!-- Uploaded to: SVG Repo, www.svgrepo.com, Generator: SVG Repo Mixer Tools -->
<svg fill="#000000" width="800px" height="800px" viewBox="0 0 100 100" data-name="Layer 1" id="Layer_1" xmlns="http://www.w3.org/2000/svg"><title/><path d="M28.54,18H71.46a4,4,0,0,1,4,4v6h-51V22A4,4,0,0,1,28.54,18ZM78.69,80.23A1.13,1.13,0,0,1,77.75,82H73.5a1.14,1.14,0,0,1-.94-.5l-2.28-3.38H29.72L27.44,81.5a1.14,1.14,0,0,1-.94.5H22.25a1.13,1.13,0,0,1-.94-1.77L28.9,69h-.36a4,4,0,0,1-4-4V32h51V64.94a4,4,0,0,1-4,4H71.1ZM36.57,62.5a6.24,6.24,0,1,0-6.24-6.23A6.23,6.23,0,0,0,36.57,62.5Zm31,11.62L64.11,69H35.89l-3.47,5.16Zm2.09-17.85a6.24,6.24,0,1,0-6.24,6.23A6.24,6.24,0,0,0,69.67,56.27Z"/></svg>