<?xml version="1.0" ?><!-- Uploaded to: SVG Repo, www.svgrepo.com, Generator: SVG Repo Mixer Tools -->
<svg fill="#000000" width="800px" height="800px" viewBox="0 0 100 100" data-name="Layer 1" id="Layer_1" xmlns="http://www.w3.org/2000/svg"><title/><path d="M39.25,18a2.75,2.75,0,0,0-2.75,2.75V70.17a2.75,2.75,0,0,0,2.75,2.75h8v8.65a.43.43,0,0,0,.43.43h4.7a.43.43,0,0,0,.43-.43V72.92h8a2.75,2.75,0,0,0,2.75-2.75V20.75A2.75,2.75,0,0,0,60.75,18ZM50,67.57a6,6,0,1,1,6-6A6,6,0,0,1,50,67.57Zm0-16.14a6,6,0,1,1,6-6A6,6,0,0,1,50,51.43ZM50,35.3a6,6,0,1,1,6-6A6,6,0,0,1,50,35.3Z"/></svg>