<?xml version="1.0" ?><!-- Uploaded to: SVG Repo, www.svgrepo.com, Generator: SVG Repo Mixer Tools -->
<svg fill="#000000" width="800px" height="800px" viewBox="0 0 100 100" data-name="Layer 1" id="Layer_1" xmlns="http://www.w3.org/2000/svg"><title/><path d="M67.33,72.15H62.59V65.22h1.25a6.41,6.41,0,0,0,6.4-6.4V44.48h1.05a1,1,0,0,0,1-1V37.79L74.94,40a.58.58,0,0,0,.37.13.56.56,0,0,0,.44-.21.57.57,0,0,0-.08-.81L72.34,36.3V32.44l8.82-5.22a1.72,1.72,0,1,0-1.76-3l-9.27,5.5H67a1.15,1.15,0,0,0-1.15,1.14V43.43a1.05,1.05,0,0,0,1,1V58.82a3,3,0,0,1-3,3H62.59V22.61a2.93,2.93,0,0,0-2.93-2.93h-34a2.94,2.94,0,0,0-2.94,2.93V72.15H18v8.17H67.33ZM54.65,42.76h-24V29.28h24Z"/></svg>