<?xml version="1.0" ?><!-- Uploaded to: SVG Repo, www.svgrepo.com, Generator: SVG Repo Mixer Tools -->
<svg fill="#000000" width="800px" height="800px" viewBox="0 0 100 100" data-name="Layer 1" id="Layer_1" xmlns="http://www.w3.org/2000/svg"><title/><path d="M82,55.07V65.89a2,2,0,0,1-2,2H76.33a9.73,9.73,0,1,0-19.45,0H41.83a9.73,9.73,0,1,0-19.45,0H20a2,2,0,0,1-2-2V57.31a2,2,0,0,1,1.16-1.81L28.87,51c1.31-1.41,7.94-9,12.07-13.81a2,2,0,0,1,1.51-.69H63.63a2,2,0,0,1,1.71,1L73,50.12l7.76,3.09A2,2,0,0,1,82,55.07ZM32.1,62.16a5.73,5.73,0,1,0,5.73,5.73A5.73,5.73,0,0,0,32.1,62.16Zm40.23,5.73a5.73,5.73,0,1,0-5.73,5.73A5.74,5.74,0,0,0,72.33,67.89ZM54.94,27a.66.66,0,0,0-.66-.66H50.66A.65.65,0,0,0,50,27v6.53h4.94Z"/></svg>