<svg width="421" height="85" viewBox="0 0 421 85" fill="none" xmlns="http://www.w3.org/2000/svg">
<rect width="421" height="85" fill="white"/>
<path d="M250.408 84.0473C168.451 83.6329 78.5821 83.2648 50.6981 83.2295L0 83.1652L0.19876 41.7474C0.308084 18.9676 0.53522 0.206606 0.703518 0.0563486C1.09518 -0.293367 355.178 1.07918 392.739 1.57601L421 1.94978L420.995 40.2633C420.992 61.3358 420.794 80.0221 420.557 81.7885L420.125 85L409.772 84.9003C404.078 84.8455 332.364 84.4617 250.408 84.0473ZM283.688 64.4527C289.309 64.9075 296.453 66.667 298.879 68.1943C299.882 68.8258 300.421 69.7932 300.421 70.9651C300.421 73.0266 300.833 73.176 302.593 71.7532C305.432 69.459 303.245 65.7857 297.794 63.6916C293.669 62.1074 283.895 60.5311 278.196 60.5311C275.845 60.5311 273.481 60.1912 272.879 59.7665C272.206 59.2917 270.726 54.8274 268.976 47.9909C267.426 41.9348 266.159 36.7046 266.162 36.3682C266.165 35.8895 279.893 33.4197 280.314 33.822C280.371 33.8765 280.217 35.5194 279.971 37.4726L279.525 41.0239L276.817 38.5431C272.092 34.2148 270.276 35.3252 270.276 42.5433C270.276 53.5469 275.47 60.7961 279.818 55.8607C280.599 54.9743 281.238 53.5978 281.238 52.8021C281.238 50.9963 282.357 50.9101 282.982 52.6678C283.752 54.834 288.718 59.1963 291.27 59.9483C293.321 60.5527 293.85 60.4938 295.044 59.529C296.152 58.6343 296.35 57.9398 296.021 56.1044C295.709 54.3604 295.842 53.8022 296.571 53.8022C297.101 53.8022 297.719 54.2344 297.946 54.7627C298.194 55.3388 298.977 55.6448 299.904 55.5273C301.892 55.2752 302.031 52.999 300.078 52.6719C299.324 52.5456 298.461 52.0601 298.16 51.593C297.478 50.5356 295.168 50.4786 294.725 51.5081C294.498 52.0367 294.08 51.895 293.37 51.0493C292.805 50.3764 290.462 47.7706 288.164 45.2587C282.586 39.1633 282.036 36.3064 285.528 31.5661C288.941 26.9323 288.866 26.9902 288.433 29.3333C286.783 38.25 287.368 43.9127 290.174 46.1798C292.117 47.7498 292.689 46.7554 291.167 44.4545C289.374 41.7451 289.582 35.8571 291.809 26.241C293.899 17.2181 293.907 17.0981 292.371 17.1015C291.572 17.1032 290.301 18.6183 288.567 21.6341C285.243 27.415 283.476 29.0842 279.772 29.9395C278.129 30.319 276.168 30.785 275.414 30.975C274.125 31.2999 274.135 31.232 275.585 29.8286C278.121 27.3742 277.561 25.1913 273.786 22.818C271.612 21.4511 271.516 21.293 273.016 21.5462C273.958 21.7052 275.268 22.0378 275.928 22.2853C277.733 22.9629 277.453 21.0999 275.585 20.0114C272.248 18.0662 264.829 18.4441 258.115 20.9013C254.588 22.192 254.518 22.2675 254.518 24.7631C254.518 27.7792 255.656 28.8942 260.437 30.5614L263.767 31.7229L258.813 31.7516C253.964 31.7796 253.85 31.7447 253.409 30.098C253.161 29.1727 252.66 27.8968 252.294 27.2626C251.377 25.6702 250.368 27.1673 250.864 29.3832C251.066 30.2835 250.891 31.2073 250.476 31.4362C249.289 32.0917 249.594 33.8567 251.093 35.0027C251.846 35.5789 252.467 36.6723 252.472 37.4326C252.477 38.1929 252.667 39.4343 252.895 40.1913C253.176 41.1291 253.009 41.5647 252.371 41.5583C250.306 41.5375 249.525 40.2586 248.286 34.8656C246.757 28.2085 246.095 26.9886 245.616 29.945C245.293 31.9393 245.065 31.6143 242.293 25.2042C239.603 18.9843 238.212 17.2516 237.147 18.7911C236.968 19.0489 237.097 20.6317 237.433 22.3085C238.991 30.0967 238.966 29.6352 237.788 28.7626C236.311 27.6679 236.411 28.2293 238.761 34.2271C239.881 37.0869 240.802 40.6884 240.807 42.2304C240.812 43.7724 241.026 45.2215 241.282 45.4506C241.539 45.6797 242.31 47.8588 242.996 50.2934C244.639 56.126 245.576 58.0842 246.722 58.0842C247.997 58.0842 247.929 57.3964 246.052 51.3052L244.437 46.0642L246.052 44.7798C246.94 44.0734 247.683 43.5434 247.702 43.6021C247.72 43.6608 248.261 46.3019 248.901 49.4714C249.98 54.8161 251.118 56.8301 251.957 54.8797C252.148 54.4346 251.889 52.1519 251.381 49.8071C250.06 43.709 250.096 43.3404 251.949 43.9467C253.308 44.3913 253.656 45.3144 254.886 51.7264C256.113 58.126 256.443 59.0018 257.626 59.0018C258.768 59.0018 258.939 58.6436 258.759 56.6276C258.563 54.4325 258.631 54.3287 259.665 55.2513C261.09 56.5243 262.343 56.5157 263.79 55.2233C265.118 54.0378 264.872 50.7474 262.941 43.8462C261.249 37.8011 258.57 35.7126 256.27 38.6453C255.558 39.5525 255.2 39.7051 255.194 39.1041C255.189 38.6086 254.995 37.5705 254.763 36.7972C254.349 35.4194 254.434 35.3947 258.98 35.5737L263.618 35.7564L266.248 47.6563C268.268 56.7933 268.682 59.6673 268.035 60.0343C267.572 60.2972 265.343 60.5189 263.082 60.527C260.821 60.5339 257.276 60.714 255.203 60.9249L251.435 61.3081L253.428 59.4083C255.113 57.8019 255.249 57.4497 254.309 57.1275C253.681 56.9125 252.317 57.3053 251.179 58.0295C250.069 58.7351 246.281 60.3089 242.762 61.5268C237.72 63.2716 234.577 63.9086 227.94 64.5307C219.208 65.3492 217.314 66 217.66 68.0615C218.057 70.4205 219.791 70.6887 226.241 69.3888C235.146 67.5943 257.719 67.719 266.39 69.6108C275.552 71.6095 275.757 71.5362 275.757 66.2563C275.757 64.5862 276.024 63.665 276.442 63.8956C276.823 64.106 277.127 66.9265 277.127 70.2528C277.127 78.4379 278.108 78.7127 278.35 70.5952L278.545 64.0366L283.688 64.4527ZM270.013 66.9147C268.549 66.4357 265.312 65.7143 262.819 65.3114L258.286 64.579L262.055 64.0632C264.127 63.7795 267.672 63.6258 269.933 63.7215C274.024 63.8947 274.045 63.9053 274.259 65.8837C274.502 68.136 274.067 68.2415 270.013 66.9147ZM289.931 55.6571C287.081 53.4224 285.109 50.4014 284.328 47.0733L283.826 44.9322L286.286 47.3791C289.907 50.9805 293.027 55.442 292.767 56.6469C292.578 57.526 292.105 57.361 289.931 55.6571ZM275.06 52.3752C273.216 48.6745 272.278 40.0279 273.767 40.4564C274.296 40.6088 275.57 42.0911 276.597 43.7505C278.725 47.1871 279.163 52.1517 277.515 54.1441C276.587 55.2657 276.45 55.1675 275.06 52.3752ZM259.761 49.0813C259.086 47.3259 258.646 45.1237 258.784 44.1875C258.996 42.7411 259.217 43.0136 260.25 46.0007C261.895 50.7596 261.46 53.5015 259.761 49.0813ZM243.304 41.7207C242.563 39.4189 241.328 31.1192 241.68 30.805C242.401 30.1616 244.927 37.3637 244.927 40.0614C244.927 42.7768 243.962 43.7635 243.304 41.7207ZM261.797 27.823C258.537 26.7852 257.638 26.0325 258.174 24.7866C258.983 22.9035 268.252 23.7266 272.191 26.0313C273.864 27.0099 273.884 27.0894 272.662 27.8877C271.032 28.9518 265.236 28.9174 261.797 27.823ZM15.2833 71.856C18.9873 69.9652 25.9514 68.0947 32.2628 67.2955C38.0784 66.559 43.05 67.1651 49.1037 69.3483C54.0523 71.1331 55.6956 70.6484 53.0906 68.1724C50.4281 65.642 44.9954 63.6311 39.3811 63.0979L34.2555 62.6111L39.0971 61.5893C45.3142 60.2772 57.0706 58.9823 57.6961 59.5408C57.961 59.7773 58.3805 61.2668 58.6283 62.8508L59.0789 65.7307L59.1705 62.5192C59.2208 60.7529 59.5458 59.3077 59.8927 59.3077C60.6893 59.3077 61.1284 61.356 61.695 67.7158C61.9726 70.8313 62.4063 72.6149 62.8293 72.3814C63.2533 72.1475 63.3328 70.4903 63.0379 68.0316C62.7008 65.2211 62.7802 64.1804 63.3096 64.4725C63.8098 64.7485 64.0578 63.9343 64.0578 62.016V59.1466L66.8515 59.4812C68.3881 59.6652 70.0837 60.3208 70.6196 60.9381C71.4797 61.9289 71.6944 61.9523 72.4504 61.1381C74.1334 59.3255 84.9641 62.1105 88.4961 65.2642C89.7626 66.395 91.1022 67.1528 91.473 66.9481C92.8667 66.1791 92.0615 63.9813 89.5781 61.7762C87.1892 59.6551 82.4896 57.8287 76.2963 56.6147C74.7444 56.3105 74.3197 55.6988 73.2802 52.2699C72.6148 50.075 72.2642 48.106 72.5012 47.8945C72.7381 47.6829 74.4899 48.088 76.3942 48.7946C79.9736 50.1228 81.4928 50.0581 82.141 48.5499C82.7378 47.1613 81.5528 45.0417 75.5651 36.7875C69.1973 28.0094 63.575 18.7596 62.3434 15.0353C61.4604 12.3652 59.7441 11.6387 59.4 13.7894C59.2875 14.4925 59.8543 16.557 60.6595 18.3773C62.1102 21.6566 67.5011 38.8014 67.4641 40.0178C67.4534 40.3656 66.4515 39.0154 65.2374 37.0174C62.9468 33.2476 60.7252 31.5586 61.6731 34.3077C61.9479 35.1045 61.9532 35.5717 61.685 35.346C61.4168 35.1204 60.3106 32.6428 59.2267 29.8405C57.7099 25.9191 56.9346 24.7004 55.8611 24.55C54.7331 24.3918 54.4694 24.6845 54.483 26.0793C54.4923 27.0279 54.7679 28.9051 55.0957 30.2509C55.4235 31.5967 55.876 35.1753 56.1012 38.2033L56.5106 43.7088L50.8288 31.1708C45.4225 19.2409 43.8611 16.9342 42.5115 18.884C42.2719 19.2301 42.8597 22.8283 43.8178 26.88C44.7759 30.9316 45.5444 34.4486 45.5255 34.6956C45.5066 34.9426 44.2698 33.0113 42.7768 30.4038C40.0972 25.724 38.4527 24.5644 37.5324 26.7057C37.286 27.2792 37.6263 30.6085 38.2886 34.1041C38.951 37.5997 39.3618 40.5768 39.2015 40.7199C39.0413 40.863 36.7838 38.0891 34.1849 34.5558C31.1918 30.4864 29.0202 28.1276 28.2608 28.1207C26.6025 28.1068 26.7614 29.5753 28.7447 32.5971C30.5597 35.3624 32.5162 41.839 32.5326 45.1361C32.5393 46.4988 32.8268 47.0869 33.3991 46.909C33.9637 46.7335 34.2272 45.4494 34.1725 43.14L34.0895 39.6373L35.4045 41.3672C38.2635 45.1282 43.302 52.9854 43.9837 54.746C44.701 56.5984 44.6893 56.6106 41.5353 57.2923C39.7923 57.6691 37.7571 58.1923 37.0127 58.455C36.0276 58.8027 36.3539 58.1757 38.2116 56.1515C40.5474 53.6064 41.3882 51.967 40.3579 51.967C40.1346 51.967 38.0536 53.5056 35.7334 55.3862C30.419 59.6937 20.6319 65.5765 14.9586 67.8734C10.5985 69.6386 9.44526 70.7458 10.1818 72.4596C10.7302 73.7356 11.8639 73.6015 15.2833 71.856ZM47.3474 53.5551C45.7475 51.1176 42.8471 42.1275 41.9012 36.674C41.537 34.5746 41.5571 34.5864 42.936 37.2857C43.7094 38.7998 45.9575 43.5345 47.9317 47.8075C51.3813 55.274 51.5436 56.2491 49.337 56.2491C49.2152 56.2491 48.3199 55.0368 47.3474 53.5551ZM54.9409 55.1786C53.5767 53.0296 48.6054 36.1977 49.1827 35.6821C49.3383 35.5432 50.9227 38.9278 52.7037 43.2033C54.4847 47.4788 56.541 52.0255 57.2733 53.3071L58.6047 55.6373H56.9185C55.991 55.6373 55.1011 55.4309 54.9409 55.1786ZM60.9398 53.516C60.3938 52.3492 59.9471 51.1426 59.9471 50.8346C59.9471 50.3465 62.1135 49.5528 63.5119 49.5285C63.9129 49.5216 66.7982 54.6847 66.7982 55.4093C66.7982 55.5348 65.7034 55.6372 64.3654 55.6372C62.2368 55.6372 61.8083 55.372 60.9398 53.516ZM70.4702 54.6544C70.2111 54.0175 69.279 52.0169 68.3987 50.2087C66.7013 46.722 66.3416 45.1975 67.4498 46.187C68.3736 47.0118 71.7205 55.1165 71.2945 55.4969C71.1001 55.6706 70.7292 55.2914 70.4702 54.6544ZM59.304 43.8617L59.3461 40.0385L60.9322 43.0971C62.3576 45.8457 62.4095 46.2332 61.4443 46.9203C59.5823 48.246 59.2609 47.7867 59.304 43.8617ZM73.982 44.3455L70.5465 42.9414L68.9984 37.2736C68.147 34.1563 67.5573 31.5103 67.6881 31.3935C67.8189 31.2767 69.1602 32.8988 70.6689 34.9981C72.1775 37.0974 74.5538 40.3979 75.9495 42.3324C77.3452 44.267 78.2465 45.8273 77.9523 45.7997C77.6581 45.7722 75.8715 45.1178 73.982 44.3455ZM63.464 39.651C61.5524 35.544 61.9808 35.1616 64.0578 39.1209C64.9392 40.8012 65.498 42.3209 65.2997 42.498C65.1013 42.6751 64.2752 41.394 63.464 39.651ZM166.451 66.5735L166.94 60.9931L173.22 61.4238C185.654 62.2767 194.596 64.4072 198.109 67.354C199.795 68.7682 201.08 68.4212 201.08 66.5518C201.08 61.4561 185.049 57.5118 164.228 57.4845C156.018 57.4729 144.31 58.2271 140.276 59.0258C138.027 59.471 138.405 58.5908 141.141 57.0081C142.455 56.248 143.531 55.2494 143.531 54.789C143.531 54.3287 143.978 53.6203 144.525 53.2148C145.348 52.6056 145.698 52.8579 146.546 54.6692C147.613 56.9497 149.436 57.5665 150.156 55.8907C150.745 54.5223 149.119 48.3578 147.57 46.0835C146.043 43.842 145.969 42.4386 147.267 40.3449L148.215 38.8163L148.675 40.6508C150.997 49.91 153.806 56.8608 155.226 56.8608C156.024 56.8608 155.925 55.4382 154.767 50.2848C154.408 48.6842 154.541 48.2967 155.451 48.2967C156.842 48.2967 158.058 50.949 157.53 52.8293C156.963 54.8454 159.947 56.4091 164.472 56.4675C168.059 56.5138 170.25 55.6064 170.25 54.074C170.25 53.5721 171.051 53.2927 172.393 53.3267C173.842 53.3635 174.901 52.9497 175.662 52.0487L176.787 50.7162L178.069 52.718C183.145 60.648 187.317 59.4955 186.323 50.4377C186.061 48.0436 186.114 46.3785 186.444 46.661C186.769 46.939 187.814 49.4164 188.766 52.1665C190.238 56.4181 190.74 57.1976 192.12 57.3738C193.647 57.5687 193.716 57.4424 193.298 55.2327C193.054 53.9413 192.662 51.8523 192.426 50.5907C191.886 47.6957 192.168 47.6965 199.956 50.6115L206.027 52.884L207.684 56.5543C208.595 58.5729 210.095 60.8995 211.016 61.7245C212.435 62.9941 212.984 63.1333 214.593 62.6309C216.148 62.1456 216.534 61.6203 216.708 59.7484C216.898 57.7058 216.521 57.0811 213.211 53.9481C209.955 50.8668 209.266 49.7466 207.586 44.7963C205.83 39.6235 203.982 36.6734 202.497 36.6734C201.157 36.6734 201.235 38.7429 202.751 43.3989C204.16 47.7259 204.22 48.2974 203.233 48.0163C202.614 47.8399 199.836 46.9158 197.06 45.9628L192.013 44.2301L196.135 42.8882C199.968 41.6402 201.572 40.3261 200.736 39.118C200.544 38.841 199.031 38.0285 197.375 37.3123C192.62 35.2571 188.306 30.7068 186.933 26.2992C186.295 24.2491 185.44 22.6699 185.034 22.79C184.121 23.0596 183.631 33.6147 184.531 33.6147C184.878 33.6147 185.342 33.0032 185.56 32.2557C185.933 30.9835 186.121 31.0668 188.512 33.56C189.916 35.0247 192.252 36.9911 193.703 37.9296L196.341 39.636L192.031 40.4967L187.72 41.3575L185.076 36.5686C183.622 33.9346 182.004 31.7796 181.479 31.7796C180.955 31.7796 180.524 32.1237 180.522 32.5442C180.519 32.9648 179.923 32.5042 179.197 31.5208C175.94 27.1089 172.259 28.3944 171.481 34.216C171.259 35.8757 171.125 35.7967 168.137 32.2384C165.379 28.9538 161.455 30.839 162.251 35.0659C162.495 36.3584 161.868 35.5898 160.319 32.6972L158.027 28.4151L163.967 27.1558C172.749 25.2941 176.416 23.2051 176.416 20.0644C176.416 17.8752 174.332 16.6228 169.48 15.8954C167.454 15.5917 164.778 15.0177 163.533 14.6199C160.513 13.6554 149.759 14.1957 144.937 15.5542C139.979 16.9511 136.353 20.0933 136.975 22.455C137.387 24.0227 139.115 25.7579 141.692 27.1917C142.514 27.649 142.892 29.1934 143.188 33.3089L143.584 38.8144L141.516 35.3407C140.378 33.4301 139.112 31.6821 138.703 31.4562C137.111 30.5779 137.201 31.9517 138.987 35.8363C140.011 38.0623 140.712 40.0055 140.545 40.1546C140.378 40.3037 139.877 39.4391 139.431 38.2333C138.288 35.141 134.565 31.7796 132.284 31.7796C130.889 31.7796 130.238 32.2244 129.577 33.6281L128.706 35.4766L127.085 32.3852C125.173 28.7407 123.937 27.6197 122.875 28.5678C122.359 29.0284 122.631 31.0395 123.806 35.4369C125.635 42.2861 125.577 45.0006 123.592 45.5632C122.881 45.7646 121.821 46.357 121.236 46.8797C119.548 48.387 119.346 47.4033 120.882 45.1535C123.022 42.0198 122.82 36.5892 120.408 32.388C118.49 29.0484 115.925 26.9146 115.159 28.0215C114.932 28.3493 115.532 29.451 116.493 30.4699C119.055 33.1891 120.475 37.4017 119.928 40.6596C119.349 44.1083 118.184 44.836 118.173 41.7562C118.168 40.4067 117.125 37.3666 115.694 34.5323C114.336 31.8408 112.567 28.1981 111.763 26.4375C110.398 23.4457 109.17 22.4936 108.3 23.7516C108.096 24.0465 108.551 26.8349 109.312 29.9482C110.073 33.0614 110.589 35.7043 110.458 35.8212C110.327 35.9382 109.667 34.6626 108.992 32.9867C108.317 31.3108 107.488 29.7868 107.15 29.6C105.934 28.9293 106.576 31.8215 108.932 37.6335C111.801 44.7086 111.848 45.2374 109.618 45.2374C108.394 45.2374 107.905 45.568 107.905 46.3954C107.905 47.6032 109.165 48.296 111.362 48.296C112.072 48.296 112.982 48.8466 113.386 49.5195C113.965 50.4861 113.907 50.7429 113.108 50.7429C111.451 50.7429 111.112 51.9605 112.411 53.2426C114.123 54.9308 120.479 56.468 123.793 55.9949C125.884 55.6964 126.929 55.8883 128.437 56.8466C132.327 59.3201 132.991 58.3268 130.905 53.1511C128.286 46.6532 128.244 46.4609 129.446 46.4609C130.093 46.4609 131.401 48.0448 132.706 50.4077C134.446 53.5584 135.239 54.3913 136.639 54.5368C137.603 54.6371 138.353 54.9913 138.305 55.3239C138.256 55.6565 134.249 57.7293 129.398 59.93C122.026 63.2751 119.624 64.0597 114.756 64.7139C106.911 65.7681 104.137 66.9925 104.137 69.4004C104.137 71.9879 106.205 72.0427 113.754 69.6555C117.468 68.4808 122.196 67.5151 125.718 67.2117C132.557 66.6226 146.822 67.4251 153.139 68.7545C158.693 69.9234 159.288 69.9258 159.288 68.7797C159.288 66.6586 149.727 63.6426 142.71 63.5503C140.482 63.5209 140.1 63.3891 141.147 63.0102C142.807 62.4089 155.359 61.1422 159.657 61.1422H162.714L162.843 64.6596L162.973 68.177L163.22 64.6596C163.612 59.0747 164.769 60.559 164.769 66.6476C164.769 69.6757 165.037 72.1531 165.366 72.1531C165.694 72.1531 166.182 69.6427 166.451 66.5735ZM181.358 52.3537C180.497 51.0523 179.377 49.1 178.869 48.0151L177.946 46.0427L180.237 45.9657C182.305 45.8963 182.569 46.0825 182.947 47.8843C183.178 48.9818 183.267 50.9687 183.145 52.2997L182.924 54.7197L181.358 52.3537ZM161.245 52.7813C160.303 52.5578 158.913 49.5202 159.753 49.5202C160.46 49.5202 165.41 52.0206 165.791 52.57C166.219 53.1889 163.496 53.3155 161.245 52.7813ZM118.069 52.1671C116.707 51.8452 115.808 50.1301 117.004 50.1359C117.463 50.1381 118.764 50.6869 119.894 51.3553C121.553 52.3363 121.685 52.5578 120.579 52.5038C119.826 52.467 118.696 52.3156 118.069 52.1671ZM137.166 50.785C133.704 47.1116 130.408 35.7252 132.476 34.584C133.636 33.9442 136.558 36.9008 138.489 40.6679C140.115 43.8385 141.767 44.8373 140.988 42.1789C140.228 39.5822 141.363 41.1307 142.8 44.6511C144.287 48.292 144.291 48.3749 143.029 50.3095C141.307 52.95 139.356 53.1082 137.166 50.785ZM124.176 49.4711C122.566 48.6339 122.657 47.685 124.347 47.685C125.101 47.685 125.718 47.8001 125.718 47.9408C125.718 48.0816 125.905 48.6321 126.134 49.1643C126.608 50.268 125.917 50.3764 124.176 49.4711ZM171.41 49.039C170.801 48.4379 169.781 46.855 169.145 45.5216C167.753 42.6028 165.346 34.7318 165.738 34.381C166.274 33.9025 169.491 39.4465 170.352 42.3324C170.829 43.9305 171.618 45.2381 172.105 45.2381C172.681 45.2381 172.99 46.0923 172.99 47.685C172.99 50.4739 172.923 50.5317 171.41 49.039ZM163.484 47.9993C160.691 46.7375 160.597 46.6178 162.113 46.2555C164.841 45.6036 165.378 45.7793 166.482 47.685C167.709 49.8048 167.522 49.8244 163.484 47.9993ZM127.521 43.6999C127.283 43.1451 127.113 41.9567 127.144 41.059C127.198 39.4709 127.227 39.4828 128.213 41.5005C128.835 42.7745 128.98 43.793 128.59 44.1414C128.2 44.4899 127.788 44.3197 127.521 43.6999ZM152.847 42.9442C152.297 41.3433 150.382 31.18 150.382 29.865C150.382 29.0135 150.884 28.7216 152.351 28.7216C154.009 28.7216 154.389 29.0242 154.749 30.6333C154.985 31.6847 155.177 33.7797 155.177 35.289V38.033L153.83 36.5889C152.102 34.7374 152.096 35.5662 153.807 39.5862C154.561 41.3562 155.177 43.0767 155.177 43.4095C155.177 44.4551 153.232 44.0667 152.847 42.9442ZM158.334 42.4353C158.105 41.9032 157.921 40.045 157.926 38.3062L157.934 35.1447L160.239 38.8151C161.507 40.8337 162.41 42.6918 162.246 42.9442C161.693 43.7941 158.753 43.4117 158.334 42.4353ZM114.063 42.0266C114.059 41.606 113.887 40.1609 113.68 38.8151C113.31 36.4072 113.321 36.3926 114.348 37.8975C115.53 39.6283 115.793 42.7912 114.756 42.7912C114.379 42.7912 114.067 42.4471 114.063 42.0266ZM175.822 40.1077C174.912 36.8837 174.813 34.2271 175.603 34.2271C176.355 34.2271 179.49 37.272 180.443 38.9277C181.502 40.7692 181.41 41.3743 180.013 41.7329C179.353 41.9021 178.315 42.225 177.706 42.4503C176.833 42.7727 176.433 42.2745 175.822 40.1077ZM146.325 31.6273C146.295 29.6928 146.541 28.1099 146.872 28.1099C147.202 28.1099 147.331 29.4175 147.158 31.0156C146.688 35.3499 146.386 35.5717 146.325 31.6273ZM146.474 25.0211C140.128 23.9017 138.905 21.653 143.503 19.5583C146.471 18.2065 148.992 17.8665 146.35 19.1745C143.421 20.6241 145.968 20.8174 154.619 19.8022C163.101 18.8068 169.753 18.8944 172.029 20.0315C173.123 20.5786 173.003 20.7801 170.902 21.921C168.32 23.3233 159.133 25.3637 157.665 24.8609C157.158 24.687 156.548 23.6746 156.309 22.611C155.991 21.1885 155.557 20.7356 154.67 20.8978C153.733 21.0694 153.509 21.6247 153.666 23.3907C153.861 25.6004 153.804 25.6612 151.61 25.596C150.369 25.5592 148.058 25.3004 146.474 25.0211ZM367.678 70.4716C367.742 69.5464 367.716 67.6194 367.621 66.1895C367.464 63.8274 367.595 63.5907 369.046 63.6002C372.276 63.621 380.542 65.9376 385.098 68.0978C387.675 69.3192 390.024 70.3187 390.319 70.3187C391.651 70.3187 390.632 68.4354 388.319 66.6215C383.859 63.1255 375.738 60.3407 366.152 59.0203L363.714 58.6846L362.555 53.285C361.009 46.0867 361.069 45.7626 363.351 48.9748C367.959 55.4626 373.305 58.7415 374.214 55.6373C374.642 54.1774 375.034 54.1097 376.05 55.3201C376.531 55.893 377.15 56.0352 377.732 55.7067C378.49 55.2795 378.4 54.3871 377.227 50.6854C375.975 46.7339 375.923 46.0743 376.803 45.2885C377.354 44.7962 377.956 44.5278 378.14 44.6922C378.324 44.8566 379.084 48.3793 379.828 52.5204C380.572 56.6616 381.341 60.1921 381.536 60.366C381.73 60.5399 382.403 60.5064 383.03 60.2914C383.912 59.9894 384.069 59.4503 383.722 57.9218C383.475 56.8336 383.09 54.4016 382.867 52.5174C382.497 49.4009 382.589 49.0615 383.892 48.7573C385.794 48.3132 386.323 49.0397 387.786 54.108C389.507 60.0684 390.854 62.2053 392.364 61.3722C393.576 60.7035 392.708 56.5728 388.794 44.383C384.461 30.887 384.049 28.7788 385.717 28.6298C386.282 28.5794 387.097 28.5105 387.527 28.4768C388.011 28.4391 389.575 33.9715 391.623 42.9617C395.92 61.8239 395.803 61.4485 397.407 61.4485C398.519 61.4485 398.714 61.0516 398.611 59.0016C398.514 57.0578 392.511 32.5548 391.193 28.7215C390.948 28.0084 392.351 27.4967 397.488 26.4259C401.123 25.668 404.185 25.1263 404.292 25.2222C404.4 25.3181 403.393 26.6263 402.056 28.1295C397.803 32.9111 394.935 39.1207 396.981 39.1207C397.336 39.1207 398.646 37.4092 399.893 35.3173C401.213 33.1015 404.519 29.3534 407.812 26.3379C416.282 18.581 415.658 17.919 402.793 21.0192C393.098 23.3558 381.596 25.2673 379.152 24.9483C377.865 24.7802 377.439 24.1187 376.673 21.0967C375.33 15.7983 374.433 14.8695 369.843 14.0185C362.537 12.6643 348.873 14.5782 345.685 17.4023C344.26 18.6647 344.129 19.0933 344.781 20.3699C345.259 21.3079 346.6 22.177 348.392 22.7102C351.075 23.5087 351.338 23.8037 352.881 27.7428C353.782 30.0443 355.141 34.8533 355.901 38.4296C358.34 49.9067 357.657 49.3355 352.506 35.5895C349.877 28.5719 348.357 25.357 347.669 25.357C346.379 25.357 346.439 27.6957 347.943 35.9973C348.576 39.4943 348.98 42.458 348.84 42.5832C348.547 42.8445 345.633 34.2969 345.636 33.1868C345.637 32.783 345.236 32.2324 344.744 31.9634C344.252 31.6943 343.148 30.4415 342.29 29.1792C340.507 26.5579 337.859 25.6173 336.266 27.0397C335.697 27.5477 335.03 29.4401 334.783 31.245L334.334 34.5266L331.432 28.6422C329.837 25.4057 328.14 21.6909 327.661 20.3871C326.671 17.6879 324.699 17.1049 324.815 19.5457C324.855 20.3868 325.392 22.7061 326.008 24.6998C326.624 26.6935 326.994 28.4439 326.831 28.5898C326.667 28.7357 325.577 28.2464 324.407 27.5027C323.237 26.759 321.11 26.0104 319.681 25.8392C316.011 25.3997 314.123 27.5649 314.123 32.2135C314.123 40.6622 323.888 56.8036 327.679 54.621C328.648 54.0631 328.826 53.1051 328.698 49.1327L328.544 44.3203L330.283 48.2965C331.24 50.4834 332.455 52.6657 332.982 53.146C334.57 54.5928 334.919 52.553 333.721 48.8167L332.672 45.5438L334.53 47.6583C335.553 48.8212 338.311 51.8407 340.66 54.3683C345.328 59.3914 345.314 59.4994 339.898 60.1982C338.06 60.4353 336.058 60.7999 335.45 61.0084C334.842 61.2169 335.498 60.3266 336.908 59.0302C338.318 57.7337 339.472 56.4561 339.472 56.1911C339.472 54.8512 337.932 55.261 335.091 57.3567C329.936 61.1601 323.472 63.6918 316.576 64.6083C310.122 65.4657 307.048 66.7039 307.401 68.3034C307.869 70.4239 309.605 70.5382 316.096 68.8757C325.432 66.4846 331.004 66.6763 342.705 69.7915C344.294 70.2147 345.808 70.3704 346.069 70.1376C346.863 69.4289 344.105 67.1554 340.842 65.8283L337.759 64.5745L342.555 63.8079C347.983 62.9403 362.099 62.5376 363.327 63.2153C363.772 63.461 364.136 65.0206 364.136 66.6843C364.136 68.3466 364.444 69.7067 364.821 69.7067C365.198 69.7067 365.506 68.1765 365.506 66.3062C365.506 63.9437 365.741 63.0354 366.277 63.3308C366.782 63.6096 366.931 65.2013 366.711 67.9548C366.525 70.2641 366.641 72.1536 366.968 72.1536C367.294 72.1536 367.614 71.3968 367.678 70.4716ZM348.625 54.1081C348.551 50.2878 348.686 49.5162 349.244 50.5907C349.637 51.3477 350.57 51.967 351.317 51.967C352.572 51.967 352.649 51.657 352.315 47.9415L351.953 43.916L354.892 50.0072C356.509 53.3573 358.169 56.6619 358.582 57.3507C359.304 58.5558 359.133 58.6105 354.027 58.8024L348.721 59.0017L348.625 54.1081ZM342.692 49.0614C340.4 44.4878 339.432 42.1795 339.808 42.1795C339.974 42.1795 341.2 42.6434 342.532 43.2104L344.953 44.2413V48.41C344.953 50.7028 344.841 52.5788 344.704 52.5788C344.567 52.5788 343.661 50.9959 342.692 49.0614ZM367.585 49.0614C362.366 42.8318 359.777 35.8717 361.328 32.2391C362.922 28.5074 367.234 31.7858 368.973 38.0504C369.417 39.6485 370.169 40.9561 370.646 40.9561C371.122 40.9561 371.627 41.5754 371.768 42.3324C372.177 44.5331 371.61 52.5788 371.046 52.5788C370.763 52.5788 369.206 50.9959 367.585 49.0614ZM323.186 48.0972C318.206 41.1232 315.282 30.6549 317.795 28.7928C320.253 26.9715 327.37 30.9505 328.13 34.5713C328.812 37.8142 328.143 37.8007 326.528 34.5389C324.829 31.1099 323.354 31.3232 324.874 34.778C325.556 36.3284 325.704 37.4994 325.299 38.1459C324.937 38.7232 324.915 41.3441 325.246 44.4224C325.558 47.3293 325.697 50.0096 325.554 50.3786C325.412 50.7476 324.346 49.7209 323.186 48.0972ZM382.634 44.0316C382.634 41.0622 383.689 40.3148 384.263 42.8776C384.854 45.5131 384.823 45.6729 383.662 46.071C382.856 46.347 382.634 45.9062 382.634 44.0316ZM374.112 41.109C372.389 34.6555 369.283 26.8865 368.426 26.8865C367.687 26.8865 367.567 27.3662 367.926 28.8746L368.399 30.8627L366.401 29.1804C363.874 27.0528 361.253 26.9951 359.463 29.0276C357.954 30.7404 357.285 30.9562 357.285 29.7304C357.285 29.2759 356.546 27.6627 355.642 26.1456L354 23.3873L360.609 23.0571C364.733 22.8511 368.556 22.2712 370.774 21.5153C374.557 20.2257 375.098 20.4397 375.098 23.2278C375.098 24.1833 374.718 24.3078 372.7 24.0154C370.583 23.7087 370.302 23.8221 370.302 24.9804C370.302 25.8116 371.118 26.7248 372.528 27.471C376.077 29.3486 376.152 29.4809 377.039 35.4269C377.678 39.7129 377.69 41.2955 377.091 41.94C375.842 43.2845 374.6 42.9383 374.112 41.109ZM341.87 40.5601C338.652 39.0593 338.102 38.0206 338.102 33.4475C338.102 28.301 339.122 28.1884 341.325 33.0916C342.556 35.8332 344.411 41.6396 344.024 41.5433C343.969 41.5294 343 41.0874 341.87 40.5601ZM332.472 40.1914C331.869 39.7709 331.161 38.188 330.9 36.674C330.329 33.3671 331.152 33.8625 333.187 38.0504C334.623 41.006 334.437 41.5625 332.472 40.1914ZM379.309 34.2623C378.311 28.868 378.317 28.7216 379.551 28.7216C380.379 28.7216 380.578 29.6732 380.578 33.6154C380.578 36.307 380.469 38.5092 380.336 38.5092C380.203 38.5092 379.741 36.5981 379.309 34.2623ZM348.113 20.0029C346.902 19.1885 347.009 19.0647 349.826 18.0295C355.176 16.0635 371.913 16.0604 371.686 18.0249C371.443 20.1325 350.874 21.8585 348.113 20.0029ZM88.0366 66.7209C88.0366 65.7739 83.1796 62.8353 80.9448 62.4303C78.2479 61.9415 75.0195 62.2622 75.0195 63.0186C75.0195 63.3327 76.0634 63.5897 77.3392 63.5897C78.615 63.5897 81.3126 64.3916 83.3339 65.3717C87.3769 67.332 88.0366 67.5213 88.0366 66.7209ZM89.0643 52.8846C89.0643 52.0047 88.5353 51.6068 87.1802 51.4676C84.9467 51.238 84.7951 50.7056 86.6664 49.6621C88.3811 48.706 88.4278 47.3032 86.7713 46.5117C85.374 45.8439 83.9259 46.687 83.9259 48.1681C83.9259 48.6356 83.2905 49.4776 82.5138 50.0392C80.5728 51.4425 81.3967 53.1905 83.9992 53.1905C85.0893 53.1905 85.9813 53.4849 85.9813 53.8447C85.9813 54.2046 86.6749 54.411 87.5228 54.3035C88.5345 54.1752 89.0643 53.6876 89.0643 52.8846ZM302.049 51.0263C302.283 50.4812 302.006 49.9325 301.391 49.7216C300.111 49.2833 298.711 50.3707 299.356 51.302C300.028 52.2733 301.581 52.1143 302.049 51.0263ZM303.573 42.4909C308.298 36.236 309.481 33.9257 307.359 35.0967C306.63 35.4991 297.773 47.3684 297.191 48.7243C297.002 49.162 297.167 49.5202 297.556 49.5202C297.945 49.5202 300.653 46.357 303.573 42.4909ZM298.957 43.25C303.444 35.8368 304.13 34.2271 302.802 34.2271C302.246 34.2271 301.791 34.5415 301.791 34.9257C301.791 35.3099 300.579 37.3372 299.098 39.4309C296.506 43.0959 294.255 47.2514 294.255 48.3714C294.255 50.0699 295.939 48.236 298.957 43.25ZM93.1601 37.1489C97.0069 30.1673 97.6185 28.434 96.0866 28.8551C95.1261 29.1191 89.0247 39.7257 88.3339 42.3324C87.3449 46.0643 89.5569 43.6886 93.1601 37.1489ZM87.6781 37.1327C91.8036 29.2082 91.7526 29.3333 90.859 29.3333C89.3144 29.3333 83.2408 40.0848 83.2408 42.819C83.2408 44.6605 84.798 42.665 87.6781 37.1327ZM210.5 27.831C214.578 24.3434 215.736 22.6045 213.981 22.6045C212.687 22.6045 200.266 34.1586 200.773 34.8913C201.25 35.5803 202.496 34.6763 210.5 27.831ZM203.42 29.1804C209.085 23.7266 210.291 21.9927 208.421 21.9927C207.084 21.9927 195.599 32.9532 195.599 34.2289C195.599 35.9164 198.101 34.3013 203.42 29.1804ZM73.5193 29.4863C71.6415 25.9585 69.8408 23.2162 69.4021 23.2162C69.1004 23.2162 68.8535 23.3854 68.8535 23.5922C68.8535 24.4561 72.5486 29.9451 73.1302 29.9451C73.4785 29.9451 73.6536 29.7386 73.5193 29.4863Z" fill="black"/>
</svg>
