<?xml version="1.0" encoding="UTF-8" standalone="no"?>
<svg
   width="421"
   height="85"
   viewBox="0 0 421 85"
   fill="none"
   version="1.1"
   id="svg1"
   sodipodi:docname="bobottomnav4.svg"
   xml:space="preserve"
   inkscape:version="1.4.3 (0d15f75, 2025-12-25)"
   xmlns:inkscape="http://www.inkscape.org/namespaces/inkscape"
   xmlns:sodipodi="http://sodipodi.sourceforge.net/DTD/sodipodi-0.dtd"
   xmlns="http://www.w3.org/2000/svg"
   xmlns:svg="http://www.w3.org/2000/svg"><defs
     id="defs1" /><sodipodi:namedview
     id="namedview1"
     pagecolor="#ffffff"
     bordercolor="#000000"
     borderopacity="0.25"
     inkscape:showpageshadow="2"
     inkscape:pageopacity="0.0"
     inkscape:pagecheckerboard="0"
     inkscape:deskcolor="#d1d1d1"
     inkscape:zoom="2.0997625"
     inkscape:cx="198.11765"
     inkscape:cy="87.390837"
     inkscape:window-width="1920"
     inkscape:window-height="974"
     inkscape:window-x="-11"
     inkscape:window-y="-11"
     inkscape:window-maximized="1"
     inkscape:current-layer="svg1" /><path
     style="fill:#000000;stroke-width:1.07053"
     d="M -0.0344148,43.405941 V 1.0492046 h 9.0153453 9.0153455 l 0.272669,4.4869413 C 18.856028,15.196999 16.719822,31.888668 14.403961,35.735956 12.526196,38.85544 9.6410779,39.058208 4.3886478,36.439845 2.2543012,35.375867 2.0603804,35.385499 1.2556045,36.595429 c -1.47362859,2.215505 -1.05632469,3.630919 1.8727957,6.352193 8.3300558,7.738946 16.0569558,20.481398 20.8474578,34.379595 0.918669,2.665251 1.890446,4.845902 2.159503,4.845902 0.746714,0 1.91958,-2.454047 1.91958,-4.01643 0,-1.878188 -2.965816,-10.189271 -5.594351,-15.677015 C 20.096607,57.544261 11.856652,44.12385 11.190354,44.12385 c -0.949212,0 -0.324275,-1.205587 1.054182,-2.033661 3.021147,-1.814889 6.04275,-9.377699 7.518965,-18.819342 0.447734,-2.86364 0.914721,-4.91599 1.037748,-4.560764 0.123025,0.355217 0.664596,2.907258 1.203489,5.671223 1.963736,10.07189 9.946671,42.884568 10.801385,44.397492 0.486763,0.861617 2.054778,-0.701656 2.372652,-2.365473 0.147434,-0.77171 -0.04816,-3.11424 -0.434651,-5.205616 -0.459517,-2.48652 -0.771333,-7.529369 -0.900989,-14.571171 l -0.198272,-10.768662 4.064568,13.28135 c 3.430294,11.208809 8.085609,29.047008 9.133625,34.998147 l 0.28446,1.615304 H -0.0344148 Z M 50.094281,83.950754 c 0,-0.996562 -0.86252,-5.687126 -1.916711,-10.423484 l -1.91671,-8.611561 1.052422,-1.748365 c 1.23365,-2.04944 1.262052,-2.462091 0.404208,-5.872883 -0.889199,-3.535441 -0.844658,-3.723172 0.754449,-3.179853 1.047778,0.356006 1.98897,1.691225 3.719992,5.277343 1.92315,3.984148 2.448505,4.684122 3.088507,4.115111 0.595042,-0.529051 0.919071,-0.320351 1.418679,0.913704 l 0.647497,1.599368 1.127417,-1.740447 c 1.384613,-2.137487 1.39358,-2.718872 0.100263,-6.501462 l -1.02715,-3.004145 1.459295,-3.602483 c 3.181683,-7.854445 1.627745,-12.323171 -7.630871,-21.944401 -2.704465,-2.81038 -3.209275,-2.872775 -4.140495,-0.511737 -0.685366,1.737706 -0.673372,1.90112 0.260783,3.553036 0.557546,0.985936 0.869342,2.207101 0.724089,2.835938 -0.140306,0.607419 0.324842,3.251735 1.033662,5.876266 l 1.288764,4.771866 -5.214822,-8.352422 c -2.868154,-4.593835 -5.437759,-8.352421 -5.710236,-8.352421 -0.272477,0 -1.030309,0.851342 -1.684071,1.891882 l -1.188661,1.891869 -1.724038,-6.199337 c -1.000449,-3.597441 -1.985608,-6.199347 -2.347259,-6.199347 -1.538259,0 -1.768126,1.962138 -1.647745,14.065061 0.06444,6.478858 0.0084,11.779728 -0.124486,11.779728 -0.659648,0 -6.83788,-28.042946 -8.896794,-40.3824829 L 21.195698,1.0492046 h 92.829402 92.8294 l 0.27309,2.2683919 c 0.15019,1.2476253 0.15859,2.4591005 0.0187,2.6921739 -0.13994,0.2330623 -5.92646,0.5273133 -12.85894,0.6538666 -10.76457,0.196516 -12.71496,0.3961584 -13.36111,1.3676126 -1.30993,1.9693804 -0.95337,3.6723814 0.86394,4.1264914 4.21237,1.052587 12.47444,4.777911 15.64173,7.052778 9.01315,6.473601 17.89694,19.063254 22.40702,31.754126 1.9639,5.526173 2.17864,6.476557 1.51251,6.694145 -1.10444,0.360765 -2.28884,2.270727 -2.28884,3.690945 0,1.314591 1.11179,2.351047 3.82281,3.563785 1.65335,0.739599 1.86737,1.177097 4.23137,8.648974 1.36948,4.328492 2.90617,8.737132 3.41486,9.796982 1.07029,2.229886 2.10688,1.956218 2.84975,-0.752368 0.42707,-1.557136 0.17632,-2.647169 -2.17505,-9.45504 -1.46177,-4.232246 -2.60439,-7.729834 -2.53914,-7.772423 2.50337,-1.633904 6.30159,-5.57058 7.49894,-7.772289 2.01731,-3.70951 4.08785,-11.059438 4.46445,-15.847759 l 0.29399,-3.737993 0.95296,3.022519 c 0.52414,1.662395 0.95296,3.691657 0.95296,4.509478 0,0.817819 0.27663,1.663308 0.61476,1.878842 0.3381,0.215546 1.55287,3.920591 2.69948,8.233449 1.14661,4.312846 2.31435,7.841553 2.59497,7.841553 0.28062,0 0.90782,-0.839713 1.39376,-1.866007 0.83355,-1.760433 0.84543,-2.014294 0.20983,-4.486941 -0.96663,-3.760425 -1.46279,-5.893818 -1.46279,-6.289761 0,-0.500956 3.10147,0.507224 4.03902,1.312942 0.43887,0.377153 1.45836,3.093284 2.26555,6.035855 1.35112,4.925376 1.5382,5.28737 2.35653,4.559806 1.35634,-1.205903 1.909,-3.765208 1.25586,-5.815766 -0.3601,-1.130514 0.0711,-0.690738 1.27783,1.303514 2.37632,3.926862 4.27065,5.015384 6.05719,3.48059 3.15735,-2.712398 3.23696,-7.732338 0.27436,-17.297138 -1.77585,-5.733392 -1.79878,-5.897878 -1.03958,-7.455442 0.42698,-0.875999 1.12174,-1.48327 1.54391,-1.3495 0.50492,0.159972 2.22901,4.969917 5.03812,14.05552 2.34878,7.596783 4.50636,13.812328 4.79463,13.812328 0.75466,0 1.95452,-2.403855 1.95452,-3.915763 0,-0.709506 -1.3809,-5.631926 -3.06867,-10.938718 -1.68778,-5.306792 -2.98896,-9.781133 -2.89153,-9.942978 0.0975,-0.161857 1.18662,-0.09565 2.42046,0.147103 1.7501,0.344341 2.24331,0.71845 2.24331,1.701578 0,0.693118 0.391,3.363274 0.86889,5.933689 1.65651,8.909603 6.41937,17.069523 9.26964,15.88109 0.58572,-0.244216 1.58089,-1.300445 2.21148,-2.347188 1.05807,-1.75634 1.12973,-2.251022 0.92908,-6.412806 -0.20953,-4.345602 -0.18384,-4.492638 0.70621,-4.041605 2.26438,1.147464 7.97457,6.146335 9.35048,8.18567 l 1.51249,2.241818 -1.72856,-0.453865 c -0.95074,-0.249618 -2.57955,-1.237123 -3.61962,-2.194444 -1.04008,-0.957334 -2.12811,-1.740605 -2.41785,-1.740605 -0.72328,0 -1.95721,2.374924 -1.95721,3.767013 0,2.757526 7.05499,6.938418 10.10443,5.988032 1.74619,-0.544209 3.29203,-3.338258 3.29203,-5.950168 0,-1.148672 -0.77514,-3.029647 -2.26874,-5.505441 -1.82014,-3.017026 -3.23812,-4.459353 -7.17097,-7.293982 -6.27584,-4.523361 -10.48531,-10.246344 -6.03513,-8.205048 0.85042,0.390091 2.04606,1.362413 2.65696,2.160721 0.95032,1.241839 1.24072,1.318042 2.01071,0.52763 1.86407,-1.913515 1.5873,-3.759874 -1.5106,-10.077281 -1.59739,-3.257477 -3.09087,-6.038068 -3.31883,-6.179091 -0.49072,-0.303569 -2.51344,2.702303 -2.51344,3.735093 0,0.393644 0.34031,1.353717 0.75625,2.133482 0.57094,1.070349 0.61999,1.496837 0.20012,1.740492 -0.30589,0.177511 -1.11205,1.09981 -1.79147,2.049564 l -1.23533,1.726822 -1.32837,-2.513399 c -1.53395,-2.902363 -2.30065,-3.081905 -4.34017,-1.016323 -1.77053,1.793143 -1.94186,1.754512 -11.7942,-2.659577 -5.75284,-2.577408 -7.39676,-3.073669 -8.10271,-2.446028 -0.48708,0.433064 -0.88561,1.088306 -0.88561,1.456087 0,0.36778 -0.89585,2.34437 -1.99077,4.392432 -1.98694,3.716597 -1.99043,3.732477 -1.8165,8.270445 l 0.17428,4.546688 -1.14609,-3.400575 c -0.63034,-1.870315 -1.84919,-5.500467 -2.70855,-8.067001 -2.45654,-7.336596 -2.24585,-7.032734 -3.50929,-5.060896 -0.60671,0.94689 -1.10312,2.163384 -1.10312,2.703319 0,0.539924 0.87509,3.465159 1.94464,6.500513 1.06958,3.035367 1.94466,5.748215 1.94466,6.028558 0,0.280357 -1.02094,-0.06046 -2.26875,-0.757295 -2.24565,-1.25411 -2.29288,-1.341964 -4.6359,-8.623653 -1.99925,-6.213288 -2.50849,-7.311747 -3.27668,-7.0678 -0.73039,0.231956 -1.14799,-0.467828 -2.12037,-3.553205 C 235.40224,14.371226 227.67086,8.3606918 215.7124,7.0587696 l -4.29864,-0.4679858 -0.497,-2.2833253 c -0.27336,-1.2558365 -0.49699,-2.5026947 -0.49699,-2.7707898 0,-0.2681064 24.33823,-0.4874641 54.08495,-0.4874641 52.36928,0 54.06229,0.041621 53.36977,1.312864 -0.89488,1.6427466 -0.89453,2.1933402 0.002,3.8398543 0.98748,1.8127125 0.67676,2.040135 -1.6574,1.2130989 -2.70714,-0.9591825 -5.14478,0.2006682 -7.04046,3.3499092 -3.80341,6.318524 -2.98236,19.890741 2.25692,37.307426 5.08105,16.890746 11.33266,28.597656 18.42162,34.496729 4.87716,4.058536 8.79459,3.298859 11.31676,-2.19457 1.37555,-2.995979 1.794,-7.585007 1.10571,-12.125954 -0.46744,-3.084023 -0.43719,-3.280169 0.8311,-5.387144 1.12667,-1.871703 1.24584,-2.405017 0.82757,-3.70341 -0.71135,-2.208093 -0.35265,-2.337047 2.13426,-0.767221 2.63164,1.661187 5.94572,5.08168 7.37864,7.615586 1.32607,2.344967 1.93272,2.280179 3.09457,-0.330493 0.52358,-1.176463 1.61814,-2.504284 2.43237,-2.950703 0.93039,-0.510113 1.80576,-1.727679 2.35604,-3.277056 l 0.8756,-2.465384 0.66053,1.647056 c 1.34487,3.353495 2.87769,5.59556 3.82551,5.59556 0.606,0 1.51597,-1.072593 2.40398,-2.833568 l 1.42885,-2.83357 1.29644,2.056884 c 1.2834,2.036233 1.8625,2.424519 3.36975,2.259494 1.13578,-0.124355 2.89634,-3.595537 2.89634,-5.71051 v -1.826235 l 1.40446,2.400393 c 3.35827,5.739652 5.98478,6.559581 8.362,2.610387 1.26997,-2.109784 1.74728,-4.135311 1.50975,-6.406874 -0.19584,-1.872909 0.84462,0.82099 1.87958,4.866453 0.66121,2.584581 1.3748,4.699238 1.58573,4.699238 0.61852,0 2.1121,-2.777726 2.1121,-3.928046 0,-0.581015 -0.47548,-2.842435 -1.05658,-5.025376 -1.14644,-4.306519 -1.11832,-4.357129 1.75351,-3.155794 1.86013,0.778118 2.01764,1.056714 3.65334,6.461195 0.94017,3.106414 1.81374,5.648021 1.94127,5.648021 0.12754,0 0.69879,-0.83695 1.26943,-1.85987 l 1.03757,-1.859872 0.69835,2.757254 0.69836,2.757255 1.2561,-2.321561 1.25611,-2.321575 -0.8628,-3.34385 c -0.47453,-1.839118 -0.80928,-3.421364 -0.74389,-3.516097 0.0654,-0.09474 0.73809,-0.01546 1.49486,0.176137 1.06196,0.268895 1.84281,1.355386 3.42155,4.760811 1.12509,2.426818 2.20489,4.71504 2.39958,5.084918 0.40717,0.773583 2.52614,-2.238028 2.52614,-3.590324 0,-1.256626 -3.26313,-8.437535 -6.81758,-15.002926 l -3.0639,-5.659254 0.94342,-2.008261 c 1.78086,-3.791004 2.30803,-2.870127 6.94249,12.127431 2.34879,7.600878 4.50637,13.819784 4.79464,13.819784 0.75465,0 1.95453,-2.403855 1.95453,-3.915763 0,-0.709506 -1.36127,-5.570139 -3.02502,-10.801416 -1.66375,-5.231267 -3.02501,-9.701357 -3.02501,-9.93354 0,-0.23218 1.23518,-0.230523 2.74486,0.0034 2.53827,0.393767 2.79845,0.298673 3.45714,-1.263619 0.66749,-1.583137 0.71231,-0.121116 0.71231,23.238236 V 85.76234 H 235.7001 50.094281 Z m 56.155069,-2.249725 c 1.92811,-4.072103 2.78848,-15.04414 1.55329,-19.808888 -0.28084,-1.083321 -0.075,-1.256345 1.49478,-1.256345 2.03912,0 6.55043,1.775301 7.84972,3.089033 0.72094,0.728962 0.977,0.602106 1.68618,-0.83536 0.98515,-1.996902 1.03014,-3.395622 0.18792,-5.84323 -0.93973,-2.730941 -0.79628,-3.376978 0.67044,-3.019361 0.9095,0.22176 1.81456,1.328542 2.91696,3.567079 0.87909,1.785055 1.99031,4.032649 2.46939,4.994651 l 0.87106,1.749087 1.10054,-1.438142 c 0.75045,-0.980658 1.29816,-1.230389 1.72179,-0.785076 2.04334,2.147918 5.67067,-0.869174 6.38069,-5.307232 l 0.36375,-2.273694 1.37411,4.486942 c 0.75576,2.46782 1.55821,4.486952 1.78321,4.486952 0.5835,0 2.17132,-2.968334 2.17132,-4.059166 0,-0.504237 -0.71344,-3.073039 -1.58542,-5.708456 -1.51608,-4.58207 -1.55026,-4.834362 -0.78168,-5.767999 0.44203,-0.536979 0.91241,-0.972852 1.04524,-0.968588 0.13283,0.0044 0.99128,2.380417 1.90766,5.280353 1.74017,5.506805 5.14941,13.553911 5.92687,13.989694 0.24841,0.139232 0.8255,-0.308926 1.28245,-0.995895 0.54674,-0.821994 1.65154,-1.296657 3.23136,-1.388288 2.88666,-0.167452 4.35883,-1.719526 5.67155,-5.979337 l 0.92479,-3.000941 1.15293,2.511163 c 1.44724,3.152152 4.17696,5.556617 5.62354,4.953461 1.75265,-0.730778 3.25793,-3.761621 3.25793,-6.559819 V 53.34098 l 2.17894,3.960688 c 2.39862,4.35996 4.39645,5.939328 6.12887,4.845112 1.54119,-0.97344 2.92694,-4.191518 2.93365,-6.812654 0.005,-2.013799 0.18009,-1.713998 1.75775,3.01213 0.96362,2.886684 1.97016,5.127735 2.23675,4.980114 0.26658,-0.147635 0.85361,-1.089255 1.30448,-2.092506 0.81902,-1.822412 0.81833,-1.828864 -0.75332,-7.013515 -1.24482,-4.106481 -1.467,-5.401807 -1.06468,-6.207141 0.90447,-1.810501 1.48825,-1.10201 2.85859,3.469232 1.78395,5.951025 5.62106,14.896641 6.38971,14.896641 0.64174,0 1.9579,-2.650542 1.9579,-3.942888 0,-0.413485 -0.85148,-2.642951 -1.89219,-4.954397 -1.04069,-2.311444 -2.73339,-6.920866 -3.76153,-10.243165 -1.02814,-3.322307 -1.95669,-6.185619 -2.06341,-6.362928 -0.10674,-0.177309 -0.85508,0.35631 -1.66299,1.185814 -0.80792,0.829517 -1.53614,1.390591 -1.61824,1.246836 -0.0822,-0.143753 0.11048,-3.976557 0.42798,-8.517345 0.31748,-4.540788 0.42602,-8.511166 0.24119,-8.82307 -0.18482,-0.311892 -0.77402,0.0221 -1.30931,0.742149 -0.76946,1.035092 -1.05143,2.431579 -1.34663,6.669329 -0.20536,2.948054 -0.38193,6.106047 -0.39236,7.017767 -0.0315,2.75262 -0.7098,1.194004 -2.44784,-5.624819 -1.77043,-6.945828 -2.25072,-7.488189 -3.72447,-4.205674 -0.80126,1.784639 -0.80731,1.993012 -0.12197,4.194698 1.06374,3.417313 0.60225,3.286712 -1.22608,-0.346971 -1.82885,-3.634696 -2.97862,-4.048203 -4.76507,-1.713749 -1.54252,2.015694 -2.42644,5.040435 -2.42644,8.303144 v 2.694553 l -1.40446,-3.649416 c -1.91473,-4.975296 -4.0461,-8.847499 -4.86989,-8.847499 -1.36938,0 -3.04951,2.082319 -4.03827,5.004972 -0.82205,2.429831 -0.95831,3.589388 -0.72523,6.17151 l 0.28702,3.179526 -1.13489,-0.716804 c -0.62417,-0.394241 -1.59615,-0.716804 -2.15992,-0.716804 -0.92112,0 -1.00127,-0.243517 -0.79048,-2.401565 0.43654,-4.46885 -1.23122,-7.755607 -6.3825,-12.57843 l -2.42037,-2.266047 -1.14755,1.499592 c -2.03166,2.654884 -2.08114,3.569277 -0.42601,7.872367 1.58185,4.112552 6.20028,18.937729 6.19536,19.887133 -0.005,0.991734 -1.73837,-3.647613 -3.48227,-9.320887 -1.78598,-5.810206 -2.42254,-6.511511 -4.05195,-4.464113 -0.46137,0.579718 -0.95422,1.054041 -1.09523,1.054041 -0.141,0 -0.007,-3.634426 0.29718,-8.076499 0.65763,-9.594836 0.52932,-10.753547 -0.93722,-8.464706 -1.0303,1.607972 -1.2237,2.821513 -1.76253,11.059111 -0.15143,2.315337 -0.42109,3.93063 -0.59921,3.589547 -0.17812,-0.341082 -1.07684,-3.44692 -1.99713,-6.901862 -0.9203,-3.454951 -1.91048,-6.281718 -2.2004,-6.281718 -0.28991,0 -0.93384,0.858977 -1.43094,1.908844 l -0.90382,1.908846 -0.94189,-3.703625 c -0.51804,-2.036988 -1.18088,-3.703623 -1.47298,-3.703623 -0.69309,0 -2.38026,3.571093 -2.07493,4.391845 0.12964,0.348448 -0.14979,0.633531 -0.62093,0.633531 -1.2688,0 -3.43546,3.350473 -3.87436,5.991212 -0.2111,1.27015 -0.28501,3.427983 -0.16421,4.79518 0.21599,2.444843 0.14662,2.370514 -4.20876,-4.509241 -2.43561,-3.847286 -4.63984,-6.995061 -4.89828,-6.995061 -0.68512,0 -2.47023,2.957968 -2.47023,4.093219 0,0.534216 1.45828,5.862551 3.24065,11.840748 1.78236,5.978197 3.19223,10.947459 3.13304,11.042825 -0.0592,0.09531 -0.99563,0.0055 -2.081,-0.198876 l -1.97338,-0.372258 -4.19885,-13.972707 c -2.40473,-8.002315 -4.41238,-13.854477 -4.69855,-13.695996 -0.27485,0.152191 -0.88022,1.12342 -1.34532,2.158286 l -0.845607,1.881572 3.558577,11.587711 c 3.27448,10.66258 3.49854,11.660665 2.8064,12.50145 -0.61731,0.749886 -0.99229,0.710769 -2.09106,-0.21814 -0.74324,-0.62834 -2.79874,-1.249971 -4.620491,-1.397345 l -3.281633,-0.265467 1.088372,-4.416007 c 1.501624,-6.092703 1.80022,-15.37515 0.665036,-20.673798 C 96.042582,20.787056 90.251523,13.452841 83.067072,10.296889 79.315872,8.6490785 69.250185,7.6746915 65.029335,8.5507916 c -3.861483,0.801499 -5.547809,4.6923244 -2.726987,6.2919284 2.497511,1.41626 9.333615,7.582628 12.728676,11.481664 4.325375,4.967424 8.662173,12.02434 10.84031,17.639527 1.768236,4.558474 3.548045,12.049312 3.548045,14.932972 0,3.380137 -5.174029,9.05003 -12.10003,13.25966 -2.99005,1.81736 -5.368064,4.927598 -4.663033,6.09884 0.136808,0.227287 1.387807,-0.11427 2.779996,-0.759001 1.562825,-0.723751 5.011253,-1.315853 9.013412,-1.547629 7.881701,-0.456435 11.470297,0.581782 16.205396,4.688354 1.7826,1.545983 3.56729,2.847094 3.96597,2.891354 0.39868,0.04422 1.1314,-0.778083 1.62826,-1.827432 z m -4.3494,-6.91808 c -2.793036,-2.175317 -2.907802,-2.374779 -4.861633,-8.449322 -1.100586,-3.421769 -2.001065,-6.426658 -2.001065,-6.677529 0,-1.012263 4.641202,-0.345086 6.266088,0.900757 2.31795,1.77725 3.51354,4.086574 4.14373,8.003804 0.50622,3.1466 0.25883,8.662689 -0.38206,8.518642 -0.16748,-0.03767 -1.59177,-1.071004 -3.16506,-2.296352 z M 86.516958,68.569862 c 0.764454,-0.96675 2.119186,-3.039673 3.010514,-4.6065 0.891329,-1.566827 1.683641,-2.714203 1.760696,-2.54973 0.340872,0.727576 2.884798,8.569581 2.884798,8.892797 0,0.197747 -2.035338,0.283401 -4.522966,0.190348 L 85.127038,70.327589 Z M 152.16321,57.992721 c -0.6087,-0.404889 -2.81944,-8.126307 -2.4855,-8.681074 0.46704,-0.775874 3.19872,0.701837 4.03322,2.181779 0.85939,1.524123 1.82647,4.869057 1.82647,6.317462 0,0.702063 -2.39782,0.831278 -3.37419,0.181833 z m -21.90622,-1.552524 c -2.04164,-2.07651 -4.50465,-7.046845 -5.87373,-11.853065 -1.25883,-4.419289 -1.98629,-8.823293 -1.57131,-9.512701 0.37167,-0.617445 3.07276,1.577361 3.94682,3.207046 1.06634,1.988194 1.73237,1.937472 2.74888,-0.209364 l 0.82589,-1.744283 1.31956,4.933721 c 1.28913,4.820017 1.30071,4.962045 0.50189,6.163008 -0.96524,1.451191 -1.02414,3.54823 -0.16943,6.032134 0.76947,2.236178 0.82147,4.308323 0.10804,4.304782 -0.2971,-0.0012 -1.12358,-0.596048 -1.83661,-1.321278 z m 32.42457,-3.162989 c -2.3916,-4.105006 -4.09979,-9.3687 -4.45315,-13.722017 -0.21403,-2.637063 -0.18042,-2.73411 0.68173,-1.967586 1.7089,1.519363 5.8283,12.365162 6.77717,17.843341 0.46715,2.697024 -0.6432,1.901412 -3.00575,-2.153738 z m 11.58094,1.293012 c -2.68557,-3.818863 -6.59021,-17.625473 -4.98463,-17.625473 1.43762,0 6.47145,12.584914 7.25069,18.127239 0.36656,2.607129 -0.16207,2.490074 -2.26606,-0.501766 z M 90.98277,46.872645 c -1.263973,-4.473227 -3.23524,-12.009846 -4.380593,-16.748054 -1.145353,-4.738219 -2.241482,-8.917565 -2.435841,-9.287444 -0.59371,-1.12987 -2.613327,2.58006 -2.402402,4.413086 0.211772,1.840392 -0.008,1.694394 -2.507425,-1.66517 -0.954835,-1.28346 -3.58011,-4.160477 -5.833944,-6.393361 l -4.097878,-4.059798 4.105366,0.395853 c 13.404739,1.292539 22.471487,12.314261 22.471487,27.316803 0,3.988933 -1.426026,12.934662 -2.186328,13.715294 -0.243371,0.249868 -1.444641,-3.129672 -2.732442,-7.687209 z m 25.24473,0.170046 c -0.68864,-2.137644 -0.53418,-2.554037 0.41695,-1.124062 0.92597,1.392123 1.12547,2.512688 0.44734,2.512688 -0.22931,0 -0.61824,-0.624891 -0.86429,-1.388626 z m 31.07688,-4.928511 c -1.5132,-4.919137 -1.49715,-5.085066 0.20596,-2.128857 1.50259,2.608167 1.91515,4.391554 1.18851,5.137616 -0.19601,0.201242 -0.82353,-1.152688 -1.39447,-3.008759 z m 186.59346,36.877453 c -4.54432,-2.693742 -11.3416,-12.610509 -15.28899,-22.305629 -5.89252,-14.47251 -10.09103,-33.626382 -8.9918,-41.021055 0.39354,-2.647405 0.49746,-2.780353 2.34363,-2.998707 3.71355,-0.439213 7.96243,2.891735 13.24133,10.3806 l 2.20882,3.133551 1.14029,-1.490082 c 0.62715,-0.819546 1.14028,-1.91276 1.14028,-2.42937 0,-0.834592 -4.14833,-10.150391 -8.13901,-18.277545 l -1.44078,-2.9341914 h 50.59716 50.59715 V 17.832438 34.615683 l -2.82,-0.982011 c -1.55099,-0.540115 -5.72067,-2.298936 -9.26591,-3.9085 -6.81709,-3.09501 -7.84252,-3.091705 -8.43839,0.02718 -0.25323,1.325451 -0.343,1.346827 -1.29672,0.308689 -1.18883,-1.294049 -2.47421,-0.529073 -3.27197,1.947228 -0.46153,1.432661 -0.52264,1.388988 -1.5414,-1.101683 -0.89969,-2.199567 -1.18844,-2.480024 -1.90102,-1.846493 -1.61298,1.434104 -1.46901,3.73578 0.6388,10.212043 l 1.98673,6.104231 -2.28097,-1.054694 -2.28096,-1.054707 -2.30097,-7.154492 c -1.26555,-3.934959 -2.60719,-7.34969 -2.98145,-7.588279 -0.4111,-0.262061 -0.98065,0.182024 -1.4387,1.121738 -0.41701,0.85555 -0.85681,1.555536 -0.97731,1.555536 -0.12049,0 -0.5533,-1.453764 -0.96175,-3.230598 -0.40847,-1.776821 -0.99383,-3.230596 -1.30081,-3.230596 -0.71316,0 -2.41388,3.553475 -2.10198,4.391845 0.12962,0.348438 -0.18418,0.633531 -0.69733,0.633531 -1.18257,0 -3.87158,4.408336 -3.87158,6.347037 0,4.250969 -1.31962,0.986028 -2.78295,-6.885472 -0.38242,-2.056986 -0.72044,-2.031303 -1.95306,0.148412 -1.34193,2.372994 -1.10718,3.97173 2.39463,16.308831 1.56724,5.521457 2.75483,10.196332 2.6391,10.388609 -0.35289,0.586224 -2.23288,-4.039981 -4.67399,-11.501438 -1.2758,-3.899666 -2.57051,-7.250208 -2.87708,-7.445653 -0.30659,-0.195446 -0.9547,0.241905 -1.44025,0.971894 -1.03447,1.555277 -0.95956,2.783174 0.60854,9.974505 0.60269,2.763954 1.22093,6.317611 1.37386,7.897024 l 0.27807,2.871638 -1.31666,-2.477046 c -1.522,-2.863347 -3.54757,-10.530784 -5.22497,-19.778187 -0.67773,-3.736254 -1.40419,-6.461195 -1.72255,-6.461195 -0.30278,0 -0.92855,0.841113 -1.39055,1.869143 -0.83373,1.8551 -0.83314,1.907651 0.0781,6.991045 l 0.91819,5.121892 -0.9467,2.127222 -0.94669,2.127222 1.14601,4.389885 c 0.63031,2.414435 1.14601,4.691648 1.14601,5.060477 0,2.063888 -4.41399,-1.532708 -5.55491,-4.526239 l -0.8533,-2.238908 1.25946,-1.954491 c 1.56816,-2.433577 1.58386,-3.362801 0.073,-4.317112 -1.7913,-1.131403 -3.92186,-4.063091 -4.64793,-6.395629 -1.61311,-5.182235 0.12377,-5.255707 2.84478,-0.120324 1.84681,3.485506 2.45028,3.557749 3.68514,0.44115 0.47351,-1.195086 0.35432,-2.128733 -0.8274,-6.481012 -2.02631,-7.462855 -2.26487,-7.989311 -3.19415,-7.049234 -0.42863,0.433605 -1.00077,1.513655 -1.2714,2.40011 -0.27065,0.886465 -1.08768,2.213462 -1.81564,2.94891 -1.70249,1.719998 -2.66195,4.847177 -2.66195,8.6761 0,2.689885 0.2382,3.42071 2.07211,6.357269 1.9131,3.063371 2.05926,3.542004 1.90454,6.237088 l -0.16757,2.9191 -2.36918,-1.523175 c -2.34584,-1.508175 -2.36681,-1.548183 -2.13015,-4.06316 0.44236,-4.700727 -0.41306,-7.472002 -4.59335,-14.8811 -2.16846,-3.843328 -4.17664,-7.084753 -4.46262,-7.203151 -0.28599,-0.118409 -1.2455,1.426637 -2.13223,3.43343 l -1.61227,3.648719 1.77571,6.147824 c 0.97664,3.38131 1.7757,6.278336 1.7757,6.437835 0,0.15951 -0.27758,0.290012 -0.61685,0.290012 -0.33928,0 -1.01727,0.845678 -1.50668,1.879269 l -0.88981,1.879272 1.11115,2.966631 c 3.44739,9.204068 5.90166,21.237669 5.00111,24.521141 -0.41048,1.496671 -0.77925,1.772605 -2.3334,1.746076 -1.01525,-0.01737 -2.57825,-0.465638 -3.47339,-0.996245 z M 222.00901,44.303325 c -5.08492,-16.576959 -9.2612,-31.567039 -8.9423,-32.096846 0.31935,-0.530528 6.71986,1.046438 10.16691,2.50495 6.82666,2.888466 10.89625,7.690987 13.1423,15.509238 2.80008,9.7468 1.99918,20.150186 -2.00164,26.000669 -1.77759,2.599368 -4.47289,4.41446 -6.55526,4.41446 -0.60846,0 -2.0001,-3.912051 -5.81001,-16.332471 z m 162.3486,12.136872 c -2.04162,-2.07651 -4.50464,-7.046845 -5.8737,-11.853065 -1.25885,-4.419289 -1.98631,-8.823293 -1.57133,-9.512701 0.37166,-0.617445 3.07277,1.577361 3.94683,3.207046 1.0792,2.012174 1.73282,1.936479 2.80343,-0.324614 l 0.88048,-1.859522 1.39837,4.710957 1.39837,4.710968 -0.95104,1.681773 c -1.09385,1.934302 -1.17969,3.707425 -0.30283,6.255654 0.76947,2.236178 0.82149,4.308323 0.10804,4.304782 -0.29711,-0.0012 -1.12357,-0.596048 -1.83662,-1.321278 z M 262.91548,54.083116 c -1.06426,-1.629707 -2.52351,-4.949003 -3.24278,-7.376195 -1.42058,-4.793792 -2.12207,-9.762174 -1.37831,-9.762174 0.89425,0 4.03353,6.80847 5.71953,12.404538 2.55905,8.493783 2.2439,9.851979 -1.09844,4.733831 z m 22.06281,-0.805908 c -2.3916,-4.105006 -4.09979,-9.3687 -4.45314,-13.722017 -0.21405,-2.637063 -0.18043,-2.73411 0.68173,-1.967586 1.70889,1.519363 5.8283,12.365162 6.77717,17.843341 0.46715,2.697024 -0.64321,1.901412 -3.00576,-2.153738 z m 55.52558,-6.477426 c -2.471,-8.925946 -2.49024,-9.048416 -1.09753,-6.983397 1.89021,2.802686 3.68153,7.915498 3.68153,10.507886 0,4.190568 -0.72014,3.20833 -2.584,-3.524489 z M 56.251634,50.414424 c -0.720495,-1.485716 -3.63466,-11.438679 -3.442597,-11.757756 0.294938,-0.489968 3.477425,3.998101 4.294495,6.056271 0.914873,2.30453 0.987958,4.676974 0.178461,5.79305 -0.444281,0.61255 -0.699917,0.589834 -1.030359,-0.09159 z M 404.00684,47.672025 c -0.65371,-2.029172 -0.30541,-2.451533 0.62031,-0.752211 0.45978,0.844 0.57755,1.54164 0.30714,1.819289 -0.24125,0.247682 -0.65861,-0.232497 -0.92745,-1.067078 z M 44.923759,47.042691 c -0.688645,-2.137644 -0.534196,-2.554037 0.416939,-1.124062 0.925966,1.392123 1.125465,2.512688 0.447348,2.512688 -0.229316,0 -0.618246,-0.624891 -0.864287,-1.388626 z M 210.19987,24.281982 c -3.26305,-4.061547 -6.42679,-7.080096 -10.57268,-10.087488 l -3.25218,-2.3591 6.29388,-0.009 6.29386,-0.009 2.02597,7.655943 c 1.11426,4.21077 1.97518,7.740301 1.91311,7.843402 -0.062,0.103097 -1.27794,-1.262749 -2.70196,-3.035229 z"
     id="path2"
     sodipodi:nodetypes="ccccsssssssssssssssssscsscccsscsssssscsscsssssscssscssssscccssssssssssssssssscsssssssssssssssssssssssssssssscssssssssssssssssscssssssscssssssssssscsssscssssssssssssscssscssscssssssssssscccccssssssscsssssscsscccsssssssssscssscssssscssssscssscsscsssssssssssssssssssssssscsssscsssscsscssscsssssscsssssssssscccssscsssscssssssssssssssssssssssssssscssssssssssscssscsssssssssssssssscssssssssssssssssscssscccccsssssssscccsssssssssssssssssscssssscccssscsssssssssssscssssscsssscssssssssssssssssscccsscssssssssssssssssssssssssssssscscccsscc" /></svg>
