<?xml version="1.0" encoding="UTF-8" standalone="no"?>
<svg
   width="421"
   height="85"
   viewBox="0 0 421 85"
   fill="none"
   version="1.1"
   id="svg1"
   sodipodi:docname="bobottomnav3.svg"
   xml:space="preserve"
   inkscape:version="1.4.3 (0d15f75, 2025-12-25)"
   xmlns:inkscape="http://www.inkscape.org/namespaces/inkscape"
   xmlns:sodipodi="http://sodipodi.sourceforge.net/DTD/sodipodi-0.dtd"
   xmlns="http://www.w3.org/2000/svg"
   xmlns:svg="http://www.w3.org/2000/svg"><defs
     id="defs1" /><sodipodi:namedview
     id="namedview1"
     pagecolor="#ffffff"
     bordercolor="#000000"
     borderopacity="0.25"
     inkscape:showpageshadow="2"
     inkscape:pageopacity="0.0"
     inkscape:pagecheckerboard="0"
     inkscape:deskcolor="#d1d1d1"
     inkscape:zoom="1.4847563"
     inkscape:cx="144.46815"
     inkscape:cy="42.094451"
     inkscape:window-width="1920"
     inkscape:window-height="974"
     inkscape:window-x="-11"
     inkscape:window-y="-11"
     inkscape:window-maximized="1"
     inkscape:current-layer="svg1" /><path
     style="fill:#000000"
     d="M 1.0820954,42.997974 V 0.26123747 H 227.85214 420.27312 V 42.997974 84.387679 H 227.85214 1.0820954 Z m 19.3838976,23.79548 1.098427,-2.94439 -1.116807,-4.32698 c -0.614244,-2.37984 -1.182872,-4.58492 -1.263617,-4.90019 -0.227571,-0.88855 4.414885,-4.58711 5.757775,-4.58711 0.93115,0 1.620156,1.23635 3.106722,5.57468 2.360122,6.88769 3.484726,8.49894 5.932006,8.49894 1.949106,0 6.275729,-4.61414 5.072163,-5.40923 -0.402389,-0.26582 -0.275354,-1.21995 0.420161,-3.15571 0.614001,-1.7089 1.091069,-4.832 1.241998,-8.13069 0.229355,-5.01276 0.380138,-5.56151 2.352804,-8.56272 2.256357,-3.43282 4.553259,-9.43747 5.021227,-13.12668 0.414907,-3.27091 -0.416809,-5.64741 -2.666749,-7.61983 -1.646938,-1.4438 -3.373845,-1.76056 -10.408067,-1.90911 l -8.43351,-0.17811 -1.173091,3.42133 c -0.6452,1.88173 -1.043754,3.83607 -0.885677,4.34297 0.158077,0.5069 2.298727,0.92163 4.757,0.92163 h 4.469587 v 3.6932 c 0,2.03126 0.532326,8.04773 1.182947,13.36994 1.938498,15.85731 1.516479,18.76758 -1.867594,12.87909 -2.380584,-4.14237 -5.444923,-13.70603 -8.465362,-26.42002 -2.061261,-8.67651 -2.780072,-10.89739 -3.379505,-10.44152 -1.155363,0.87865 -2.050079,5.15191 -1.645179,7.85756 0.60033,4.01157 0.479462,5.48157 -0.501448,6.09857 -0.834965,0.52519 -0.946848,1.41959 -0.946848,7.56915 0,3.83548 -0.18004,6.97359 -0.40009,6.97359 -0.498548,0 -2.13542,-10.66372 -3.2072,-20.89392 -0.905069,-8.63894 -1.251236,-9.93382 -2.226725,-8.32937 -0.481698,0.79228 -0.728624,4.29319 -0.890623,12.62729 -0.123279,6.34209 -0.434817,12.27714 -0.692306,13.18899 -0.460182,1.62966 -0.9143045,0.63883 -6.0814765,-13.26886 -0.052444,-0.14116 -0.4183954,-0.011 -0.8132259,0.28929 -1.3598543,1.03417 -1.654231,4.22702 -0.9430739,10.22873 0.4618487,3.8977 0.5783787,8.04094 0.3701272,13.15993 l -0.3039446,7.4712 1.216457,-2.26483 c 0.6690512,-1.24565 1.4890682,-4.11768 1.8222597,-6.38228 l 0.6058029,-4.11746 1.1892689,3.6023 c 0.6540979,1.98125 1.3274487,4.34115 1.4963357,5.24421 0.7800015,4.17076 2.1925185,-0.21786 3.1708085,-9.85154 0.301315,-2.96719 0.705874,-5.39489 0.89902,-5.39489 0.193147,0 0.847224,3.4022 1.453506,7.56043 0.826216,5.66668 0.966917,7.8288 0.561721,8.63183 -0.807858,1.60103 -0.652647,2.98662 0.180968,1.61551 0.908843,-1.49483 0.813675,-1.78238 2.567995,7.75932 0.608796,3.31122 1.01735,3.2483 2.365032,-0.36424 z m 1.812842,-25.90653 c 0.270052,-5.39983 0.325151,-5.4702 1.415494,-1.8078 0.991436,3.33017 0.994869,3.45168 0.123634,4.37575 -1.467986,1.557 -1.724055,1.12977 -1.539128,-2.56795 z m 17.17549,-10.32066 c -0.27117,-1.93512 -0.494224,-4.89058 -0.495677,-6.56769 -0.0021,-2.42553 0.191044,-3.04928 0.944208,-3.04928 1.168461,0 2.841162,3.17885 2.838774,5.39489 -0.0022,2.05241 -1.718917,7.74049 -2.336139,7.74049 -0.251971,0 -0.679996,-1.58328 -0.951166,-3.51841 z m 284.423625,33.26 1.15066,-2.62775 1.03343,1.92407 c 2.01909,3.75919 3.68955,2.28885 6.34159,-5.58188 1.86452,-5.53352 1.92119,-5.61248 2.61641,-3.6454 1.07086,3.02996 5.05683,8.33662 6.26184,8.33662 0.7026,0 1.40794,-1.11054 2.08569,-3.28385 1.19483,-3.83141 1.44119,-3.95342 2.6477,-1.3113 1.39824,3.06199 3.41957,4.75112 5.35423,4.47429 1.21449,-0.17378 2.22232,0.39152 3.2279,1.81057 1.69599,2.39336 3.29846,2.60289 5.56334,0.72744 2.18103,-1.80602 5.72667,-8.42824 7.22435,-13.49295 l 1.22627,-4.14693 1.06771,5.84388 c 1.41195,7.72798 1.89845,8.6089 3.1189,5.64756 0.71061,-1.72425 0.88519,-3.11638 0.67653,-5.39489 -0.95002,-10.37418 -1.05149,-9.32183 0.96888,-10.04815 1.00493,-0.36127 2.27677,-0.87012 2.82629,-1.13078 0.8651,-0.41033 1.04243,0.0625 1.32178,3.52477 0.17746,2.19927 0.78023,5.61221 1.3395,7.58431 0.78608,2.77183 0.88902,3.839 0.45356,4.70199 -1.00647,1.99465 -0.59482,2.70174 0.63965,1.09873 0.97245,-1.26276 1.4303,-1.35679 2.3894,-0.49075 1.7906,1.61687 2.7289,1.38634 2.32239,-0.57059 -0.87761,-4.2248 -0.79824,-4.64973 1.15838,-6.20127 3.33238,-2.64247 4.03288,-2.18386 6.16399,4.03546 1.05061,3.06608 2.3842,6.23265 2.96352,7.03681 2.43342,3.37789 7.17589,0.55966 8.6656,-5.14955 0.89829,-3.4426 0.89272,-12.98297 -0.0115,-19.65908 -0.95821,-7.07497 -0.94029,-7.21153 1.04318,-7.94897 1.99505,-0.74174 4.55815,-3.25506 6.29489,-6.17262 l 1.18356,-1.98828 -1.18356,0.58256 c -5.29289,2.6052 -12.17548,1.11274 -19.58603,-4.24713 -3.42276,-2.47559 -3.90626,-2.62113 -4.38621,-1.32032 -0.29667,0.80408 -0.72313,1.39616 -0.94768,1.31572 -1.67861,-0.60132 -3.09511,3.67635 -2.51065,7.5819 0.60033,4.01157 0.47947,5.48157 -0.50144,6.09857 -0.82916,0.52154 -0.94864,1.43324 -0.96125,7.33459 -0.0112,5.22835 -0.12746,6.35362 -0.51879,5.01976 -0.27762,-0.94632 -0.36705,-3.17013 -0.19891,-4.9464 0.22411,-2.36752 0.0951,-3.64417 -0.48452,-4.79278 -0.64466,-1.27761 -0.74234,-2.7842 -0.53092,-8.18898 0.1425,-3.64283 0.40579,-7.5733 0.5851,-8.73438 0.26847,-1.7384 0.14499,-2.11104 -0.69955,-2.11104 -1.67482,0 -3.68645,2.57779 -4.0109,5.13977 -0.16651,1.3148 -0.16219,5.73083 0.01,9.81339 l 0.31236,7.42285 -1.84042,0.91011 c -4.02348,1.98967 -3.8541,2.03032 -4.15973,-0.99822 -0.15649,-1.55066 -0.28453,-4.50469 -0.28453,-6.5645 0,-3.35963 -0.10382,-3.69131 -1.0086,-3.2224 -0.75958,0.39366 -2.12341,-1.23615 -5.52373,-6.60099 l -4.51512,-7.12371 -0.8675,2.12316 c -1.0506,2.5713 -1.11137,5.03735 -0.16257,6.5979 0.84205,1.38497 0.5121,2.8233 -0.64765,2.8233 -0.45853,0 -1.72342,1.5093 -2.81086,3.354 l -1.97717,3.354 -0.40863,-2.1812 c -0.22474,-1.19966 -0.67286,-4.3978 -0.99581,-7.10697 -0.32295,-2.70917 -0.77129,-4.92577 -0.99632,-4.92577 -0.698,0 -2.81039,6.886 -2.81039,9.16136 0,1.18694 0.65116,5.50441 1.44703,9.59437 1.05553,5.42443 1.40776,8.65269 1.30191,11.93232 l -0.14511,4.49601 -1.72633,-3.59572 c -0.94948,-1.97764 -2.73281,-7.1497 -3.96296,-11.49346 -1.23015,-4.34375 -2.42056,-7.89774 -2.64537,-7.89774 -0.22481,0 -1.09587,1.21675 -1.9357,2.70388 l -1.52696,2.70388 1.48051,5.97486 c 1.57977,6.37548 2.29278,11.13518 1.66805,11.13518 -0.79096,0 -4.82958,-9.05353 -5.53212,-12.40156 -0.8851,-4.21806 -0.94018,-7.24209 -0.14019,-7.69667 0.32548,-0.18495 1.60373,-1.05103 2.84055,-1.92464 l 2.24876,-1.58837 v -6.66562 -6.66563 l -1.30192,2.47137 c -1.75094,3.32373 -4.38407,5.38563 -6.87766,5.38563 -2.37616,0 -9.05269,-3.17586 -12.07618,-5.74433 -1.14051,-0.96888 -2.23669,-1.7616 -2.43594,-1.7616 -0.19925,0 -0.74434,1.67913 -1.2113,3.73141 -1.03818,4.56268 -0.73409,5.51257 2.73652,8.54808 l 2.475,2.16472 v 11.07361 c 0,6.09048 -0.11792,11.0736 -0.26204,11.0736 -0.56526,0 -5.3709,-6.15392 -5.49508,-7.03681 -0.0726,-0.51603 0.76502,-1.78266 1.86134,-2.81472 2.70067,-2.54238 2.81677,-4.94869 0.46124,-9.55929 -1.00486,-1.96685 -3.52119,-5.65385 -5.59184,-8.19333 -2.07066,-2.53948 -5.16546,-6.60681 -6.87735,-9.03853 -3.00275,-4.26537 -3.16553,-4.37712 -4.61588,-3.16855 -1.67516,1.3959 -1.72112,1.59856 -0.98271,4.33296 0.61356,2.27206 -0.0535,1.73945 -1.86279,-1.48729 l -1.10542,-1.97146 -0.90663,2.21498 c -1.08705,2.65577 -1.1611,5.11176 -0.20171,6.68974 0.869,1.4293 0.501,2.8233 -0.74532,2.8233 -1.27126,0 -5.02806,7.63545 -6.13553,12.47005 -1.04388,4.55704 -1.19578,12.26381 -0.35176,17.84677 0.78884,5.21797 3.28796,10.02756 5.21044,10.02756 3.45907,0 8.65449,-8.25385 10.86102,-17.25468 0.57064,-2.32777 1.21323,-4.01712 1.42797,-3.7541 0.21474,0.26302 0.39043,2.6328 0.39043,5.26618 0,3.45783 -0.34039,5.93909 -1.2253,8.93158 -0.67391,2.27899 -1.10385,4.38429 -0.95542,4.67846 0.6489,1.28601 5.54392,-7.05246 6.84511,-11.66036 0.37121,-1.31457 0.61729,-1.20354 2.02159,0.91217 0.87942,1.32491 2.93015,3.18181 4.55718,4.12644 1.62704,0.94462 2.95854,1.99915 2.9589,2.3434 3.6e-4,0.34424 -0.42542,2.59584 -0.94619,5.00355 -0.52077,2.40771 -0.94685,4.6192 -0.94685,4.91441 0,0.74037 1.84347,-2.48849 3.23473,-5.66567 z m 75.49569,-7.18495 c -2.31868,-2.80187 -5.59118,-11.67598 -8.25257,-22.37869 -1.32302,-5.32047 -2.3133,-9.85628 -2.20063,-10.07958 0.11268,-0.2233 1.46684,0.41424 3.00925,1.41676 1.5424,1.00252 3.7044,2.27961 4.80443,2.83797 l 2.00006,1.01522 1.4453,9.11809 c 0.79492,5.01495 1.57631,11.54579 1.73642,14.51298 0.33134,6.14023 -0.01,6.6175 -2.54226,3.55725 z m -102.86536,-2.14989 c -2.73184,-2.76642 -3.84321,-5.93165 -3.94689,-11.2409 -0.16389,-8.3923 2.56614,-10.99295 9.65927,-9.20149 4.31545,1.08991 4.61492,1.306 4.82475,3.48133 0.23741,2.46125 -0.27967,3.17123 -3.23764,4.44544 -1.44531,0.6226 -1.44865,0.6389 -1.24961,6.09229 0.1788,4.89878 0.0846,5.62764 -0.90492,7.0012 -1.48685,2.06393 -2.66711,1.93136 -5.14496,-0.57787 z m 61.65379,0.25983 c -1.79182,-1.61189 -2.01205,-2.15814 -2.01205,-4.99061 0,-1.74933 -0.31944,-5.25319 -0.70985,-7.78636 -0.6791,-4.40628 -0.66739,-4.67558 0.27049,-6.21773 1.49267,-2.45438 3.80106,-2.92369 8.23935,-1.67511 3.99927,1.12507 4.0356,1.15964 4.0356,3.8396 0,2.40432 -0.22627,2.81722 -2.03984,3.72224 l -2.03985,1.01794 0.19846,5.43745 c 0.17759,4.86572 0.0823,5.59865 -0.90604,6.97062 -1.42686,1.98066 -2.56056,1.90907 -5.03627,-0.31804 z m -29.83464,-1.33133 c -0.44084,-1.9175 -0.34194,-2.56648 0.67913,-4.45665 1.19015,-2.20318 2.52541,-6.50529 2.52541,-8.13671 0,-0.47147 -1.01194,0.16003 -2.24876,1.40333 l -2.24876,2.26054 -0.14238,-5.78078 c -0.0783,-3.17943 -0.0783,-5.89867 0,-6.04277 0.0783,-0.14409 1.67939,-0.0395 3.55795,0.23248 3.26342,0.47243 3.39249,0.57996 2.89728,2.41375 -0.31609,1.17049 -0.41213,4.42906 -0.24617,8.35221 l 0.27213,6.43292 -1.93852,2.78299 c -2.34006,3.35944 -2.45425,3.37924 -3.10731,0.53869 z m 58.96123,-12.533 c 0.27005,-5.39983 0.32515,-5.4702 1.41549,-1.8078 0.99144,3.33017 0.99487,3.45168 0.12364,4.37575 -1.46799,1.557 -1.72406,1.12977 -1.53913,-2.56795 z m -73.51547,-4.05075 c -0.41221,-4.83536 -0.0589,-5.51549 1.42753,-2.74802 1.41872,2.64142 1.49699,4.28728 0.26596,5.59296 -1.3135,1.39315 -1.33532,1.35649 -1.69349,-2.84494 z m -7.09262,-10.24669 c -0.16586,-0.53185 0.0242,-0.68914 0.44548,-0.36873 0.82017,0.62373 0.97023,1.29623 0.28924,1.29623 -0.24501,0 -0.57564,-0.41737 -0.73472,-0.9275 z M 99.358598,64.069034 c 2.608812,-2.50285 6.001232,-9.76794 7.625032,-16.32947 0.71228,-2.87822 1.51572,-5.07871 1.78544,-4.88997 1.04973,0.73455 0.37662,7.21838 -1.25824,12.12016 -0.90188,2.70411 -2.03834,6.13201 -2.52546,7.61757 l -0.88567,2.701 1.60379,-1.64363 c 2.56647,-2.63021 6.37802,-10.81554 7.32524,-15.73097 0.47129,-2.44565 1.00628,-4.44663 1.18887,-4.44663 0.1826,0 2.0705,2.71452 4.19535,6.03227 l 3.86335,6.03227 -1.22212,1.90516 -1.22211,1.90515 1.25818,0.62582 c 0.692,0.34421 1.75175,0.18014 2.35501,-0.36459 0.86084,-0.77731 1.50234,-0.5928 2.98148,0.85754 1.71285,1.67949 2.35138,1.77047 7.00431,0.99796 4.54337,-0.75432 5.23038,-1.10512 6.10338,-3.11652 l 0.98374,-2.26653 1.54328,2.06113 c 0.84881,1.13362 2.37043,2.33808 3.38137,2.67657 2.13117,0.71357 4.45654,-1.71751 7.59806,-7.94345 l 1.85121,-3.66875 0.85487,3.45373 c 1.6499,6.66563 6.36498,10.3889 8.98419,7.09439 3.17033,-3.98771 5.09699,-7.68815 6.42776,-12.34553 1.21673,-4.25825 1.60134,-4.93547 2.66424,-4.69121 1.10647,0.25427 1.23628,0.67096 1.18781,3.81307 -0.0358,2.32181 -0.61492,5.20819 -1.6942,8.44418 -0.90189,2.70411 -2.03835,6.13201 -2.52547,7.61757 l -0.88567,2.701 1.60379,-1.64363 c 2.56647,-2.63021 6.37803,-10.81554 7.32525,-15.73097 0.47128,-2.44565 1.00627,-4.44663 1.18887,-4.44663 0.18259,0 2.02227,2.6388 4.08817,5.86401 7.90275,12.33746 10.73226,14.64609 14.08552,11.49256 2.00707,-1.88751 2.22986,-3.28295 0.52414,-3.28295 -2.11012,0 -4.29259,-2.4768 -7.79435,-8.84552 -3.75042,-6.82094 -7.17402,-11.79579 -8.11765,-11.79579 -0.33387,0 0.38251,-2.0055 1.59196,-4.45665 2.2933,-4.64776 6.09112,-16.14288 5.73236,-17.35049 -0.54501,-1.83452 -4.08588,3.54376 -6.60776,10.03664 -1.49914,3.85971 -2.98272,7.21312 -3.29684,7.45201 -0.37491,0.28512 -0.85571,-1.96063 -1.3995,-6.53688 -0.74158,-6.24077 -0.94566,-6.97122 -1.94765,-6.97122 -2.51707,0 -2.90778,1.48123 -2.63941,10.00635 0.22897,7.27338 0.18217,7.82024 -0.66921,7.82024 -0.68296,0 -1.05805,-1.05711 -1.47724,-4.16321 -0.30902,-2.28976 -1.47167,-6.3626 -2.58366,-9.05076 -4.51259,-10.90878 -8.96591,-11.07121 -12.64926,-0.46138 -1.67801,4.83346 -1.52639,5.38516 0.53516,1.94733 0.77362,-1.29009 1.98196,-2.34561 2.68519,-2.34561 3.27779,0 9.03125,12.52662 8.46236,18.42448 -0.11761,1.21926 -0.0303,2.21684 0.19394,2.21684 0.6333,0 0.48004,5.28431 -0.18401,6.34446 -1.96121,3.1311 -6.74468,1.84329 -8.37076,-2.25357 -2.23859,-5.64007 -2.12696,-11.43321 0.31816,-16.51281 0.68051,-1.41371 1.11128,-2.82009 0.95728,-3.1253 -0.44619,-0.88427 -2.00789,1.13767 -3.52686,4.56625 l -1.40192,3.16436 -0.78303,-4.30131 c -0.43067,-2.36572 -1.63285,-6.25209 -2.67152,-8.63638 -4.32191,-9.92113 -8.75253,-9.73712 -12.31041,0.51126 -1.678,4.83346 -1.52638,5.38516 0.53517,1.94733 2.34563,-3.91155 4.22051,-3.04305 7.90149,3.66019 3.00144,5.46577 4.98161,18.22502 3.25599,20.97998 -1.96121,3.1311 -6.74469,1.84329 -8.37076,-2.25357 -2.23859,-5.64007 -2.12697,-11.43321 0.31816,-16.51281 1.3504,-2.80537 1.21887,-4.25467 -0.2452,-2.70182 -0.96928,1.02806 -3.45409,6.31333 -4.32684,9.20333 -0.48629,1.61028 -0.53863,1.6132 -1.00983,0.0564 -0.27332,-0.90307 -1.13342,-2.29422 -1.91132,-3.09145 l -1.41437,-1.4495 0.96448,-2.42997 c 1.30523,-3.28852 1.3146,-9.92721 0.0176,-12.49758 -1.85928,-3.68476 -7.26634,-1.62954 -11.54008,4.3864 -2.69098,3.78797 -5.69411,12.32285 -4.9561,14.08519 0.67844,1.62008 1.34662,1.56853 1.34662,-0.10389 0,-1.85379 2.3059,-7.1088 3.11934,-7.1088 0.51428,0 0.66656,1.5657 0.66159,6.80225 -0.0112,11.73159 -0.0162,11.7391 -3.94385,5.80876 -1.85957,-2.80779 -3.6941,-5.10507 -4.07674,-5.10507 -0.40099,0 0.23581,-1.88788 1.5033,-4.45665 2.29329,-4.64776 6.09112,-16.14288 5.73236,-17.35049 -0.54501,-1.83452 -4.08588,3.54376 -6.60776,10.03664 -1.49914,3.85972 -2.98272,7.21312 -3.29684,7.45201 -0.37492,0.28512 -0.85572,-1.96063 -1.39951,-6.53688 -0.76968,-6.47733 -0.9156,-6.96911 -2.05957,-6.94138 -2.0934,0.0507 -2.99559,2.1035 -2.62857,5.98076 0.17555,1.85449 0.17708,3.37181 0.003,3.37181 -0.17367,0 -2.3635,-3.23079 -4.86628,-7.17954 l -4.550502,-7.17953 -0.867492,2.12315 c -1.050606,2.5713 -1.11137,5.03735 -0.162574,6.5979 0.869006,1.42931 0.501003,2.8233 -0.745322,2.8233 -1.25242,0 -5.026791,7.61744 -6.076328,12.26326 -1.047703,4.6377 -1.059365,4.61236 -4.454013,-9.6793 -2.060937,-8.67666 -2.779603,-10.8974 -3.379046,-10.44152 -1.155364,0.87865 -2.050079,5.15191 -1.64518,7.85756 0.593351,3.96493 0.482363,5.47975 -0.444195,6.06256 -0.758152,0.47688 -0.920366,1.76855 -1.097848,8.74196 -0.147117,5.78032 -0.492176,9.26367 -1.175405,11.86562 l -0.967153,3.68323 -0.791931,-2.39531 c -1.345044,-4.06827 -1.729002,-8.2065 -2.141022,-23.07555 -0.218722,-7.8933 -0.54254,-14.63854 -0.719596,-14.98943 -0.177056,-0.3509 -1.108163,0.20022 -2.069127,1.22471 l -1.747208,1.8627 v 11.4113 11.4113 l -0.88617,-2.77623 c -0.487393,-1.52693 -1.507269,-3.41277 -2.266391,-4.19074 l -1.380222,-1.41451 0.964476,-2.42997 c 1.305236,-3.28852 1.314599,-9.92721 0.01763,-12.49758 -1.859285,-3.68476 -7.266349,-1.62954 -11.540082,4.3864 -2.690983,3.78797 -5.694118,12.32285 -4.956102,14.08519 0.678436,1.62008 1.346619,1.56853 1.346619,-0.10389 0,-1.85379 2.305896,-7.1088 3.119339,-7.1088 0.515439,0 0.668052,1.59949 0.668052,7.00162 0,8.85487 -1.299482,16.16431 -3.578831,20.13052 l -1.638476,2.85105 1.19126,0.59253 c 0.783782,0.38986 2.214689,-0.26947 4.183246,-1.92756 l 2.991984,-2.52011 -0.191866,-4.85441 c -0.238493,-6.03412 0.307564,-7.57922 3.535506,-10.00393 l 2.468721,-1.85441 1.215791,2.0946 c 0.884569,1.52397 1.233235,3.09331 1.279821,5.76048 0.08607,4.92789 -1.163655,6.93195 -6.51334,10.44475 l -4.230218,2.77772 5.55308,0.7624 c 6.333943,0.86961 7.702894,0.15931 8.909564,-4.62287 l 0.736814,-2.92007 1.065604,3.6694 c 1.614975,5.56115 2.720674,6.14738 5.793367,3.07158 1.405884,-1.4073 3.709297,-4.19071 5.118697,-6.18535 3.571076,-5.05394 4.400339,-4.82915 6.523248,1.76827 3.435061,10.67522 5.409245,12.48604 9.418781,8.63936 z m -2.408162,-9.23114 c -2.47162,-2.24931 -3.536579,-4.72924 -4.076682,-9.49318 -0.566412,-4.996 0.193075,-8.32774 2.420242,-10.61721 1.654303,-1.70058 4.545172,-1.72286 9.508554,-0.0733 1.54241,0.51262 1.79056,0.27647 2.71422,-2.58285 l 1.01659,-3.14705 0.008,3.79293 c 0.008,3.67185 -0.0563,3.82732 -2.00408,4.8701 -3.49694,1.87213 -3.9077,2.95877 -3.74994,9.92046 0.12342,5.44645 0.0232,6.25358 -0.94268,7.59439 -1.3908,1.93059 -2.551212,1.86792 -4.894204,-0.26433 z m 32.074464,0.32499 c -0.82045,-1.14112 -1.06521,-2.39825 -1.06521,-5.4711 0,-5.17058 0.64768,-6.77166 3.65228,-9.02861 l 2.46872,-1.85441 1.2158,2.0946 c 1.38566,2.38727 1.76168,8.0308 0.70343,10.55783 -1.60964,3.84375 -5.41926,5.86554 -6.97502,3.70169 z M 84.297367,40.886924 c 0.270051,-5.39983 0.32515,-5.4702 1.415493,-1.8078 0.991437,3.33017 0.99487,3.45168 0.123634,4.37575 -1.467986,1.557 -1.724055,1.12977 -1.539127,-2.56795 z m -25.657286,-8.44782 c -0.71453,-4.46164 1.395745,-9.06932 3.892179,-8.49837 1.125649,0.25745 1.269386,0.67103 1.202242,3.45932 -0.09504,3.94679 -0.929194,5.65482 -3.103099,6.35396 -1.408768,0.45307 -1.743589,0.23198 -1.991322,-1.31491 z m 69.593309,0 c -0.71453,-4.46164 1.39574,-9.06932 3.89218,-8.49837 1.12564,0.25745 1.26938,0.67103 1.20224,3.45932 -0.095,3.94679 -0.9292,5.65482 -3.1031,6.35396 -1.40877,0.45307 -1.74359,0.23198 -1.99132,-1.31491 z m 152.54225,30.26841 c 6.16513,-3.85972 9.33535,-9.67124 8.34119,-15.2907 l -0.44978,-2.54236 -6.50655,-0.56119 c -3.57861,-0.30865 -6.66318,-0.88256 -6.85462,-1.27536 -0.19143,-0.3928 0.078,-1.28295 0.59878,-1.97812 0.52077,-0.69517 1.37293,-1.90203 1.8937,-2.68193 0.892,-1.33585 0.86458,-1.3712 -0.47342,-0.61027 -0.78115,0.44424 -2.02001,1.27505 -2.75301,1.84624 -1.84797,1.44004 -1.99156,1.36215 -2.6331,-1.42831 -0.69931,-3.0417 -0.62256,-3.19594 2.08995,-4.20023 3.23215,-1.19668 7.81616,1.24282 10.24114,5.45009 0.69832,1.21157 1.05707,1.13578 3.07726,-0.65008 l 2.28678,-2.02153 -3.91859,-7.20355 c -2.15522,-3.96196 -3.9128,-7.85798 -3.90574,-8.65783 0.033,-3.7346 -2.45722,-4.89202 -4.26915,-1.98427 -1.04242,1.67286 -1.05045,1.81103 -0.28242,4.86214 0.87392,3.47178 0.50823,4.63384 -1.46667,4.6606 -0.58307,0.008 -2.11261,0.80692 -3.39898,1.7756 l -2.33885,1.76123 -0.5913,-2.8291 c -0.32522,-1.55601 -1.69086,-5.0611 -3.03476,-7.78909 -3.79604,-7.7056 -7.00186,-8.06178 -10.32111,-1.1467 l -1.82974,3.81196 -3.40288,-0.57007 c -3.5048,-0.58714 -10.71012,-4.29901 -13.10058,-6.74885 -3.12732,-3.205 -6.40207,-0.81992 -8.94961,6.51822 -1.67801,4.83346 -1.52639,5.38516 0.53517,1.94733 2.34562,-3.91155 4.22051,-3.04305 7.90149,3.66019 3.00143,5.46577 4.98161,18.22502 3.25599,20.97998 -1.96121,3.1311 -6.74469,1.84329 -8.37077,-2.25357 -2.23858,-5.64007 -2.12696,-11.43321 0.31817,-16.51281 0.6805,-1.41371 1.09968,-2.84308 0.9315,-3.17638 -0.83907,-1.66288 -4.7945,6.43407 -5.89603,12.06946 l -0.59808,3.05972 0.26225,-3.53904 c 0.1909,-2.57614 0.0473,-3.96502 -0.52775,-5.10469 -0.64466,-1.27761 -0.74234,-2.7842 -0.53092,-8.18898 0.1425,-3.64283 0.40579,-7.5733 0.5851,-8.73438 0.26847,-1.7384 0.14499,-2.11104 -0.69955,-2.11104 -1.67483,0 -3.68645,2.57779 -4.0109,5.13977 -0.16651,1.3148 -0.16219,5.73083 0.01,9.81339 l 0.31236,7.42285 -1.84042,0.91011 c -4.02348,1.98967 -3.8541,2.03032 -4.15973,-0.99822 -0.15649,-1.55066 -0.28453,-4.45545 -0.28453,-6.45507 0,-3.99843 -0.39807,-4.39156 -2.14706,-2.12042 -1.02859,1.33566 -1.16691,2.19182 -1.16691,7.22295 0,6.09961 1.80104,19.46963 3.0569,22.69287 0.72452,1.85952 0.74009,1.85547 1.72217,-0.44744 0.74593,-1.74916 0.92149,-3.08346 0.70982,-5.39489 -0.95002,-10.37418 -1.05149,-9.32183 0.96888,-10.04815 1.00493,-0.36127 2.27984,-0.87166 2.83313,-1.13418 0.878,-0.41659 1.04536,0.0431 1.31549,3.61303 0.65591,8.66831 2.97004,12.5109 8.87496,14.73681 3.50464,1.32111 3.72894,1.16785 7.83534,-5.3536 3.55292,-5.64244 5.30186,-16.02594 3.91605,-23.24963 -0.57939,-3.02008 -0.38877,-3.59411 0.92012,-2.77082 1.48288,0.93274 4.03039,17.56435 4.04957,26.43794 0.0129,5.97631 0.10105,6.61794 0.80628,5.86994 0.43548,-0.46188 1.23438,-1.95491 1.77534,-3.31785 1.21136,-3.052 1.33617,-12.20479 0.27343,-20.05159 -0.95821,-7.07497 -0.94029,-7.21153 1.04318,-7.94897 1.92346,-0.71513 5.11214,-3.67093 5.58057,-5.17301 1.02622,-3.29073 5.86133,4.09793 7.64259,11.67886 1.20613,5.13316 1.47284,11.90882 0.52815,13.41703 -1.96121,3.1311 -6.74469,1.84329 -8.37076,-2.25357 -2.2218,-5.59777 -2.06965,-12.35019 0.37557,-16.66801 0.5567,-0.98304 1.01219,-2.14411 1.01219,-2.58016 0,-1.9016 -1.27939,-0.46699 -3.31367,3.71569 -5.51626,11.34201 -3.76309,26.42957 3.34777,28.81047 1.40442,0.47024 2.15401,0.11291 3.62581,-1.72841 2.08197,-2.60469 4.7037,-7.42115 5.95999,-10.94927 l 0.83522,-2.3456 -0.22855,2.3456 c -0.12571,1.29009 -0.50066,4.158 -0.83323,6.37316 -0.72187,4.8081 -0.33948,6.50067 2.00429,8.87181 2.25044,2.27672 5.41744,2.05203 9.80647,-0.69575 z m -5.9992,-5.99538 c -0.59575,-1.18068 -1.00218,-3.18283 -1.00218,-4.93695 v -2.9508 l 3.19561,0.53734 c 3.90285,0.65627 4.85259,1.33008 4.85259,3.44275 0,2.60469 -1.68547,4.92023 -3.94956,5.42598 -1.69916,0.37956 -2.28336,0.0931 -3.09646,-1.51832 z m -71.67299,0.9711 c 1.86101,-3.57926 2.48259,-6.71919 2.5124,-12.6915 0.0118,-2.36595 0.42938,-3.55139 2.16284,-6.1402 2.28202,-3.40806 4.58705,-9.38648 5.06167,-13.12816 0.41491,-3.27091 -0.41681,-5.64741 -2.66675,-7.61983 -1.64693,-1.4438 -3.37384,-1.76056 -10.40806,-1.90911 l -8.43351,-0.17811 -1.17309,3.42133 c -0.6452,1.88173 -1.04376,3.83607 -0.88568,4.34297 0.15808,0.5069 2.29873,0.92163 4.757,0.92163 h 4.46959 v 3.67787 c 0,2.02282 0.55598,8.25014 1.23552,13.83849 0.86215,7.0902 1.15502,11.50756 0.96915,14.61785 -0.1465,2.45147 -0.089,4.45722 0.12766,4.45722 0.21672,0 1.23879,-1.6247 2.27126,-3.61045 z m 1.10239,-27.11697 c -0.27117,-1.93512 -0.49423,-4.89058 -0.49568,-6.56769 -0.002,-2.42553 0.19104,-3.04928 0.94421,-3.04928 1.16846,0 2.84116,3.17885 2.83877,5.39489 -0.002,2.05241 -1.71892,7.74049 -2.33614,7.74049 -0.25197,0 -0.67999,-1.58328 -0.95116,-3.51841 z m -56.36234,11.49346 c 0,-0.77405 -0.31956,-1.40736 -0.71014,-1.40736 -0.39057,0 -0.71013,0.63331 -0.71013,1.40736 0,0.77405 0.31956,1.40737 0.71013,1.40737 0.39058,0 0.71014,-0.63332 0.71014,-1.40737 z m 16.09641,0 c 0,-0.77405 -0.31956,-1.40736 -0.71013,-1.40736 -0.39058,0 -0.71014,0.63331 -0.71014,1.40736 0,0.77405 0.31956,1.40737 0.71014,1.40737 0.39057,0 0.71013,-0.63332 0.71013,-1.40737 z m 71.96043,0 c 0,-0.77405 -0.31956,-1.40736 -0.71013,-1.40736 -0.39058,0 -0.71014,0.63331 -0.71014,1.40736 0,0.77405 0.31956,1.40737 0.71014,1.40737 0.39057,0 0.71013,-0.63332 0.71013,-1.40737 z m 26.03832,0 c 0,-0.77405 -0.31956,-1.40736 -0.71014,-1.40736 -0.39057,0 -0.71013,0.63331 -0.71013,1.40736 0,0.77405 0.31956,1.40737 0.71013,1.40737 0.39058,0 0.71014,-0.63332 0.71014,-1.40737 z m -112.88885,-4.13489 c -0.7575,-2.90307 -1.45775,-3.37135 -3.45508,-2.31056 -1.70164,0.90376 -1.2398,2.0565 1.10286,2.75272 1.19243,0.35438 2.28396,1.24288 2.42561,1.97444 0.14165,0.73155 0.35345,1.14002 0.47068,0.90771 0.11722,-0.23232 -0.12761,-1.72826 -0.54407,-3.32431 z m 16.09641,0 c -0.7575,-2.90307 -1.45775,-3.37135 -3.45507,-2.31056 -1.70164,0.90376 -1.2398,2.0565 1.10285,2.75272 1.19244,0.35438 2.28396,1.24288 2.42561,1.97444 0.14165,0.73155 0.35346,1.14002 0.47068,0.90771 0.11722,-0.23232 -0.12761,-1.72826 -0.54407,-3.32431 z m 71.96044,0 c -0.75751,-2.90307 -1.45775,-3.37135 -3.45508,-2.31056 -1.70164,0.90376 -1.2398,2.0565 1.10286,2.75272 1.19243,0.35438 2.28395,1.24288 2.4256,1.97444 0.14165,0.73155 0.35346,1.14002 0.47068,0.90771 0.11723,-0.23232 -0.1276,-1.72826 -0.54406,-3.32431 z m 26.03831,0 c -0.7575,-2.90307 -1.45775,-3.37135 -3.45507,-2.31056 -1.70164,0.90376 -1.23981,2.0565 1.10285,2.75272 1.19243,0.35438 2.28396,1.24288 2.42561,1.97444 0.14165,0.73155 0.35345,1.14002 0.47068,0.90771 0.11722,-0.23232 -0.12761,-1.72826 -0.54407,-3.32431 z"
     id="path2"
     sodipodi:nodetypes="cccccccccscsssssssssssccssscsssssscssssssscsscsscsssssssssssssssscssccsssssssssscsssssssssssssssssscssssssssssssssccssssscsssscsssssscsssscssssscccsssssscsssssssssscssssssssssssssssscccsssscsscssssssssssssssscssssssscssssscsssssssssssssscsssscsssscccssssscssscssssssscssssssssssssssssscsssssssssscscsssssssssscscsssscssssssscssscsssssssssscsssscccsscsssssssscsscsscssscsscsssscccssssccsscccssscsssssssssssssscsscscsssssssssscsssscscssscsssssssssscssssssccsssssssssssssssssssssssssssssscsssccsscsssssssssscssscsssssscscssssssssssssssssssssssssssssssssssssssssssssss" /></svg>
