<?xml version="1.0" encoding="UTF-8" standalone="no"?>
<svg
   width="421"
   height="85"
   viewBox="0 0 421 85"
   fill="none"
   version="1.1"
   id="svg1"
   sodipodi:docname="bobottomnav2.svg"
   xml:space="preserve"
   inkscape:version="1.4.3 (0d15f75, 2025-12-25)"
   xmlns:inkscape="http://www.inkscape.org/namespaces/inkscape"
   xmlns:sodipodi="http://sodipodi.sourceforge.net/DTD/sodipodi-0.dtd"
   xmlns="http://www.w3.org/2000/svg"
   xmlns:svg="http://www.w3.org/2000/svg"><defs
     id="defs1" /><sodipodi:namedview
     id="namedview1"
     pagecolor="#ffffff"
     bordercolor="#000000"
     borderopacity="0.25"
     inkscape:showpageshadow="2"
     inkscape:pageopacity="0.0"
     inkscape:pagecheckerboard="0"
     inkscape:deskcolor="#d1d1d1"
     inkscape:zoom="2.9695126"
     inkscape:cx="189.25665"
     inkscape:cy="80.652967"
     inkscape:window-width="1920"
     inkscape:window-height="974"
     inkscape:window-x="-11"
     inkscape:window-y="-11"
     inkscape:window-maximized="1"
     inkscape:current-layer="svg1" /><rect
     width="421"
     height="85"
     fill="white"
     id="rect1" /><path
     style="fill:#000000;fill-opacity:1"
     d="M 0.6118308,44.347021 V 1.1016386 c 158.1431292,-1.32075061 273.6986392,-0.26751301 420.8805792,0 V 44.347021 83.888092 H 230.58395 0.6118308 Z m 29.6355462,18.36152 c 0.0714,-4.44648 0.304868,-7.67888 0.554617,-7.67888 0.634156,0 3.870862,6.32312 5.586579,10.91376 1.055861,2.8251 1.836048,4.08293 2.675332,4.3132 0.651639,0.17879 1.184798,0.0355 1.184798,-0.31835 0,-0.35388 -0.890454,-3.58602 -1.978787,-7.18253 -2.140465,-7.0734 -6.193043,-24.06878 -8.163361,-34.23485 -1.314707,-6.78337 -1.605709,-7.48654 -3.106046,-7.50529 -1.143012,-0.0143 -1.118831,-1.03838 -0.326686,13.83575 0.92611,17.38959 1.013624,16.25211 -1.159701,15.0735 l -1.809515,-0.98131 -1.815054,-9.02437 c -0.99828,-4.96339 -2.264069,-12.14013 -2.812864,-15.94829 -0.950804,-6.59775 -1.054055,-6.92393 -2.191712,-6.92393 -0.927656,0 -1.193902,0.37257 -1.193902,1.67068 0,1.49332 -0.166647,1.61326 -1.569835,1.12977 -1.384725,-0.47713 -1.494781,-0.40306 -0.93333,0.62815 0.613168,1.12619 4.426022,33.66013 4.030069,34.38737 -0.271995,0.49956 -7.2918529,-19.24232 -9.0692982,-25.5055 -0.8278335,-2.91704 -1.5051519,-6.15553 -1.5051519,-7.19664 0,-2.02358 -1.0915619,-3.53122 -2.5566897,-3.53122 -1.0253532,0 -1.0285922,0.0187 -0.4698229,2.71806 0.3565709,1.72254 0.3003031,2.02978 -0.3717254,2.02978 -0.6531395,0 -0.8848512,1.05833 -1.3223881,6.0399 -0.438438,4.99184 -0.430005,6.15687 0.0486,6.71399 0.9995045,1.16347 2.445094,0.78335 2.6105978,-0.68647 0.085761,-0.76163 1.1396959,5.0248 2.3420768,12.85873 2.0268681,13.20576 2.1283665,14.27235 1.3930935,14.63917 -0.7325254,0.36546 -0.7091894,0.59194 0.3057534,2.9674 0.7930935,1.85623 1.4497247,2.57175 2.3600877,2.57175 0.743049,0 1.26128,-0.41967 1.26128,-1.0214 0,-0.56177 -0.872959,-7.02975 -1.939907,-14.37329 -1.0669492,-7.34354 -1.8817592,-13.4587 -1.810689,-13.58923 0.07107,-0.13053 2.112208,5.05504 4.535861,11.52351 4.802605,12.81761 4.911737,13.04429 6.646648,13.80549 1.56233,0.68549 1.553485,0.17251 -0.285896,-16.58054 -0.808883,-7.36729 -1.420978,-13.48748 -1.360214,-13.60042 0.06076,-0.11295 0.847495,3.44793 1.748289,7.91306 2.222599,11.01717 6.099919,26.83479 6.777339,27.64831 0.303818,0.36486 1.230962,0.55463 2.060321,0.42172 l 1.507924,-0.24166 z m -3.233386,0.23418 c -0.261736,-1.08804 -0.985918,-4.07003 -1.609295,-6.62664 -0.623377,-2.5566 -1.042124,-4.81604 -0.93055,-5.02096 0.111574,-0.20493 0.785988,-0.13736 1.498697,0.15015 1.187782,0.47915 1.31924,0.86679 1.576511,4.64875 0.154372,2.2693 0.204141,5.18372 0.110597,6.47649 l -0.170078,2.35048 z m 4.618001,-9.34016 c -1.49353,-1.33818 -1.508777,-1.40392 -1.597175,-6.88592 l -0.08925,-5.53484 0.796055,3.16522 c 1.2912,5.134 2.590187,10.68556 2.490693,10.64463 -0.05082,-0.0209 -0.770964,-0.64599 -1.600323,-1.38909 z m 16.240078,15.86844 c -0.127694,-0.76163 -1.110725,-5.21273 -2.184513,-9.89133 l -1.952342,-8.50654 h 1.969533 c 1.70601,0 2.188552,-0.40227 3.606453,-3.0065 2.091837,-3.84203 2.573402,-7.74559 1.408232,-11.41512 -0.619594,-1.95131 -1.856256,-3.53025 -5.006223,-6.3918 -3.690636,-3.35271 -6.075179,-6.68272 -7.958798,-11.11442 -0.509261,-1.19817 -2.675736,-1.89586 -2.675736,-0.86169 0,2.78717 9.400888,49.24766 10.437394,51.58305 0.241452,0.54403 0.922566,0.98914 1.513587,0.98914 0.824636,0 1.020581,-0.3221 0.842413,-1.38479 z m -6.281898,-29.11033 c -2.797577,-14.47897 -2.920256,-13.54822 1.305782,-9.90683 4.908528,4.22946 5.538625,5.36209 5.538625,9.9559 0,3.15264 -0.216664,4.09783 -1.464841,6.39033 -0.883381,1.62249 -1.891692,2.69044 -2.540184,2.69044 -0.982503,0 -1.227642,-0.78823 -2.839382,-9.12984 z m 30.971199,30.15098 c 0,-0.18928 -0.189077,-1.25754 -0.420172,-2.37392 -0.537671,-2.5974 -0.33313,-2.55345 1.914654,0.41138 2.352503,3.10296 3.835789,2.93213 4.019234,-0.4629 0.225343,-4.17041 1.400975,-10.77612 2.472898,-13.89486 1.034883,-3.01098 1.035518,-3.02639 0.145946,-3.54496 -0.491401,-0.28645 -1.795219,-0.28515 -2.897374,0.003 l -2.003919,0.52372 1.615633,-2.05673 c 2.946675,-3.75117 2.110055,-6.30335 -5.137279,-15.67167 -3.80553,-4.91925 -5.741319,-8.56751 -5.741319,-10.8203 0,-1.58834 -2.6789,-3.08177 -2.940677,-1.63936 -0.08084,0.44542 -0.606727,0.80985 -1.168641,0.80985 -0.835642,0 -1.064441,0.50428 -1.256604,2.76957 -0.743704,8.76709 -0.788907,8.06566 0.55151,8.55804 1.180683,0.43371 1.344676,1.07279 3.69989,14.41846 1.355445,7.68055 2.569208,14.46605 2.69725,15.0789 0.161182,0.77147 -0.09222,1.11427 -0.823671,1.11427 -1.03072,0 -1.017924,0.0744 0.524876,3.05319 0.869743,1.67926 1.857573,3.25354 2.195178,3.49841 0.747854,0.54242 2.552587,0.70222 2.552587,0.22602 z m 0.294359,-5.76688 c -0.959468,-0.26466 -1.388341,-1.08363 -2.048294,-3.9114 -0.459101,-1.96715 -0.951863,-4.43382 -1.095027,-5.48148 l -0.260299,-1.90484 h 3.841612 3.841613 l -1.061777,5.93479 c -0.583978,3.26414 -1.273837,5.88145 -1.53302,5.81624 -0.259183,-0.0652 -1.017347,-0.2692 -1.684808,-0.45331 z m -4.218293,-15.05643 c -0.858392,-4.09705 -3.417193,-21.00448 -3.230697,-21.34701 0.307608,-0.56498 10.079563,13.02815 10.566067,14.69776 0.379182,1.3013 0.184078,1.98737 -1.234632,4.34148 -1.407301,2.33517 -3.927967,4.46116 -5.311025,4.47945 -0.183585,0.002 -0.538956,-0.97483 -0.789713,-2.17168 z m 19.719816,20.0608 c 1.223509,-0.59832 2.386765,-0.80293 2.585014,-0.45467 0.198248,0.34825 0.845142,0.75299 1.43754,0.89942 l 1.077089,0.26624 0.123311,-7.71523 c 0.07145,-4.47075 0.304687,-7.71524 0.554616,-7.71524 0.634157,0 3.870862,6.32312 5.58658,10.91376 1.055867,2.8251 1.836047,4.08293 2.675327,4.3132 0.65164,0.17879 1.1848,0.0355 1.1848,-0.31835 0,-0.35388 -0.89046,-3.58602 -1.97879,-7.18253 -2.14046,-7.0734 -6.193038,-24.06878 -8.163355,-34.23485 -1.314708,-6.78337 -1.60571,-7.48654 -3.106047,-7.50529 -1.143011,-0.0143 -1.118831,-1.03838 -0.326686,13.83575 0.89984,16.89632 0.923494,16.31468 -0.623188,15.32439 -0.700151,-0.44829 -1.621062,-0.66401 -2.046469,-0.47938 -0.47824,0.20756 -0.01147,0.7124 1.222882,1.32264 1.82855,0.904 2.01827,1.23043 2.257145,3.88359 0.143437,1.59315 0.261966,4.85512 0.263397,7.24883 l 0.0026,4.35218 -0.96724,-2.14309 c -0.895972,-1.98519 -3.336834,-3.89214 -3.336834,-2.60693 0,0.31076 0.492658,1.64039 1.094796,2.95471 0.602137,1.31433 1.038358,2.47187 0.96938,2.57232 -0.06898,0.10044 -0.726232,0.39216 -1.460564,0.64826 l -1.335147,0.46563 -0.529751,-9.10655 c -0.763117,-13.11814 -3.199029,-30.90766 -5.269366,-38.48229 -0.666514,-2.43854 -1.041422,-2.9674 -2.103572,-2.9674 h -1.292507 l 0.823962,2.9674 c 2.097373,7.55343 4.571091,26.46401 5.209399,39.82375 0.527327,11.03693 0.759589,11.42405 5.471678,9.11973 z m 6.607568,-16.14658 c -1.493529,-1.33818 -1.508777,-1.40392 -1.597175,-6.88592 l -0.08925,-5.53484 0.796054,3.16522 c 1.2912,5.134 2.590188,10.68556 2.490693,10.64463 -0.05082,-0.0209 -0.770964,-0.64599 -1.600322,-1.38909 z m 19.741939,15.4245 c 0.72089,-1.40938 0.9996,-3.22393 1.21541,-7.91306 l 0.28003,-6.08434 h -1.30963 c -1.55994,0 -1.83266,0.9975 -1.83266,6.70316 0,5.25283 -1.06411,8.24402 -2.44866,6.88307 -1.72883,-1.69937 -5.18182,-9.54841 -6.72245,-15.28092 -3.14052,-11.68551 -3.58632,-21.68282 -1.16518,-26.12968 0.67235,-1.2349 1.43147,-2.24527 1.68692,-2.24527 0.96005,0 3.86808,6.54113 5.26322,11.83874 1.1681,4.43551 1.68197,5.59408 2.663,6.00399 0.66858,0.27935 1.29416,0.36363 1.39017,0.18728 0.096,-0.17635 -0.20581,-2.79187 -0.67074,-5.81227 -1.05572,-6.85864 -1.72892,-13.36096 -1.29254,-12.48456 0.18142,0.36436 1.83904,8.08348 3.68361,17.1536 2.74548,13.50007 3.24337,16.61948 2.74509,17.1988 -0.49837,0.57943 -0.47766,0.70986 0.11434,0.71978 0.47983,0.008 1.02323,1.48592 1.61563,4.39399 0.49095,2.41002 0.89263,4.6865 0.89263,5.05883 0,0.82285 1.07522,1.63759 2.16116,1.63759 0.76753,0 0.76421,-0.18479 -0.0866,-4.81184 -1.03017,-5.60276 -0.74546,-6.72686 1.50716,-5.95069 2.18496,0.75286 4.31919,3.70043 4.85305,6.70248 0.49821,2.80161 1.23893,4.02857 2.44378,4.04793 0.99484,0.016 0.9598,-2.12771 -0.0863,-5.2787 -1.04878,-3.15917 -2.06017,-4.17063 -5.79984,-5.80025 l -2.97796,-1.29769 3.51651,-1.86627 c 2.60833,-1.38429 3.51651,-2.21066 3.51651,-3.19977 0,-0.73343 -0.99988,-4.13887 -2.22195,-7.56765 -4.08968,-11.47446 -5.80578,-20.14559 -4.72265,-23.86275 0.42508,-1.45882 0.33168,-1.69333 -0.86709,-2.17692 -1.78709,-0.72091 -2.18914,0.51472 -1.95288,6.00179 0.21554,5.00565 1.82637,11.42319 5.11385,20.37349 1.16735,3.17816 2.05073,6.17364 1.96307,6.65662 -0.1409,0.7764 -5.91478,4.18215 -6.12867,3.61503 -0.0465,-0.12319 -1.68632,-8.11443 -3.64413,-17.7583 -1.95781,-9.64387 -3.84365,-18.27901 -4.19075,-19.18918 -0.74807,-1.96162 -2.98604,-2.36953 -2.56707,-0.4679 0.14383,0.65282 0.37919,1.72109 0.52302,2.37392 0.20023,0.90879 -0.0636,1.18696 -1.12598,1.18696 -1.2966,0 -1.37508,0.15552 -1.19781,2.37392 0.22013,2.75471 0.20589,2.76877 -1.15077,1.13611 -0.56571,-0.6808 -2.10354,-1.44159 -3.4174,-1.69064 -2.85545,-0.54129 -4.319237,0.83594 -5.253517,4.94284 -1.887717,8.29801 1.467647,26.08179 6.710497,35.56645 3.20613,5.80006 7.17985,7.6209 8.97449,4.11228 z m 22.18016,0.52333 c -0.22524,-1.07806 -0.075,-1.21426 0.8625,-0.78208 1.64673,0.7591 4.7021,-0.72473 5.57669,-2.7083 0.41468,-0.9405 0.75396,-2.75884 0.75396,-4.04075 0,-2.42557 0.087,-2.31912 -5.14697,-6.2964 -1.05278,-0.80001 -1.05201,-0.80307 0.64625,-2.56597 l 1.70029,-1.76502 1.22502,3.89847 c 2.92319,9.30273 7.78651,15.01624 12.86493,15.11393 2.58269,0.0497 3.02967,-0.17458 4.0403,-2.02709 0.7735,-1.41784 1.20566,-3.21245 1.35342,-5.62022 l 0.21708,-3.53727 1.9976,3.57362 c 2.81307,5.03244 5.98539,7.54094 9.62502,7.61096 2.62082,0.0504 3.02066,-0.15843 4.10081,-2.14194 1.15699,-2.12462 1.19593,-2.46716 1.16947,-10.28698 -0.017,-5.01838 -0.31986,-10.19195 -0.79784,-13.62833 -1.49575,-10.75358 -5.06121,-21.73272 -7.94813,-24.47466 -1.63891,-1.55662 -4.97807,-2.33626 -5.94314,-1.38763 -0.55399,0.54456 -1.47941,0.51888 -2.90581,-0.0806 -1.96044,-0.82396 -2.14414,-0.76352 -2.90167,0.95471 -0.4448,1.0089 -0.92982,3.22523 -1.07783,4.9252 l -0.26909,3.09083 -1.49433,-3.20643 c -2.00059,-4.29278 -3.61788,-5.69899 -6.53125,-5.67887 -3.03835,0.021 -4.65312,-0.0177 -6.29372,-0.15079 -1.06698,-0.0866 -1.42887,0.37842 -2.07398,2.66473 -0.65265,2.31301 -0.75336,4.19458 -0.61095,11.41406 l 0.17053,8.6445 -2.63005,-5.09872 c -1.44653,-2.80429 -3.21934,-7.22845 -3.93959,-9.83145 -1.30059,-4.70044 -1.32359,-4.73441 -3.36902,-4.97691 l -2.05948,-0.24416 0.29405,2.61808 c 0.16173,1.43995 0.95513,7.64511 1.76311,13.78925 0.80799,6.14413 1.46907,11.39643 1.46907,11.67176 0,0.27534 -0.33928,0.50239 -0.75396,0.50455 -0.59926,0.003 -0.51666,0.36844 0.40256,1.78044 1.42641,2.19106 3.3495,13.08379 2.48347,14.06684 -0.37214,0.42244 -0.25714,0.85955 0.39474,1.50031 0.50593,0.49731 0.91987,1.39614 0.91987,1.99738 0,1.24286 0.64546,1.86322 2.03295,1.9539 0.71733,0.0469 0.8878,-0.26329 0.68312,-1.24293 z m 14.94297,-1.81713 c -2.31074,-2.24482 -5.90467,-9.71453 -7.32161,-15.21743 -1.8182,-7.06127 -2.70025,-15.17962 -2.51874,-23.1824 0.11455,-5.05043 0.33667,-7.03099 0.90573,-8.07592 0.46473,-0.85335 0.75397,-1.01585 0.75397,-0.42359 0,0.52848 -0.19388,0.96087 -0.43084,0.96087 -0.98598,0 -0.33159,1.4969 0.8655,1.97981 1.02282,0.41261 1.57523,0.0919 2.61807,-1.51974 1.82741,-2.82418 2.59855,-2.58201 4.62298,1.45179 3.85823,7.68775 6.26656,20.51167 6.30338,33.56434 0.0226,7.99974 -0.003,8.2174 -1.18576,10.08916 -1.43447,2.27012 -2.56575,2.36163 -4.61268,0.37311 z m 17.23343,0 c -2.31075,-2.24482 -5.90468,-9.71453 -7.32162,-15.21743 -1.8182,-7.06127 -2.70025,-15.17962 -2.51874,-23.1824 0.11455,-5.05043 0.33668,-7.03099 0.90574,-8.07592 0.46472,-0.85335 0.75396,-1.01585 0.75396,-0.42359 0,0.52848 -0.19388,0.96087 -0.43084,0.96087 -0.98598,0 -0.33158,1.4969 0.86551,1.97981 1.02281,0.41261 1.57522,0.0919 2.61807,-1.51974 1.8274,-2.82418 2.59854,-2.58201 4.62298,1.45179 3.85822,7.68775 6.26655,20.51167 6.30337,33.56434 0.0226,7.99974 -0.003,8.2174 -1.18576,10.08916 -1.43447,2.27012 -2.56575,2.36163 -4.61267,0.37311 z m -32.50006,-0.76622 c -0.50133,-1.48986 -2.01316,-11.3151 -1.80103,-11.70471 0.37886,-0.69584 6.35488,3.84756 6.59926,5.01722 0.37336,1.78703 -0.69701,5.54835 -1.85458,6.51706 -1.29052,1.07996 -2.61186,1.15646 -2.94365,0.17043 z m -2.051,-14.50913 c -0.55799,-0.8058 -3.35726,-18.2127 -3.35726,-20.87674 0,-0.40972 1.95427,2.72596 4.34282,6.96818 4.85546,8.62361 4.99561,9.44566 2.20439,12.92926 -1.79192,2.23641 -2.22694,2.36997 -3.18995,0.9793 z m 50.84845,13.58604 c -1.03016,-5.60276 -0.74545,-6.72686 1.50717,-5.95069 2.18495,0.75286 4.31919,3.70043 4.85305,6.70248 0.4982,2.80161 1.23893,4.02857 2.44378,4.04793 0.99484,0.016 0.9598,-2.12771 -0.0863,-5.2787 -1.04879,-3.15917 -2.06017,-4.17063 -5.79984,-5.80025 l -2.97796,-1.29769 3.51651,-1.86627 c 2.60833,-1.38429 3.51651,-2.21066 3.51651,-3.19977 0,-0.73343 -0.99988,-4.13887 -2.22196,-7.56765 -4.08968,-11.47446 -5.80577,-20.14559 -4.72264,-23.86275 0.42508,-1.45882 0.33167,-1.69333 -0.86709,-2.17692 -1.78709,-0.72091 -2.18914,0.51472 -1.95288,6.00179 0.21553,5.00565 1.82637,11.42319 5.11385,20.37349 1.16735,3.17816 2.05073,6.17364 1.96307,6.65662 -0.1409,0.7764 -5.91478,4.18215 -6.12867,3.61503 -0.0465,-0.12319 -1.68632,-8.11443 -3.64413,-17.7583 -1.95781,-9.64387 -3.84365,-18.27901 -4.19075,-19.18918 -0.80827,-2.11947 -2.98655,-2.35334 -2.51544,-0.27008 0.17224,0.76164 2.06904,9.87103 4.21511,20.24309 3.20634,15.49642 3.79237,18.98567 3.28733,19.57272 -0.50764,0.59007 -0.48877,0.71652 0.10839,0.72653 0.47983,0.008 1.02323,1.48592 1.61563,4.39399 0.49095,2.41002 0.89263,4.69492 0.89263,5.07755 0,0.86671 0.78848,1.47477 2.01822,1.55639 l 0.94113,0.0625 z m 28.51472,4.16897 c 0,-0.35358 -0.58162,-3.80321 -1.2925,-7.66585 -0.71088,-3.86264 -1.29251,-7.45736 -1.29251,-7.98827 0,-0.59586 0.86564,-1.08906 2.26189,-1.2887 1.24404,-0.17788 2.60337,-0.60657 3.02073,-0.95265 0.5894,-0.48872 0.69936,-0.3445 0.49245,0.64584 -0.36867,1.76456 1.85086,1.73495 2.91807,-0.0389 0.43479,-0.7227 0.85982,-1.16781 0.94451,-0.98914 0.0847,0.17868 0.86815,4.2929 1.74102,9.14273 1.50056,8.33734 1.65637,8.83655 2.85923,9.1608 0.6997,0.18861 1.27218,0.12272 1.27218,-0.14644 0,-0.26916 -0.87757,-5.28175 -1.95016,-11.13907 l -1.95016,-10.64969 1.1962,-1.82211 c 1.30156,-1.9826 3.57555,-4.38402 3.76236,-3.97321 0.0641,0.1409 1.14139,5.95358 2.39405,12.91708 1.25265,6.9635 2.49087,12.92252 2.75161,13.24226 0.26073,0.31975 0.89609,0.58682 1.41191,0.59348 0.90185,0.0117 0.83976,-0.52651 -1.61788,-14.02119 -1.40566,-7.71831 -2.48784,-14.39496 -2.40486,-14.83699 0.083,-0.44203 0.48895,1.33284 0.90214,3.94415 2.49033,15.73856 8.51464,25.92458 15.41102,26.05725 2.62082,0.0504 3.02066,-0.15843 4.10081,-2.14194 1.15699,-2.12462 1.19593,-2.46716 1.16947,-10.28699 -0.0435,-12.85248 -2.36328,-25.82008 -6.01602,-33.62956 -2.09212,-4.47289 -3.67875,-5.87655 -6.61965,-5.85623 -3.03835,0.021 -4.65312,-0.0177 -6.29372,-0.15079 -2.04048,-0.16553 -2.84249,3.55492 -2.75495,12.77998 0.0383,4.04013 -0.0411,7.54923 -0.17656,7.798 -0.13545,0.24877 -0.96406,-3.76897 -1.84135,-8.9283 -0.8773,-5.15934 -1.61637,-9.41954 -1.64238,-9.46712 -0.026,-0.0476 -0.58046,-0.32143 -1.23209,-0.60856 -0.89414,-0.39397 -1.1848,-0.22948 -1.1848,0.67053 0,0.96558 2.13909,13.98255 2.88242,17.54038 0.1553,0.74331 -4.57841,6.25728 -4.8306,5.62684 -0.0429,-0.10714 -0.89588,-5.18003 -1.8956,-11.27309 -0.99972,-6.09306 -1.88532,-11.47757 -1.968,-11.96559 -0.15966,-0.94241 -2.33305,-2.22143 -2.6829,-1.57887 -0.11392,0.20924 0.40561,4.00286 1.15452,8.43028 0.7489,4.42742 1.25937,8.23768 1.13438,8.46725 -0.41214,0.75698 -6.78564,-6.44816 -8.05767,-9.10908 -0.75092,-1.57081 -1.24663,-3.50412 -1.24663,-4.86191 0,-1.82954 -0.22271,-2.33233 -1.18235,-2.66926 -0.65028,-0.22832 -1.37246,-0.19932 -1.60482,0.0644 -0.23237,0.26377 -0.90848,0.49808 -1.50247,0.5207 -1.15589,0.044 -1.7958,2.5629 -0.90732,3.57144 0.26878,0.3051 1.32456,6.49029 2.34619,13.74486 1.57844,11.20855 1.75411,13.19408 1.16933,13.21646 -0.53305,0.0204 -0.46794,0.36367 0.28889,1.52302 0.84853,1.29984 2.25422,6.81049 2.25422,8.83712 0,0.3805 -0.37795,0.69182 -0.83989,0.69182 -0.72776,0 -0.60173,0.63391 0.94391,4.74784 1.46474,3.89861 2.00028,4.74784 2.99407,4.74784 0.66564,0 1.21026,-0.28929 1.21026,-0.64287 z m 29.2916,-2.47966 c -2.31074,-2.24482 -5.90467,-9.71453 -7.32161,-15.21743 -1.8182,-7.06127 -2.70025,-15.17962 -2.51874,-23.1824 0.11455,-5.05043 0.33668,-7.03099 0.90574,-8.07592 0.46472,-0.85335 0.75396,-1.01585 0.75396,-0.42359 0,0.52848 -0.19388,0.96087 -0.43084,0.96087 -0.98598,0 -0.33159,1.4969 0.86551,1.97981 1.02281,0.41261 1.57522,0.0919 2.61806,-1.51974 1.82741,-2.82418 2.59855,-2.58201 4.62298,1.45179 3.85823,7.68775 6.26656,20.51167 6.30338,33.56434 0.0226,7.99974 -0.003,8.2174 -1.18576,10.08916 -1.43447,2.27012 -2.56575,2.36163 -4.61268,0.37311 z m -32.51971,-16.06665 c -0.40658,-2.17134 -2.40401,-15.79569 -2.97614,-20.30018 l -0.6086,-4.79155 1.46107,2.04681 c 0.80358,1.12575 3.14477,3.70013 5.20264,5.72085 4.12424,4.04979 4.72091,5.19959 4.2993,8.28488 -0.77041,5.63775 -6.66333,12.85723 -7.37827,9.03919 z m 67.02116,16.22154 1.15765,-2.37965 1.24641,1.44946 c 1.50009,1.74446 5.81095,3.89783 7.80311,3.89783 3.37401,0 5.28514,-4.33043 4.44379,-10.0692 -0.66081,-4.5073 -2.46886,-8.79647 -8.44353,-20.03027 -4.65226,-8.74734 -7.09174,-14.22573 -7.09687,-15.93761 -8.9e-4,-0.29533 0.30305,-1.09652 0.67542,-1.78044 0.61547,-1.13044 0.54194,-1.24348 -0.80892,-1.24348 -1.82527,0 -2.64935,1.62152 -2.26257,4.45195 0.16386,1.19913 3.09281,7.40447 6.83377,14.47818 6.78083,12.82175 8.48576,17.33129 8.48576,22.44487 0,5.43356 -3.11819,7.65443 -6.41278,4.56739 -2.63464,-2.46866 -4.35471,-6.61824 -4.37688,-10.55896 -0.0103,-1.83454 -0.1772,-4.83927 -0.37085,-6.67719 -0.19366,-1.83792 -0.22679,-3.19942 -0.0736,-3.02557 0.15316,0.17386 1.14402,2.64153 2.20191,5.48373 1.37467,3.69328 2.27026,5.31171 3.13904,5.67262 0.66859,0.27774 1.29415,0.36073 1.39015,0.18441 0.096,-0.17631 -0.79543,-2.79184 -1.98095,-5.81227 -1.18552,-3.02044 -2.55542,-7.00508 -3.04421,-8.85475 -0.63596,-2.40657 -1.1535,-3.36583 -1.81967,-3.37281 -0.74336,-0.008 -1.16898,-1.08407 -2.11225,-5.34132 -1.36142,-6.14449 -3.82202,-12.44199 -5.83486,-14.93335 -1.6605,-2.05526 -5.25731,-3.14789 -6.46257,-1.96317 -0.56459,0.55497 -1.32526,0.57642 -2.2966,0.0648 -3.35907,-1.7694 -12.38393,-0.23189 -13.87154,2.3632 -0.7646,1.33383 2.3316,1.5565 3.79694,0.27308 0.8233,-0.72108 1.55419,-1.15822 1.62422,-0.97141 0.07,0.1868 0.56631,4.43465 1.10286,9.43967 1.3774,12.84865 5.20756,39.03258 5.81311,39.73995 0.27893,0.32584 0.92504,0.59789 1.43579,0.60456 l 0.92864,0.0121 -1.02926,-6.87102 c -0.56608,-3.77906 -0.9643,-6.9903 -0.88493,-7.13609 0.0794,-0.14579 0.66658,1.11906 1.30488,2.81078 2.87844,7.62881 7.80797,12.22038 12.51318,11.65529 1.72659,-0.20735 2.34723,-0.70505 3.28624,-2.63529 z m -7.78964,-0.15489 c -2.31074,-2.24482 -5.90467,-9.71453 -7.32161,-15.21743 -1.8182,-7.06127 -2.70025,-15.17962 -2.51874,-23.1824 0.11455,-5.05043 0.33667,-7.03099 0.90573,-8.07592 0.46472,-0.85335 0.75396,-1.01585 0.75396,-0.42359 0,0.52848 -0.19387,0.96087 -0.43083,0.96087 -0.98598,0 -0.33159,1.4969 0.8655,1.97981 1.02281,0.41261 1.57522,0.0919 2.61807,-1.51974 0.72695,-1.12347 1.66992,-2.04268 2.09547,-2.04268 1.24538,0 4.27117,6.73202 5.98018,13.30519 1.39731,5.3743 1.58617,6.82803 1.62342,12.4963 0.0262,3.99114 0.33401,7.90511 0.81465,10.36008 0.96888,4.94865 0.63265,9.02357 -0.93093,11.28252 -1.36878,1.97752 -2.47877,1.9967 -4.45487,0.077 z m -13.62077,-44.34665 c -0.43014,-3.85661 -0.41472,-3.96574 0.56014,-3.96574 0.55135,0 0.9939,0.089 0.98344,0.19783 -0.0105,0.1088 -0.26252,1.89338 -0.56015,3.96573 l -0.54113,3.76791 z m 56.77583,45.09526 c 0.71088,-1.30566 1.73994,-2.37392 2.2868,-2.37392 h 0.99429 l -0.85891,-4.28242 c -0.59021,-2.94276 -1.14748,-4.42463 -1.78139,-4.73703 -1.72763,-0.8514 -1.99958,-0.5465 -1.99958,2.24183 0,3.5404 -0.57711,6.22905 -1.77819,8.28424 -1.39062,2.37954 -2.22671,2.07169 -3.96361,-1.45941 -1.85187,-3.7648 -2.22399,-6.86234 -1.8487,-15.38828 0.26387,-5.99454 1.65536,-19.12623 2.11644,-19.97307 0.11316,-0.20784 0.62375,0.86434 1.13464,2.38262 0.51765,1.53834 1.34933,2.87053 1.87852,3.00902 0.6027,0.15772 1.22124,1.31047 1.69315,3.15547 0.85769,3.35323 0.91482,3.43608 2.91347,4.22465 1.30377,0.51441 1.4294,0.43653 0.96253,-0.59667 -0.69289,-1.53341 -2.45866,-11.07483 -3.10061,-16.7543 -0.48918,-4.32788 -0.53029,-4.41981 -1.97695,-4.41981 -0.81255,0 -1.47738,0.36862 -1.47738,0.81915 0,0.52372 -0.27191,0.56247 -0.75396,0.10744 -0.41468,-0.39143 -1.57793,-0.90421 -2.58501,-1.1395 l -1.83105,-0.4278 -0.009,4.47471 c -0.005,2.4611 -0.48755,8.74777 -1.07256,13.97039 -0.58501,5.22263 -1.06144,11.81025 -1.05872,14.63917 0.0104,10.79791 3.01002,16.48694 8.74357,16.5827 1.74974,0.0292 2.28463,-0.34182 3.37212,-2.33918 z m -4.77146,-43.19214 c 0.0207,-0.92183 0.12276,-1.10934 0.26029,-0.47808 0.12446,0.57122 0.10915,1.25372 -0.034,1.51667 -0.14316,0.26294 -0.24499,-0.20443 -0.22628,-1.03859 z m 15.04523,45.22315 c 0,-0.1886 -0.60126,-3.77276 -1.33614,-7.96481 -0.73488,-4.19204 -1.22562,-7.82489 -1.09054,-8.07299 0.56211,-1.03242 4.95626,5.999 7.83521,12.53773 1.16205,2.63927 3.63902,4.81051 3.63902,3.18986 0,-1.04608 -4.14193,-9.50544 -6.16865,-12.59868 -2.26181,-3.45203 -2.34548,-3.8942 -0.85525,-4.51952 2.20302,-0.92441 4.43888,-5.55968 4.43888,-9.20246 0,-3.21216 -1.51461,-6.04906 -4.89162,-9.16209 -4.80903,-4.4331 -7.43352,-7.95165 -9.09009,-12.18673 -1.25959,-3.22015 -1.75845,-3.90363 -2.84919,-3.90363 -1.1744,0 -1.28814,0.19909 -1.01717,1.78044 5.36729,31.32229 8.56806,48.66543 9.12751,49.45665 0.65954,0.93279 2.25803,1.39026 2.25803,0.64623 z m -3.63763,-21.22019 c -0.86735,-4.20886 -3.67747,-20.6673 -3.55891,-20.844 0.0483,-0.0719 2.25878,2.0089 4.91227,4.62408 4.01142,3.95351 4.9478,5.23206 5.55606,7.58632 0.69653,2.69593 0.69244,2.9656 -0.0853,5.63362 -0.51556,1.76853 -1.52596,3.4589 -2.73922,4.58259 -2.73936,2.53716 -3.27897,2.32809 -4.08488,-1.58261 z m 21.44951,19.63877 c 1.696,-1.05837 3.66527,-2.15873 4.37615,-2.44523 l 1.29251,-0.52092 -1.57148,-1.4886 c -0.86432,-0.81872 -2.24005,-2.92316 -3.05718,-4.67652 -1.07289,-2.30214 -1.81802,-3.18792 -2.68172,-3.18792 -1.14135,0 -1.16698,0.0814 -0.56062,1.78044 0.34947,0.97924 1.41994,2.8893 2.37882,4.24457 l 1.74343,2.46414 -2.53519,1.29457 c -1.39435,0.71201 -2.63505,1.29457 -2.7571,1.29457 -0.12206,0 -0.22874,-1.51337 -0.23706,-3.36305 -0.008,-1.84968 -0.29233,-5.67762 -0.63112,-8.50655 -0.74476,-6.21875 -0.77207,-7.12175 -0.21542,-7.12175 0.23696,0 0.43084,0.85212 0.43084,1.8936 0,1.92967 0.70921,2.85424 2.18941,2.85424 0.68923,0 0.82644,-0.57693 0.82644,-3.4751 0,-3.09208 -0.12481,-3.53263 -1.13239,-3.9971 -0.62281,-0.2871 -1.65147,-0.3126 -2.28592,-0.0567 -1.08663,0.43835 -1.19859,0.2028 -1.93047,-4.06158 -0.42731,-2.4898 -1.43435,-7.1765 -2.23785,-10.41489 -0.80351,-3.23838 -1.46092,-6.15509 -1.46092,-6.48157 0,-0.32649 0.53316,-0.80759 1.1848,-1.06912 0.65164,-0.26154 1.59179,-0.68963 2.08922,-0.95132 0.84293,-0.44344 0.92434,-0.0816 1.19751,5.32227 0.1612,3.18894 0.48872,7.1334 0.72782,8.76546 0.38286,2.61337 0.59294,2.9674 1.76087,2.9674 1.16655,0 1.29427,-0.21428 1.06121,-1.78044 -0.14571,-0.97924 -0.46666,-5.16327 -0.71322,-9.29785 -0.24655,-4.13457 -0.5316,-7.96252 -0.63345,-8.50654 -0.29016,-1.54986 -2.43618,-1.16782 -5.55621,0.98913 -1.57386,1.08805 -3.37888,1.97827 -4.01116,1.97827 -1.0141,0 -1.06526,0.11659 -0.43403,0.98913 0.82822,1.14485 2.70885,8.57431 4.42489,17.48067 1.26077,6.5435 1.14985,7.60087 -0.80055,7.63119 -0.42866,0.007 -0.65957,0.36821 -0.51312,0.80343 0.14645,0.43522 0.82339,0.7913 1.50432,0.7913 0.80497,0 1.31785,0.48441 1.46617,1.38479 0.41721,2.53272 1.11589,11.63033 1.1192,14.57323 0.005,4.41463 1.44446,4.85709 6.18257,1.90032 z m 28.47851,0.16564 c 0.36888,-0.96727 0.67069,-3.15545 0.67069,-4.86262 v -3.10394 l 2.30293,4.00031 c 3.30489,5.74078 7.03599,7.38855 8.8223,3.89621 0.72089,-1.40938 0.9996,-3.22393 1.21541,-7.91306 0.26948,-5.85515 0.24519,-6.08434 -0.64486,-6.08434 -0.50869,0 -0.92489,-0.31249 -0.92489,-0.69442 0,-0.81031 1.24396,-2.84368 1.45954,-2.38574 0.0804,0.17082 0.86038,4.27862 1.73325,9.12845 1.50056,8.33734 1.65637,8.83655 2.85923,9.1608 0.6997,0.18862 1.27218,0.12272 1.27218,-0.14644 0,-0.26916 -0.86768,-5.24086 -1.92819,-11.04823 -1.0605,-5.80736 -1.83575,-10.83354 -1.72277,-11.16928 0.25437,-0.75594 4.13089,-5.50604 4.49343,-5.50604 0.14515,0 1.31936,5.88834 2.60935,13.0852 l 2.34544,13.0852 1.94827,1.0607 c 1.07155,0.58339 2.09368,0.90557 2.2714,0.71596 0.17772,-0.18961 0.32313,-3.70656 0.32313,-7.81545 0,-4.63205 0.16981,-7.47071 0.4469,-7.47071 0.64751,0 3.86829,6.2745 5.60218,10.91376 1.05586,2.8251 1.83605,4.08293 2.67534,4.3132 0.65163,0.17879 1.18479,0.0355 1.18479,-0.31835 0,-0.35388 -0.89045,-3.58602 -1.97878,-7.18253 -2.14047,-7.0734 -6.19305,-24.06878 -8.16336,-34.23485 -1.31471,-6.78337 -1.60571,-7.48654 -3.10605,-7.50529 -1.14301,-0.0143 -1.11883,-1.03838 -0.32669,13.83575 0.8954,16.8128 0.91408,16.30865 -0.56922,15.35894 -0.96865,-0.6202 -1.36688,-1.64189 -1.93876,-4.97406 -0.95461,-5.56215 -0.96221,-5.52002 0.89591,-4.9717 1.10869,0.32716 1.41285,0.23931 0.96938,-0.28 -0.35544,-0.41622 -1.17376,-0.76222 -1.8185,-0.76888 -1.1184,-0.0116 -1.24485,-0.43915 -2.75314,-9.30997 -0.86949,-5.11382 -1.60217,-9.33678 -1.62818,-9.38436 -0.026,-0.0476 -0.58046,-0.32143 -1.23209,-0.60855 -0.89414,-0.39398 -1.1848,-0.22949 -1.1848,0.67052 0,0.96558 2.13909,13.98255 2.88242,17.54038 0.1553,0.74331 -4.57841,6.25728 -4.8306,5.62684 -0.2278,-0.56943 -3.65268,-21.74681 -3.65268,-22.5859 0,-0.93525 -1.67851,-2.53505 -2.65977,-2.53505 -0.26433,0 -0.33813,0.81495 -0.17916,1.97827 0.23707,1.73491 0.13081,1.97827 -0.86387,1.97827 -1.01515,0 -1.11428,0.24916 -0.9445,2.37392 0.22049,2.75918 0.2079,2.77119 -1.16874,1.11448 -0.57559,-0.69269 -2.21688,-1.45435 -3.64732,-1.69258 -2.54403,-0.42369 -2.63223,-0.37191 -4.04184,2.37324 l -1.44105,2.80637 -0.92257,-3.48772 c -0.84367,-3.18943 -0.85857,-3.48806 -0.17421,-3.49177 0.4488,-0.002 0.0585,-0.78444 -0.97498,-1.95357 -0.94784,-1.07223 -2.25227,-1.96063 -2.89874,-1.97421 l -1.17541,-0.0247 1.70017,4.83137 c 3.24004,9.20722 6.57291,28.48541 6.6426,38.42253 0.0218,3.11676 -0.10769,5.9395 -0.28788,6.27276 -1.12855,2.08719 -5.03332,-10.14019 -7.64525,-23.94029 -1.14106,-6.02877 -1.55059,-7.33484 -2.42655,-7.73863 -0.64429,-0.297 -1.28732,-0.0569 -1.65471,0.61788 -0.51398,0.94402 -0.44293,2.00621 0.49116,7.34298 1.30174,7.43735 1.76816,17.94442 0.92336,20.80081 -1.11998,3.78679 -1.88676,3.8928 -3.7669,0.52082 -3.64723,-6.5412 -7.81397,-25.97421 -8.57844,-40.00847 -0.27948,-5.13076 -0.28373,-5.14412 -1.71513,-5.39621 l -1.43495,-0.25272 0.30263,4.6049 c 1.12013,17.04438 5.97427,37.76302 10.00386,42.69888 0.77269,0.94647 2.41043,1.97486 3.63941,2.28531 2.13024,0.53811 2.29085,0.44863 3.44201,-1.91768 0.75111,-1.54399 1.20749,-3.37465 1.20749,-4.84356 0,-2.95334 0.64781,-3.03567 1.4584,-0.18535 1.87965,6.60945 6.69285,10.33307 8.21097,6.35221 z m 5.20181,-4.76959 c -4.34121,-8.21124 -7.58413,-22.96423 -6.89722,-31.37745 0.27878,-3.41449 2.10848,-7.99004 3.19511,-7.99004 0.93559,0 3.78938,6.36291 5.20983,11.61605 0.80265,2.96837 1.48282,5.48235 1.51149,5.58662 0.0287,0.10427 0.67837,0.41963 1.44379,0.70079 1.34728,0.4949 1.38395,0.43836 1.1495,-1.77219 -0.21228,-2.00147 -0.16596,-1.94145 0.37518,0.48616 0.95183,4.27 0.80688,5.79933 -0.825,8.70437 -1.79407,3.19377 -1.87421,3.95653 -0.41568,3.95653 0.94637,0 1.03268,0.20443 0.64625,1.53059 -0.24529,0.84183 -0.44599,3.43326 -0.44599,5.75873 0,4.22264 -0.83549,7.7455 -1.83695,7.7455 -0.27257,0 -1.67221,-2.22555 -3.11031,-4.94566 z m 20.11584,-6.08845 c -1.17104,-6.27914 -1.18582,-7.13055 -0.11489,-6.61618 0.64277,0.30872 0.90167,1.3653 1.11963,4.56934 0.46314,6.80837 0.0429,7.66445 -1.00474,2.04684 z m 5.08069,-4.6365 c -1.49353,-1.33818 -1.50877,-1.40392 -1.59717,-6.88592 l -0.0892,-5.53484 0.79605,3.16522 c 1.2912,5.134 2.59019,10.68556 2.49069,10.64463 -0.0508,-0.0209 -0.77096,-0.64599 -1.60032,-1.38909 z m -20.64609,-18.81716 c 0.0207,-0.92182 0.12276,-1.10933 0.26029,-0.47808 0.12446,0.57123 0.10915,1.25373 -0.034,1.51667 -0.14316,0.26295 -0.24499,-0.20442 -0.22628,-1.03859 z m 38.04383,28.35515 c -1.88535,-12.47148 -3.23737,-22.57883 -4.4457,-33.23487 l -1.18892,-10.48481 2.62744,-0.0556 c 3.85336,-0.0816 1.73923,-1.40152 -2.35667,-1.47138 -2.99775,-0.0511 -7.44515,1.59708 -8.291,3.07265 -0.7646,1.33382 2.33159,1.5565 3.79694,0.27307 0.82329,-0.72108 1.55419,-1.15822 1.62421,-0.97141 0.07,0.18681 0.56631,4.43466 1.10286,9.43967 1.37741,12.84865 5.20756,39.03259 5.81311,39.73996 0.27894,0.32584 0.92505,0.59789 1.4358,0.60455 l 0.92864,0.0121 z m -131.331,-29.40858 c -0.13395,-0.39805 -0.006,-0.86923 0.28463,-1.04707 0.39095,-0.23936 0.25009,-2.05564 -0.54222,-6.99152 -0.99694,-6.2106 -1.15541,-6.68608 -2.3094,-6.92929 -1.22364,-0.25788 -1.23552,-0.22106 -0.95793,2.9674 0.3067,3.5227 0.15771,3.73212 -1.45244,2.04157 -1.81791,-1.9087 -2.46927,-1.31369 -0.95743,0.87459 0.77668,1.12421 1.82058,3.52385 2.31976,5.33255 0.49918,1.80869 1.1239,3.55015 1.38827,3.8699 0.69233,0.83736 2.51572,0.74063 2.22676,-0.11813 z"
     id="path2"
     sodipodi:nodetypes="ccccccccsssssssssscssssssssssssssssssssssssssssscssssssscssscssssscsssssssssssssssssssssccssssssssssssssssscccssssssscsssscsssssssssssssscssssscssscssssscssscscssssssssssssscssscssssscsssssssssssssssssssccsssssscsssscsssssssssscsscsscssscssscsssssssssssssssssssssssssscsssssssssssssssssssscsssssssssssssssssscssssssssssssscsssssssssssssssssssssssssssssssssssssssssssssssssssssssscssssccssssssssssssssssssscssscsssssscssssscssssssssssssssssssscscscsssssssssssssssssccsssccsssssssssssssssscsssssssssssscssssscsscsssssssssssssssssssssscsssssssscssssssssssssscsssssssssssssssssssssssssssssscscsscssssssssssscssssssssssssssssssssssssssscssssssssssscsssssssscsscssssssss" /></svg>
