<?xml version="1.0" encoding="UTF-8" standalone="no"?>
<svg
   width="157"
   height="134"
   viewBox="0 0 57 34"
   fill="white"
   version="1.1"
   id="svg1"
   sodipodi:docname="botoplogo2.svg"
   xml:space="preserve"
   inkscape:version="1.4.3 (0d15f75, 2025-12-25)"
   xmlns:inkscape="http://www.inkscape.org/namespaces/inkscape"
   xmlns:sodipodi="http://sodipodi.sourceforge.net/DTD/sodipodi-0.dtd"
   xmlns="http://www.w3.org/2000/svg"
   xmlns:svg="http://www.w3.org/2000/svg"><defs
     id="defs1" /><sodipodi:namedview
     id="namedview1"
     pagecolor="#ffffff"
     bordercolor="#000000"
     borderopacity="0.25"
     inkscape:showpageshadow="2"
     inkscape:pageopacity="0.0"
     inkscape:pagecheckerboard="0"
     inkscape:deskcolor="#d1d1d1"
     inkscape:zoom="1.9392667"
     inkscape:cx="-9.5396882"
     inkscape:cy="40.479218"
     inkscape:window-width="1920"
     inkscape:window-height="974"
     inkscape:window-x="-11"
     inkscape:window-y="-11"
     inkscape:window-maximized="1"
     inkscape:current-layer="svg1" /><path
     d="M 11.535007,26.395937 C 8.1050473,22.990045 7.1016601,22.225058 6.5596342,22.602688 6.092903,22.92786 5.028268,22.327363 5.1189958,21.790108 5.1597938,21.548549 5.444662,21.310483 5.7520481,21.261073 6.0594358,21.211664 6.2469224,21.05448 6.1686857,20.911776 5.898257,20.41852 5.5521213,20.65967 3.948455,22.458583 1.9792042,24.667594 1.4057314,25.06539 1.17358,24.383407 1.0518532,24.025814 1.3823096,23.522081 2.4346862,22.461038 3.7597779,21.125032 4.8107957,19.678414 4.8146391,19.185272 4.8155149,19.07 4.6489425,18.975695 4.444446,18.975695 c -0.2045059,0 -0.3768266,0.09431 -0.3829356,0.209577 -0.00619,0.115271 -0.4894375,0.810992 -1.074063,1.546052 -0.7495169,0.942384 -1.1848079,1.283763 -1.4762,1.157711 -0.60768501,-0.262872 -0.53541941,-0.464147 0.8261776,-2.301088 0.6816826,-0.919661 1.239424,-1.821163 1.239424,-2.003334 0,-0.182167 -0.3893254,-1.080057 -0.8651675,-1.995303 -1.1604352,-2.232009 -1.2658823,-2.803095 -0.6361812,-3.445502 0.4922144,-0.50215 0.5269204,-0.502645 1.0055784,-0.01437 0.272673,0.278177 0.4957703,0.657205 0.4957703,0.842287 0,0.283352 1.3633673,3.400669 1.6349965,3.738388 0.048522,0.06032 0.2767369,-0.06542 0.5071509,-0.279437 0.3807005,-0.353605 0.4028966,-0.316545 0.2432002,0.406065 -0.2285013,1.033953 0.2293268,1.752215 0.7866834,1.234185 0.3308626,-0.307516 0.3437348,-0.277012 0.1003978,0.237925 -0.2480343,0.52489 -0.1214356,0.759967 1.1368694,2.110923 1.4489896,1.555688 2.4952168,2.467999 2.8302728,2.467999 0.219634,0 -0.540609,-1.578972 -1.5809528,-3.283529 C 7.170563,16.220985 3.0928616,11.511313 0.91208279,9.9908801 -0.4595519,9.0345799 -0.2192475,8.6417181 3.0285394,6.5307727 4.1585055,5.7963349 5.1411356,5.0894362 5.2121591,4.9598903 c 0.2080793,-0.379533 0.595647,-0.270623 0.595647,0.1673841 0,0.2216089 0.3890846,1.8499459 0.8646355,3.6185272 0.7945879,2.9550924 0.89578,4.0822254 0.3664986,4.0822254 -0.3305998,0 -1.4232708,-2.806867 -1.768448,-4.5428086 C 5.0945597,7.400423 4.8915548,6.708815 4.8193692,6.748312 4.0514486,7.1685027 2.0922558,8.5287053 2.099729,8.6364694 c 0.00526,0.076836 0.5796075,0.6427059 1.2761734,1.2574674 0.6965654,0.6147612 2.3125154,2.2985092 3.591,3.7416622 1.2784829,1.443152 2.3676198,2.57487 2.4203015,2.514934 C 9.4398809,16.090595 9.2638562,15.53857 8.9960408,14.923808 7.658465,11.85352 6.8067472,7.2532644 7.4623175,6.6399357 7.9502063,6.183484 9.9502193,8.4259114 11.298041,10.940572 c 0.556406,1.038102 1.044683,1.887455 1.085061,1.887455 0.04038,0 -0.206435,-0.84879 -0.548472,-1.8862 -0.771799,-2.3408908 -0.795239,-2.5755367 -0.29392,-2.9422225 0.31864,-0.2330663 0.657137,-0.070222 1.61125,0.7751808 0.664329,0.5886276 1.553071,1.5041107 1.974984,2.0344097 l 0.767117,0.964175 -0.02346,-1.197379 c -0.02062,-1.0518371 0.06865,-1.258763 0.734319,-1.7023933 0.490221,-0.3267003 1.540516,-0.572429 2.974617,-0.6959447 1.470794,-0.1266672 2.304645,-0.325191 2.477762,-0.5898821 0.223973,-0.3424526 0.30726,-0.3360202 0.588092,0.045442 0.17994,0.2444125 0.536605,0.4443883 0.792582,0.4443883 0.546012,0 0.654283,1.0535905 0.131508,1.2797299 -0.277374,0.1199941 -0.271773,0.3668858 0.03308,1.4582769 0.697808,2.498211 2.122084,6.75899 2.221795,6.646589 0.05504,-0.06205 -0.03956,-1.547874 -0.210224,-3.301824 -0.17067,-1.753952 -0.238487,-3.399986 -0.150707,-3.657857 0.252512,-0.7417919 1.295823,-0.5750808 1.79698,0.287136 l 0.439411,0.755992 0.362987,-0.616271 c 0.43698,-0.7419 0.933309,-0.791736 1.26742,-0.127263 0.22494,0.447359 0.2735,0.450685 0.570057,0.03905 0.466874,-0.648041 1.19177,-0.8826152 1.19177,-0.38565 0,0.222372 0.613515,1.095919 1.363366,1.941217 0.749852,0.845298 1.363365,1.479145 1.363365,1.408551 0,-0.07059 -0.323469,-0.91665 -0.718822,-1.880127 -0.395352,-0.96347 -0.942095,-2.3805021 -1.214987,-3.1489546 -0.27289,-0.7684519 -0.798028,-2.1975239 -1.166971,-3.1757153 -0.663654,-1.7595686 -0.665685,-1.7843003 -0.1904,-2.320083 0.475284,-0.5357821 0.491098,-0.515333 1.483303,1.9182475 0.551594,1.3528907 1.366132,3.7801424 1.810087,5.3938934 0.443952,1.613751 0.907923,3.078128 1.031043,3.254174 0.165005,0.235924 0.465934,0.240515 1.144582,0.01745 0.506398,-0.166439 0.95423,-0.32729 0.99518,-0.357442 0.04094,-0.03017 -0.349469,-0.739416 -0.867597,-1.576145 C 35.60607,11.093848 34.858118,9.6407774 34.462084,8.7015285 33.770586,7.0615451 33.758521,6.9654205 34.157942,6.2782313 c 0.446242,-0.7677398 0.900261,-0.9450058 0.900261,-0.3514959 0,0.3562265 1.71131,4.4143306 2.195275,5.2057596 0.167318,0.273609 0.201765,-0.134223 0.108886,-1.2889975 -0.164494,-2.0450654 0.243282,-2.5973351 0.802928,-1.0874207 0.427773,1.1541155 0.480759,1.1709166 1.494727,0.4738845 0.586574,-0.4032272 0.846909,-0.4501923 1.142929,-0.2061842 0.46572,0.3838909 1.40973,2.4890919 2.179866,4.8612389 0.313479,0.96557 0.612062,1.708124 0.663518,1.650119 0.194314,-0.219048 -0.468562,-4.584914 -0.913206,-6.0145918 -0.372274,-1.1969849 -0.405316,-1.5966386 -0.1675,-2.0259208 0.425847,-0.7686846 0.777199,-0.6621665 1.209425,0.3666571 l 0.378708,0.9014348 0.165824,-0.996463 c 0.226485,-1.3609443 1.121065,-2.2370992 2.457526,-2.4069122 0.957028,-0.121596 1.198265,-0.032156 1.967965,0.7296715 0.991644,0.9815013 1.299548,1.7411822 1.598798,3.9446444 l 0.208725,1.536905 0.559042,-1.7118103 c 0.573724,-1.7567596 1.391765,-3.1783433 1.828954,-3.1783433 0.306717,0 0.101823,0.8059304 -0.702555,2.7635546 -0.34037,0.828347 -0.787972,2.148691 -0.994677,2.934092 -0.206705,0.785402 -0.644136,2.025301 -0.97207,2.75533 -0.327933,0.730031 -0.482816,1.327327 -0.34418,1.327327 0.138625,0 0.252058,-0.106562 0.252058,-0.236794 0,-0.519026 3.189774,-4.408268 4.03559,-4.92054 1.566266,-0.94861 1.320969,-0.225113 -0.730615,2.1549 -2.318892,2.690114 -2.880704,3.584993 -2.659208,4.235687 0.144531,0.424601 0.225345,0.406962 0.779772,-0.170196 0.34019,-0.354143 1.217635,-1.602397 1.949882,-2.773901 1.566441,-2.506106 1.876939,-2.833513 2.571683,-2.711737 0.481655,0.08443 0.439018,0.217707 -0.565578,1.767935 -0.597574,0.922142 -1.662467,2.385862 -2.366418,3.252707 -0.703951,0.866845 -1.279913,1.663567 -1.279913,1.770488 0,0.106912 0.641399,0.911506 1.425336,1.787963 1.774214,1.983614 3.574189,5.871601 3.04873,6.585332 -0.433139,0.588334 -1.137314,0.532479 -2.614934,-0.207409 -1.474553,-0.738355 -5.269204,-3.21241 -5.459503,-3.559516 -0.07357,-0.134202 -0.284098,-0.178984 -0.467823,-0.09951 -0.183723,0.07948 -0.572278,-0.196911 -0.863454,-0.614205 -0.485555,-0.695857 -0.496894,-0.799211 -0.136863,-1.247685 0.286772,-0.357213 0.326947,-0.627972 0.149085,-1.004765 -0.133912,-0.283676 -0.547677,-1.521752 -0.919492,-2.751277 -0.371814,-1.229523 -0.788255,-2.361243 -0.925427,-2.514932 -0.166953,-0.187056 -0.198255,-0.115765 -0.0947,0.215632 0.0851,0.272287 0.344615,2.129642 0.576724,4.127453 0.305111,2.626156 0.347013,3.716936 0.151253,3.937607 -0.440381,0.496436 -0.768332,0.03589 -0.976374,-1.371136 -0.17402,-1.176923 -0.211883,-0.985949 -0.347552,1.752996 -0.08373,1.690596 -0.234864,3.363663 -0.335832,3.717927 -0.331531,1.163251 -0.739845,0.470428 -1.050276,-1.782101 -0.192818,-1.39911 -0.571003,-2.762655 -1.026498,-3.701033 l -0.721204,-1.485772 -0.156353,1.066617 c -0.08599,0.586638 -0.157572,2.09374 -0.159066,3.349117 -0.0031,2.524011 -0.134696,3.166523 -0.648961,3.166523 -0.277463,0 -0.345306,-0.7145 -0.345306,-3.636649 v -3.636649 l -0.973201,0.726012 -0.973202,0.726013 0.356871,1.140228 c 0.397624,1.270438 0.522445,3.022888 0.250623,3.518687 -0.357626,0.652306 -0.821072,0.295018 -1.120147,-0.863563 -0.168611,-0.653184 -0.967106,-2.736617 -1.77443,-4.62985 -0.807324,-1.893234 -1.467862,-3.602764 -1.467862,-3.798953 0,-0.539047 -0.837162,-1.28164 -1.444855,-1.28164 -0.65345,0 -0.652594,-0.02102 -0.05951,1.45957 1.705527,4.257751 2.365137,7.351941 1.699936,7.974281 -0.297195,0.278045 -0.427216,0.08076 -0.781315,-1.185562 -0.799224,-2.858161 -4.723886,-11.856824 -5.023776,-11.518763 -0.05736,0.06466 0.102784,0.669785 0.35588,1.344723 0.496268,1.323418 2.467063,8.081099 3.087952,10.588307 0.627597,2.534301 0.703986,3.073808 0.435217,3.073808 -0.13894,0 -0.252608,-0.125743 -0.252608,-0.279437 0,-0.153689 -0.120434,-0.248 -0.267641,-0.209578 -0.147208,0.03842 -0.598275,-1.059612 -1.002381,-2.440075 -0.404107,-1.380464 -0.937743,-2.763678 -1.185861,-3.073811 -0.248117,-0.31013 -0.863177,-1.25548 -1.366801,-2.100779 l -0.91568,-1.536904 0.17311,1.117749 c 0.09521,0.614762 0.616075,2.103035 1.157484,3.307276 1.063867,2.366322 1.312679,3.877244 0.663429,4.028688 -0.268774,0.06269 -0.568777,-0.387387 -0.968217,-1.452568 -0.706629,-1.884367 -2.484553,-4.654822 -2.484553,-3.871563 0,0.522144 -0.432102,1.201695 -0.764115,1.201695 -0.312189,0 -4.923183,-8.570745 -4.942746,-9.187393 -0.0031,-0.09556 -0.225138,-0.488121 -0.493571,-0.872348 -0.837773,-1.199157 0.473079,2.724318 2.225354,6.660653 1.469834,3.301855 1.516409,3.469668 1.105122,3.981981 -0.470935,0.586613 -0.848314,0.696425 -0.848314,0.246848 0,-0.158411 -0.463784,-1.195817 -1.03063,-2.305359 -0.566839,-1.109542 -1.326889,-2.646083 -1.688996,-3.414534 -1.327339,-2.816857 -2.290028,-4.610714 -2.474378,-4.610714 -0.103949,0 0.288613,1.03741 0.872354,2.305358 1.751091,3.803563 2.02193,6.155602 0.750252,6.515398 -0.799258,0.226135 -1.917304,-0.473717 -2.828362,-1.770443 -0.609607,-0.86766 -0.920785,-1.075584 -1.64433,-1.098704 -0.490838,-0.0156 -1.164524,-0.229492 -1.497083,-0.475129 -0.915974,-0.676562 -1.20786,-0.53626 -0.669559,0.321841 0.594462,0.947623 2.739745,5.794352 3.518932,7.950137 0.476646,1.318746 0.52088,1.667466 0.256983,2.025919 -0.175332,0.23814 -0.522733,0.432983 -0.772025,0.432983 -0.249291,0 -1.902695,-1.439269 -3.674231,-3.198374 z m 1.830066,-1.838522 c -0.222839,-0.485773 -0.470635,-0.809416 -0.550658,-0.719207 -0.08002,0.09021 0.06667,0.60814 0.325992,1.150959 0.259318,0.542819 0.507114,0.866462 0.550657,0.719207 0.04355,-0.147262 -0.103148,-0.665186 -0.325991,-1.150959 z m 40.518008,-0.62171 c -0.543375,-0.960565 -1.464689,-2.353791 -2.047374,-3.09606 l -1.059424,-1.349578 -1.029416,0.930422 c -0.566175,0.511732 -1.034955,0.993294 -1.041732,1.070141 -0.02808,0.318966 5.452344,4.143794 5.988959,4.179715 0.09732,0.0065 -0.267643,-0.774074 -0.811013,-1.73464 z M 42.835469,19.342131 c -0.407558,-2.64202 -1.184148,-5.346418 -2.087943,-7.271046 -0.375943,-0.800573 -0.727308,-1.603623 -0.780809,-1.784554 -0.07178,-0.242739 -0.243029,-0.227432 -0.653338,0.05839 -0.733204,0.510769 -0.633841,0.917195 1.324427,5.417238 0.869451,1.997976 1.748804,4.104235 1.954117,4.680574 0.205312,0.576338 0.418674,1.04789 0.474135,1.04789 0.05546,0 -0.0483,-0.966826 -0.230589,-2.148496 z m -4.346668,1.298044 c 0.701622,-0.482208 0.779567,-0.634455 0.511342,-0.998785 -0.347294,-0.471728 -2.694636,-1.885472 -2.846444,-1.714341 -0.175058,0.197362 1.008816,3.283041 1.259411,3.282544 0.136335,-2.69e-4 0.620399,-0.256506 1.075691,-0.569418 z M 18.064227,19.045554 c -0.978221,-2.505473 -2.099516,-4.48474 -3.552207,-6.270228 -0.734315,-0.902539 -1.376033,-1.59486 -1.426039,-1.538489 -0.198672,0.22396 0.876636,3.334501 1.67072,4.832885 1.006695,1.899569 3.109183,4.582595 3.591035,4.582595 0.26031,0 0.191445,-0.390291 -0.283509,-1.606763 z m 31.106169,0.649419 c 0.560525,-0.672599 0.502462,-1.657476 -0.06031,-1.023064 -0.394634,0.444867 -0.776569,0.371384 -0.440726,-0.08479 0.225668,-0.306525 0.04314,-0.793352 -0.864505,-2.305358 -1.757471,-2.927802 -1.929697,-2.969977 -0.978863,-0.239699 0.480887,1.380851 0.874341,2.597628 0.874341,2.703946 0,0.453076 0.500947,1.626878 0.694307,1.626878 0.115956,0 0.465042,-0.305058 0.775765,-0.677908 z m -38.50097,-1.409151 c -0.226115,-0.389021 -0.524442,-0.707314 -0.662946,-0.707314 -0.1385017,0 -0.02439,0.275203 0.253599,0.611566 0.277985,0.336361 0.505426,0.73456 0.505426,0.884885 0,0.15032 0.07089,0.19342 0.157518,0.09574 0.08663,-0.09767 -0.02749,-0.495857 -0.253599,-0.884882 z m 18.439547,0.410435 c -0.145933,-0.307381 -0.321101,-0.558873 -0.389271,-0.558873 -0.06816,0 -0.0045,0.251492 0.141381,0.558873 0.145933,0.307381 0.321101,0.558875 0.38927,0.558875 0.06816,0 0.0045,-0.251494 -0.14138,-0.558875 z M 23.56565,16.027282 C 23.252302,14.959325 22.726028,13.04876 22.396151,11.781584 l -0.599776,-2.3039611 -1.047078,-0.00147 -1.047078,-0.00147 0.765979,1.4670461 c 0.42129,0.806875 0.950877,1.781411 1.176865,2.165638 0.225986,0.384226 0.844856,1.673462 1.375266,2.864969 0.530411,1.191509 0.998282,2.128164 1.039714,2.081459 0.04144,-0.04671 -0.181051,-0.958702 -0.494393,-2.026659 z m -9.532198,1.211245 c -0.177864,-0.200523 -0.29333,-0.217014 -0.29333,-0.0419 0,0.372988 0.293151,0.703452 0.458587,0.516958 0.07044,-0.07939 -0.004,-0.293176 -0.165259,-0.475042 z m 14.377312,0 c -0.177863,-0.200523 -0.293329,-0.217014 -0.293329,-0.0419 0,0.372988 0.293151,0.703452 0.458587,0.516958 0.07043,-0.07939 -0.004,-0.293176 -0.165259,-0.475042 z m 11.357252,0.326105 c 0,-0.49256 -0.66352,-1.773812 -1.204308,-2.325516 -0.412392,-0.420713 -0.728152,-0.48509 -1.63085,-0.332489 -0.615694,0.104082 -1.174961,0.290504 -1.242819,0.414274 -0.06787,0.123772 0.738268,0.732664 1.791386,1.353094 2.120758,1.249414 2.286591,1.314007 2.286591,0.890637 z M 11.54675,14.574558 C 9.3967719,10.711333 8.5246502,9.3583334 8.8899747,10.452859 c 0.1026016,0.307381 0.3429334,1.222879 0.5340821,2.034443 0.6844422,2.905911 1.5552832,4.127375 3.0163692,4.230834 0.171361,0.01212 -0.230798,-0.952477 -0.893676,-2.143578 z m 16.053263,1.775895 c 0.222656,-0.302437 0.136316,-0.803218 -0.385471,-2.235498 -0.369824,-1.015165 -0.739649,-1.845753 -0.821834,-1.845753 -0.08218,0 0.02127,1.005812 0.229909,2.235139 0.208635,1.229325 0.449338,2.2353 0.534897,2.235497 0.08555,1.97e-4 0.284684,-0.175023 0.442499,-0.389385 z m 4.815038,-1.217021 c 0.06206,-0.115272 -0.280268,-0.712564 -0.760727,-1.327325 -0.48046,-0.614763 -0.747842,-0.843285 -0.594185,-0.507827 0.153657,0.335457 0.38826,0.932755 0.521338,1.327327 0.236423,0.700996 0.607772,0.927227 0.833574,0.507825 z M 49.124036,12.293551 C 48.951817,9.4610935 48.509296,7.9098431 47.63767,7.0830616 c -0.865919,-0.82137 -1.564397,-0.873082 -1.9117,-0.1415333 -0.569179,1.1988949 -0.37029,1.8466819 1.919626,6.2522857 1.35788,2.612442 1.680087,2.416241 1.47844,-0.900256 z M 18.363155,11.081593 C 18.099228,9.4976356 17.826078,9.1721146 17.278681,9.7891904 c -0.206566,0.2328566 -0.07497,0.6617006 0.507535,1.6540446 0.432521,0.736828 0.79951,1.318409 0.815533,1.292403 0.01603,-0.02602 -0.09135,-0.770325 -0.238594,-1.654045 z M 15.986306,5.397265 C 15.265894,4.7588655 14.131984,4.1678049 12.701834,3.685205 11.500516,3.2798219 10.51762,2.7973385 10.51762,2.6130186 c 0,-0.7273908 0.74165,-1.0408544 2.091164,-0.8838436 1.585111,0.1844221 7.475438,-0.2110459 9.920849,-0.6660713 0.948639,-0.1765169 2.332567,-0.55665773 3.075395,-0.84475873 1.67502,-0.64964552 1.568746,-0.66543952 1.475361,0.21926524 -0.167628,1.58802029 -3.325033,2.61016159 -8.062828,2.61016159 -3.080398,0 -4.209535,0.2934805 -2.612679,0.6790758 1.121976,0.2709248 7.66997,0.7095248 10.659043,0.7139666 l 2.788702,0.00414 v 0.8383107 0.8383112 l -1.673222,-0.00822 C 26.363993,6.1044977 21.172453,5.7047198 18.883729,5.3975297 17.540123,5.21719 17.458392,5.2404743 17.458392,5.8035713 c 0,0.7925269 -0.173037,0.7447548 -1.472086,-0.406407 z"
     style="fill:#00ff00;stroke-width:1.93389"
     id="path1-3" /></svg>
