<?xml version="1.0" encoding="UTF-8" standalone="no"?>
<svg
   width="157"
   height="134"
   viewBox="0 0 57 34"
   fill="white"
   version="1.1"
   id="svg1"
   sodipodi:docname="botoplogo3.svg"
   inkscape:version="1.4.3 (0d15f75, 2025-12-25)"
   xmlns:inkscape="http://www.inkscape.org/namespaces/inkscape"
   xmlns:sodipodi="http://sodipodi.sourceforge.net/DTD/sodipodi-0.dtd"
   xmlns="http://www.w3.org/2000/svg"
   xmlns:svg="http://www.w3.org/2000/svg">
  <defs
     id="defs1" />
  <sodipodi:namedview
     id="namedview1"
     pagecolor="#ffffff"
     bordercolor="#000000"
     borderopacity="0.25"
     inkscape:showpageshadow="2"
     inkscape:pageopacity="0.0"
     inkscape:pagecheckerboard="0"
     inkscape:deskcolor="#d1d1d1"
     inkscape:zoom="2.7425373"
     inkscape:cx="78.576871"
     inkscape:cy="96.078912"
     inkscape:window-width="1920"
     inkscape:window-height="974"
     inkscape:window-x="-11"
     inkscape:window-y="-11"
     inkscape:window-maximized="1"
     inkscape:current-layer="svg1" />
  <path
     style="fill:#ffffff;stroke:none;stroke-width:0.982255"
     d="m 34.368209,5.1033323 -1.242129,2.2458304 1.115035,4.7730133 3.090935,11.485388 -5.927692,-1.914231 v -0.319035 c 4.08126,-2.817579 0.604585,-8.58293 -0.2117,-13.0805837 -2.587658,1.8261947 -0.728791,5.7220867 0.08918,8.6140397 0.260668,0.921606 0.880439,2.347639 0.398413,3.307323 -2.111459,4.203771 -2.980895,-3.83143 -4.70909,-2.429465 -1.426321,1.157076 0.04174,3.363814 0.622532,4.545803 -2.760769,-1.16963 -5.670541,-1.357676 -8.468135,-0.319035 v -0.319047 c 2.527493,-1.585792 7.521896,-4.111937 8.468135,-8.294994 -2.902274,-1.398541 -8.048612,-2.313899 -8.891541,-7.6569247 -3.223394,3.4600022 -0.55815,8.3890587 0.423406,12.7615377 2.111293,-1.50165 0.993262,-3.857908 0.423407,-6.380776 l 6.139398,3.509429 -8.044728,6.061728 -4.234068,-16.2709664 c -2.083347,0.8844668 -1.354695,3.1620569 -0.724952,5.4236594 1.147825,4.122213 2.59523,8.398128 3.265393,12.761538 L 10.23402,21.374298 c 3.966975,-3.08685 0.518929,-8.434242 -0.211704,-13.0805837 -3.2160709,2.1677777 0.270726,8.4599377 0.846813,12.1234697 L 9.175502,21.693333 7.0584688,13.398339 C 4.9917997,15.353555 5.6588655,17.426352 6.4233592,20.417184 L 3.2478074,20.736216 C 6.619139,15.609201 2.8573978,11.669429 2.8244014,5.7414143 -1.1221159,9.9663117 3.5715283,13.710523 3.3719551,18.81732 3.2812691,21.137923 0.99191966,21.761378 0.28396109,23.607564 5.7435634,21.72138 10.204717,25.093008 15.526603,26.141415 c 1.066509,0.210103 1.686298,-1.168446 2.540441,-1.852445 0.974341,-0.780246 2.506902,-0.961637 3.598958,-0.917721 1.744998,0.07018 3.695236,0.527218 5.292583,1.612415 0.917767,0.623515 1.97416,2.209669 2.963851,2.400922 1.444283,0.279098 1.562151,-2.138392 1.058512,-3.457975 2.665702,0.75689 6.56797,4.195621 8.25643,-0.319047 1.744175,1.132634 4.278126,5.188767 5.50429,1.276163 l -4.022361,-3.190394 c 0.841929,-1.952998 1.132644,-3.102068 0.846811,-5.423646 h 0.2117 c 0.922961,3.121504 2.938166,6.51673 4.568449,8.884335 0.829495,1.204645 1.924629,0.496289 2.118991,-1.227665 C 48.647913,22.306285 47.779379,20.258906 47.3713,18.821985 46.236472,14.826046 44.790509,11.025862 43.683149,7.0175637 41.185532,9.7084371 44.043075,14.569873 44.953369,17.86487 H 44.741668 L 39.660788,6.6985292 C 36.953926,8.625072 40.192224,16.833646 40.295897,20.417184 l -1.481918,0.957114 C 37.733968,16.372289 36.47399,9.3007856 34.368209,5.1033323 M 54.480022,5.4223666 C 53.539635,6.8502808 52.921576,8.224416 51.51618,8.2937143 L 51.304472,6.0604487 c -0.615347,0.6499467 -1.188567,1.6560772 -1.905331,2.0395382 -0.986698,0.527858 -4.190286,-1.2638742 -4.190286,1.761841 0,1.1166801 1.165418,2.0173771 1.641516,2.6717131 0.991892,1.363221 1.774253,2.974276 1.91366,5.012295 2.078441,-2.232746 1.31562,-4.591225 -0.2117,-7.018845 1.867987,0.09164 1.867459,2.19456 2.334132,4.466532 0.938379,4.568507 2.2431,9.058758 2.958449,13.718666 l 1.345697,-2.552312 -0.922288,-4.785579 -2.32874,-10.847307 c 2.446088,0.120093 3.172062,8.057739 3.59896,11.166342 2.638881,-2.835136 0.223207,-7.052498 -0.155675,-10.847307 C 55.258069,9.5961274 56.104903,8.5020068 55.889586,7.3910047 55.717116,6.5011142 54.953207,5.8957939 54.480022,5.4223666 M 45.165079,17.86487 44.953371,18.183918 Z"
     id="path3" />
</svg>
