<?xml version="1.0" encoding="UTF-8" standalone="no"?>
<svg
   width="157"
   height="134"
   viewBox="0 0 57 34"
   fill="white"
   version="1.1"
   id="svg1"
   sodipodi:docname="botoplogo4.svg"
   inkscape:version="1.4.3 (0d15f75, 2025-12-25)"
   xmlns:inkscape="http://www.inkscape.org/namespaces/inkscape"
   xmlns:sodipodi="http://sodipodi.sourceforge.net/DTD/sodipodi-0.dtd"
   xmlns="http://www.w3.org/2000/svg"
   xmlns:svg="http://www.w3.org/2000/svg">
  <defs
     id="defs1" />
  <sodipodi:namedview
     id="namedview1"
     pagecolor="#ffffff"
     bordercolor="#000000"
     borderopacity="0.25"
     inkscape:showpageshadow="2"
     inkscape:pageopacity="0.0"
     inkscape:pagecheckerboard="0"
     inkscape:deskcolor="#d1d1d1"
     inkscape:zoom="5.4850746"
     inkscape:cx="78.303401"
     inkscape:cy="81.402721"
     inkscape:window-width="1920"
     inkscape:window-height="974"
     inkscape:window-x="-11"
     inkscape:window-y="-11"
     inkscape:window-maximized="1"
     inkscape:current-layer="svg1" />
  <path
     style="fill:#ffffff;stroke-width:0.330859"
     d="m 8.1809451,39.818675 c -0.130001,-0.129996 -0.0975,-0.301981 0.134869,-0.713717 0.201635,-0.35728 0.584747,-0.775113 1.497509,-1.633231 0.4401399,-0.413787 0.4604129,-0.42527 1.2885169,-0.729949 2.111174,-0.776761 4.873206,-1.432556 6.107945,-1.45024 0.588067,-0.0084 1.384836,-0.07727 1.605929,-0.138791 0.180901,-0.0503 0.147932,-0.361485 -0.06688,-0.630974 -0.110224,-0.138285 -0.301981,-0.421102 -0.426142,-0.628492 -0.376836,-0.629485 -0.509736,-0.769578 -0.687687,-0.72491 -0.169091,0.04243 -1.866435,1.117688 -2.191953,1.388582 -0.269658,0.224409 -0.463684,0.183609 -0.551691,-0.115993 -0.102004,-0.347258 -0.141673,-0.387093 -0.431632,-0.433456 -0.14417,-0.02304 -0.409265,-0.120152 -0.589102,-0.215773 l -0.326976,-0.173859 -0.303754,0.257987 c -1.516865,1.288343 -2.36856,1.679033 -3.6735769,1.685149 -0.92131,0.0047 -2.158513,-0.309773 -3.1392792,-0.796974 C 5.8180038,34.461491 4.9439847,33.966086 4.8915312,33.893684 4.8727704,33.867739 4.7760187,33.803767 4.6765423,33.751362 4.361443,33.585465 3.2969617,32.614201 2.8573338,32.091474 2.45318,31.610924 2.0860627,30.97003 1.8501446,30.333193 1.4284289,29.194796 1.2249316,28.122591 1.3345152,27.616439 1.6141826,26.324684 2.0450567,25.158607 2.4754635,24.528686 2.7223439,24.167369 2.9481444,23.950964 3.4913315,23.555112 4.1797187,23.053441 4.2014299,23.043542 5.0013003,22.866579 5.4476476,22.767829 5.8527437,22.675604 5.901519,22.661636 6.000668,22.633246 5.837996,22.321513 5.2997772,21.508497 4.3519108,20.076691 3.3540347,18.181372 3.1439303,17.413787 2.9076311,16.550497 3.1570343,15.2254 3.6005048,14.988065 3.6680458,14.951915 3.8354478,14.740652 3.9725189,14.518579 4.291982,14.001007 4.840522,13.617599 5.328648,13.570696 5.6315458,13.541576 5.6522015,13.529266 5.538048,13.4458 5.46839,13.39487 5.3683015,13.3532 5.3156185,13.3532 c -0.052686,0 -0.4444853,-0.168907 -0.8706707,-0.375349 -0.4261853,-0.206447 -0.8110097,-0.375354 -0.8551693,-0.375354 -0.044153,0 -0.3867773,-0.160281 -0.7613812,-0.356182 l -0.6810955,-0.35618 0.029972,-0.361562 c 0.022432,-0.270298 0.084672,-0.434479 0.2466574,-0.650434 0.3166018,-0.422103 0.5747808,-0.86271 0.5833538,-0.9955629 0.00806,-0.124363 0.2239582,-0.425438 0.3682282,-0.513416 0.053482,-0.03262 0.214026,0.02753 0.4110062,0.153915 0.4188234,0.268757 1.4429197,0.7481899 1.7139785,0.8024009 L 5.7117481,10.367728 5.500088,9.8642901 C 5.3836763,9.5873981 5.1239162,9.0230401 4.9228439,8.6101541 4.5680874,7.8817041 4.4644486,7.6890841 3.7661855,6.4604324 3.4225524,5.8557785 2.4710398,4.5909948 1.8563676,3.9218386 1.6210612,3.6656724 1.3706581,3.4761385 1.1226004,3.3664359 0.62987547,3.1485285 0.58623197,3.0671844 0.84464607,2.8483872 1.0856501,2.6443335 1.9449687,1.5190102 2.0294364,1.2968402 c 0.073957,-0.1945291 0.2658314,-0.294026 0.4393798,-0.227848 0.075071,0.028624 0.3295919,0.2246138 0.5656027,0.4355301 0.2360116,0.2109155 0.4566213,0.3834832 0.4902428,0.3834832 0.063663,0 0.5316767,0.2699011 1.1440129,0.6597496 0.19648,0.1250905 0.3864101,0.2274377 0.4220594,0.2274377 0.035658,0 0.3355499,0.1791513 0.6664419,0.3981144 0.7253441,0.4799894 1.3262092,0.8433883 2.5466042,1.540164 0.506721,0.2893082 1.439504,0.8775035 2.0728519,1.307101 0.633348,0.4295975 1.173692,0.7810861 1.200764,0.7810861 0.02707,0 0.04105,-0.2380058 0.03107,-0.5289006 -0.02745,-0.7996587 0.21364,-1.6337228 0.682197,-2.3600447 0.374488,-0.5805046 0.833016,-1.0010298 1.091492,-1.0010298 0.317366,0 0.791331,0.260751 1.357325,0.7467303 0.330401,0.283693 0.634744,0.5276839 0.676331,0.5422017 0.04159,0.014518 -0.02913,-0.1167947 -0.15714,-0.2918061 -0.406923,-0.5563525 -0.40734,-0.4984244 0.0066,-0.8492526 0.206435,-0.1751678 0.562216,-0.4950712 0.790614,-0.7108965 0.228409,-0.2158253 0.462568,-0.3924093 0.520367,-0.3924093 0.05779,0 0.336365,0.1689064 0.619051,0.3753485 0.282677,0.2064411 0.528722,0.3753475 0.546762,0.3753475 0.01808,0 0.0532,-0.135963 0.07812,-0.302141 0.06182,-0.4121255 0.49075,-0.9309151 1.102121,-1.332939 L 19.40586,0.75385541 18.990499,0.63880371 c -0.228445,-0.0632792 -0.553552,-0.1450878 -0.722465,-0.1817983 -0.168903,-0.0367067 -0.522071,-0.1291593 -0.784816,-0.2054408 -0.262746,-0.0762796 -0.754114,-0.1720938 -1.091921,-0.2129142 -0.337817,-0.0408186 -0.829186,-0.1518952 -1.091921,-0.2468345 -0.262745,-0.0949394 -0.562546,-0.1877516 -0.666227,-0.2062501 -0.267598,-0.04774 -0.287718,-0.1275062 -0.07718,-0.3059541 0.337492,-0.28605241 0.546019,-0.49534371 0.664934,-0.66737471 0.06482,-0.093838 0.255374,-0.3548755 0.423369,-0.5800849 0.167986,-0.2252086 0.323926,-0.4632134 0.346518,-0.5288997 0.06847,-0.199126 0.258446,-0.184019 1.663044,0.1322661 0.581792,0.1310054 1.211361,0.2457818 1.399035,0.2550573 0.187674,0.00927 0.458811,0.055786 0.602538,0.103355 0.55372,0.1832734 3.034757,0.6829753 3.402836,0.68536 0.21567,0.0014 0.302889,0.1060777 0.195841,0.2350563 -0.04168,0.050269 -0.280185,0.21015211 -0.52993,0.35529791 -0.484512,0.2815846 -1.174232,0.8704711 -1.103778,0.9424076 0.06491,0.06622 0.724553,0.066024 2.96035,-8.926e-4 3.625971,-0.1085018 6.823169,-0.063841 7.018224,0.09804 0.05723,0.047478 0.209975,0.061546 0.394155,0.036304 0.165401,-0.022667 0.433213,-0.00553 0.59512,0.038046 0.244949,0.065958 0.280672,0.09579 0.212729,0.1776471 -0.04487,0.05411 -0.14132,0.098379 -0.214265,0.098379 -0.194512,0 -0.349469,0.094751 -1.196272,0.73147619 -0.709417,0.5334199 -1.372425,1.1934083 -1.470846,1.4641336 -0.0237,0.065031 -0.09468,0.1033587 -0.165101,0.089093 -0.954835,-0.1934538 -3.501736,-0.3619021 -3.501736,-0.2316011 0,0.031733 0.06154,0.090638 0.136768,0.1308968 0.349018,0.1867886 1.041239,0.9048363 1.569558,1.6281273 0.319159,0.4369351 0.709811,0.963334 0.868112,1.169776 0.256048,0.3339164 0.762178,1.017879 1.535643,2.0751782 0.453594,0.620065 0.976218,1.487365 1.484231,2.4631259 0.273591,0.525489 0.519758,0.986143 0.547042,1.023679 0.0636,0.08742 0.273685,0.716219 0.273685,0.818951 0,0.04293 -0.184152,0.290824 -0.409235,0.550866 -0.426909,0.49323 -0.471886,0.575171 -0.315693,0.575171 0.0517,0 0.134229,0.04846 0.183393,0.107691 0.04917,0.05923 0.239892,0.183963 0.423856,0.277189 1.049726,0.531932 1.709876,1.121257 1.495808,1.335323 -0.208242,0.208249 -1.700987,0.96928 -2.708901,1.381057 -0.337817,0.13801 -1.082555,0.483168 -1.654971,0.767019 -0.859832,0.426364 -1.058558,0.50132 -1.143108,0.431148 -0.05629,-0.04672 -0.102346,-0.139781 -0.102346,-0.20681 0,-0.06703 0.398651,-0.5316 0.885889,-1.032381 0.885074,-0.909692 0.885674,-0.910529 0.665386,-0.928855 -0.121266,-0.01009 -0.527597,-0.06442 -0.902945,-0.120736 -0.904013,-0.13564 -1.069086,-0.155799 -1.672008,-0.204221 -0.281515,-0.0226 -0.818938,-0.08903 -1.194295,-0.147599 -0.375347,-0.05857 -0.943483,-0.117511 -1.262529,-0.130983 -0.319047,-0.01347 -0.666248,-0.06009 -0.771554,-0.103571 -0.457266,-0.188841 -0.311132,0.252311 0.33554,1.012951 0.221037,0.259996 0.586147,0.726774 0.811361,1.037291 0.225205,0.310518 0.580256,0.799738 0.788995,1.087164 0.755434,1.040213 1.067774,1.485463 1.324084,1.887492 0.143577,0.225209 0.435433,0.624442 0.648565,0.887187 0.38196,0.470858 0.935718,1.245933 1.462744,2.047355 0.148101,0.225208 0.417496,0.612819 0.598651,0.861354 0.181164,0.248537 0.392263,0.594029 0.469114,0.767759 l 0.139728,0.315874 0.355088,0.0049 c 0.195307,0.0026 0.866519,6.51e-4 1.491593,-0.0042 0.641408,-0.0052 1.153645,0.0187 1.17589,0.05468 0.02164,0.03507 0.179329,0.06656 0.350358,0.06999 0.192704,0.0038 0.294807,-0.01988 0.268496,-0.06246 -0.02782,-0.04509 0.317314,-0.06622 1.004093,-0.06149 0.57561,0.0039 1.3076,-0.01026 1.626646,-0.03159 0.319047,-0.02134 0.785819,-0.05208 1.037259,-0.0683 0.786747,-0.05076 0.904023,-0.198267 0.771545,-0.970451 -0.05863,-0.341849 -0.181164,-0.670184 -0.407427,-1.091922 -0.340505,-0.634672 -0.946808,-1.520629 -1.10391,-1.613091 -0.155838,-0.09171 -0.103751,-0.235333 0.112696,-0.310788 0.345619,-0.120486 1.182278,-0.797207 1.36421,-1.103437 0.261612,-0.440339 0.384236,-0.545042 0.631274,-0.539067 0.121988,0.003 0.351763,0.08741 0.510598,0.187672 0.528759,0.333777 2.057012,1.240111 2.091077,1.240111 0.01845,0 0.350424,0.149843 0.737704,0.332983 0.387281,0.183143 1.0266,0.477981 1.420718,0.655199 0.394118,0.177217 0.992965,0.468654 1.330782,0.647635 0.337817,0.178982 0.982728,0.489747 1.433147,0.690585 1.762852,0.786037 4.867669,2.975118 6.380927,4.49892 1.261752,1.27055 2.497914,2.837851 2.905201,3.683437 0.217609,0.451777 0.238121,0.538575 0.177465,0.750695 -0.03775,0.131925 -0.08973,0.439479 -0.11545,0.683463 -0.0296,0.280354 -0.09254,0.493814 -0.171133,0.580078 -0.06837,0.07512 -0.190193,0.305399 -0.270763,0.511843 -0.08055,0.206435 -0.236425,0.516227 -0.346339,0.688409 -0.251253,0.393575 -1.255936,1.300313 -1.71456,1.547398 -0.439188,0.236622 -0.563667,0.310504 -0.678939,0.402997 -0.05095,0.04084 -0.166356,0.09696 -0.256526,0.124666 -0.0902,0.02772 -0.314166,0.13895 -0.497784,0.247206 -0.183609,0.108266 -0.386232,0.19749 -0.45027,0.198277 -0.06406,6.46e-4 -0.377455,0.08168 -0.696501,0.179797 -0.889252,0.273422 -1.831751,0.413272 -3.105154,0.460759 -1.16068,0.04327 -1.772575,-0.01133 -3.401104,-0.303423 -1.645698,-0.29519 -4.190491,-1.044724 -5.053311,-1.488381 -0.4946,-0.254324 -1.159771,-0.853181 -1.348044,-1.213664 -0.09095,-0.174093 -0.147895,-0.210125 -0.307104,-0.194221 -0.107507,0.01077 -0.410434,0.04018 -0.673179,0.06556 -0.625092,0.06023 -1.0164,0.156709 -1.426937,0.351904 -0.24598,0.116957 -0.401939,0.148588 -0.58685,0.119027 -0.308172,-0.04927 -0.654146,0.111292 -0.765269,0.355173 -0.04383,0.09626 -0.123973,0.161092 -0.184714,0.149478 -0.0606,-0.01161 -0.318803,-0.439882 -0.593368,-0.984171 C 33.51807,33.389319 33.055587,32.57971 32.75769,32.120205 l -0.541638,-0.835479 -0.610143,-0.02117 c -1.055608,-0.03672 -4.151742,-0.119861 -4.316871,-0.115946 -0.08692,0.0019 -0.172426,0.01817 -0.190081,0.03587 -0.0326,0.0326 1.051524,1.687397 1.155322,1.763508 0.0532,0.03896 0.302983,0.376368 0.801123,1.081927 0.160296,0.22704 0.197967,0.331644 0.148148,0.411408 -0.09001,0.144185 0.197396,0.274968 1.752774,0.797508 0.509652,0.171226 1.155837,0.417908 1.435975,0.548194 0.280139,0.130286 0.710083,0.316611 0.955435,0.41405 0.329059,0.130688 0.548512,0.281187 0.836509,0.57367 0.427237,0.433897 0.5218,0.664647 0.672421,1.640687 0.08879,0.575544 0.03709,0.8263 -0.232717,1.127925 -0.190034,0.212467 -0.332993,0.193631 -0.776846,-0.102365 -0.603793,-0.402659 -1.058118,-0.61447 -2.339492,-1.090665 -2.282001,-0.848059 -3.547903,-1.168707 -5.596101,-1.41744 -0.431658,-0.05245 -1.168706,-0.146864 -1.637886,-0.209881 -0.694178,-0.0932 -1.374232,-0.112762 -3.65112,-0.104857 -1.53893,0.0056 -3.059091,0.04074 -3.378137,0.07868 -0.873451,0.103863 -2.369481,0.386296 -3.012089,0.56865 -0.313932,0.08907 -0.831822,0.230207 -1.150869,0.313614 -0.760793,0.198876 -2.534141,0.918418 -2.975728,1.207418 -0.1915599,0.125368 -0.3787399,0.227939 -0.4159549,0.227939 -0.03721,0 -0.126169,0.0651 -0.197673,0.144626 -0.169579,0.188658 -1.017263,0.742556 -1.136402,0.742556 -0.05079,0 -0.129204,-0.03681 -0.174244,-0.08186 z M 50.529434,34.746697 c 0.655298,-0.168332 1.171029,-0.354273 1.705183,-0.614761 0.421168,-0.205386 0.797368,-0.373428 0.836004,-0.373428 0.03859,0 0.0709,-0.02304 0.07175,-0.05114 7.21e-4,-0.02819 0.139606,-0.143315 0.308397,-0.255917 0.349918,-0.233438 0.677347,-0.61271 0.816522,-0.945796 0.07877,-0.188498 0.0798,-0.250242 0.0056,-0.357599 -0.04908,-0.07137 -0.129003,-0.252601 -0.177568,-0.402735 -0.103105,-0.318737 -0.227705,-0.525359 -0.510907,-0.847243 -0.378822,-0.430572 -1.59245,-1.586755 -1.8897,-1.800271 -0.161945,-0.116311 -0.404103,-0.305259 -0.538135,-0.419875 -0.505849,-0.432539 -0.580518,-0.487023 -0.781558,-0.570271 -0.113482,-0.04702 -0.343801,-0.209507 -0.511843,-0.361148 -0.168042,-0.151639 -0.267129,-0.256472 -0.220213,-0.23296 0.138829,0.06956 0.09714,-0.06158 -0.04852,-0.152523 -0.07362,-0.04595 -0.188751,-0.0658 -0.255917,-0.04411 -0.102337,0.03305 -0.105541,0.02753 -0.01976,-0.03419 0.05629,-0.0405 0.07933,-0.07411 0.05114,-0.07468 -0.02819,-6.51e-4 -0.065,-0.0026 -0.08196,-0.0046 -0.01686,-0.002 -0.127654,-0.09411 -0.246082,-0.204735 -0.118419,-0.110626 -0.259149,-0.201135 -0.312734,-0.201135 -0.09788,0 -0.65247,-0.270331 -0.843581,-0.411201 -0.08092,-0.05966 -0.06659,-0.06611 0.06828,-0.03081 0.09383,0.02455 -0.18256,-0.16968 -0.614209,-0.431641 -0.431648,-0.261964 -0.977398,-0.594827 -1.212775,-0.739697 -0.235376,-0.14487 -0.485571,-0.266735 -0.555996,-0.270808 -0.07043,-0.004 -0.220391,-0.07317 -0.333274,-0.153552 -0.112883,-0.08038 -0.235667,-0.146146 -0.272852,-0.146146 -0.03718,0 -0.138331,-0.07348 -0.224764,-0.163285 -0.08645,-0.08981 -0.197153,-0.147947 -0.246026,-0.129191 -0.04983,0.01913 -0.08889,-0.01313 -0.08889,-0.07343 0,-0.06754 -0.03803,-0.09292 -0.102365,-0.06824 -0.05629,0.02161 -0.102374,0.0061 -0.102374,-0.03451 0,-0.07786 -0.371779,-0.296976 -0.420765,-0.247986 -0.01574,0.01575 -0.377371,-0.139592 -0.803634,-0.345168 -0.426254,-0.205576 -0.788086,-0.360701 -0.804065,-0.344722 -0.01602,0.01598 0.0798,0.23944 0.212898,0.49658 0.133068,0.257143 0.302393,0.636174 0.376265,0.842296 0.0739,0.206122 0.255955,0.67196 0.404627,1.0352 0.148672,0.363236 0.291706,0.787068 0.317857,0.941848 0.02613,0.154779 0.101868,0.333591 0.168266,0.397367 0.06641,0.06378 0.173681,0.238791 0.238384,0.388931 0.06472,0.15014 0.16097,0.354495 0.213918,0.454122 0.05292,0.09962 0.09625,0.215445 0.09625,0.257379 0,0.04196 0.07456,0.190746 0.165653,0.330698 0.09114,0.139952 0.251122,0.476663 0.355575,0.748241 l 0.189922,0.493776 1.094637,-0.04215 c 1.266379,-0.0488 3.102982,0.05854 4.318717,0.252377 0.928759,0.1481 2.068954,0.485261 2.208119,0.652947 0.07784,0.09375 0.06219,0.129481 -0.111675,0.255187 -0.295424,0.213628 -0.701109,0.666295 -0.77323,0.862782 -0.03447,0.09383 -0.101822,0.348438 -0.14974,0.565794 -0.04796,0.217346 -0.123318,0.444687 -0.167565,0.505203 -0.08655,0.11839 -0.237643,0.06978 -0.237643,-0.07643 0,-0.104463 -1.142658,-0.557158 -1.74026,-0.689439 -0.225205,-0.04983 -0.62883,-0.138894 -0.896942,-0.197874 -0.503086,-0.110663 -1.918259,-0.144972 -2.600326,-0.06303 l -0.358001,0.04299 0.142837,0.231125 c 0.07858,0.127111 0.126633,0.273357 0.106823,0.324984 -0.01986,0.05161 -0.260806,0.271484 -0.53554,0.488578 -0.670651,0.529939 -1.28278,1.119954 -1.356896,1.30789 -0.09889,0.250775 -0.194408,0.179694 -0.412691,-0.307104 -0.208748,-0.465555 -1.099714,-1.723186 -1.220783,-1.723186 -0.116153,0 -0.614302,0.217899 -0.614302,0.268712 0,0.02707 0.13052,0.108153 0.290038,0.180256 0.247637,0.111946 0.290048,0.161045 0.290048,0.335849 0,0.167902 -0.03072,0.208102 -0.170617,0.223444 -0.325153,0.03569 -1.091921,0.246719 -1.091921,0.300576 0,0.08242 0.715543,0.425514 1.364903,0.654493 1.769428,0.62394 4.890655,1.117238 6.704029,1.059532 0.408355,-0.01302 0.891949,-0.09497 1.535512,-0.260291 z m -29.226259,0.124479 c -0.0037,-0.142903 -0.387167,-0.771376 -0.448021,-0.73377 -0.04646,0.02866 -0.0458,0.07081 0.0019,0.128235 0.08458,0.101915 0.0266,0.175319 -0.138398,0.175319 -0.09601,0 -0.403662,0.372154 -0.403662,0.488315 0,0.01574 0.222657,0.02145 0.494778,0.01274 0.27213,-0.0084 0.494188,-0.04065 0.493458,-0.07081 z m 4.744362,-0.531382 c 0,-0.06369 -1.044602,-1.642672 -1.276982,-1.930192 -0.249829,-0.30908 -0.566664,-0.513445 -0.714868,-0.461087 -0.04927,0.01742 -0.166403,0.04468 -0.260245,0.0606 -0.602866,0.102093 -1.03222,0.20664 -1.064749,0.25927 -0.02079,0.03363 0.06781,0.221393 0.19675,0.417327 0.128965,0.195945 0.369344,0.621908 0.534182,0.946593 l 0.299696,0.590334 0.564548,0.0047 c 0.604224,0.0047 1.532645,0.07465 1.579486,0.118812 0.04009,0.03775 0.142182,0.03344 0.142182,-0.0066 z M 10.590001,32.975481 c 0.656562,-0.104894 1.524124,-0.362582 1.693235,-0.502937 0.09068,-0.07521 0.07482,-0.168332 -0.132552,-0.778129 -0.12955,-0.380958 -0.262083,-0.724984 -0.294517,-0.764491 -0.121408,-0.147895 -0.290743,-0.885281 -0.258501,-1.125668 0.03138,-0.233925 0.677451,-1.300632 0.787759,-1.300632 0.02649,0 0.273184,0.171442 0.548207,0.380977 0.275024,0.209535 0.510551,0.370467 0.523396,0.357617 0.06896,-0.06894 -0.60487,-0.920348 -1.148953,-1.451721 -0.53739,-0.524834 -1.801388,-1.470715 -1.965343,-1.470715 -0.02958,0 -0.4774159,-0.203475 -0.9951819,-0.452168 -1.042933,-0.50094 -1.539684,-0.693073 -1.999193,-0.773253 -0.168907,-0.02948 -0.5067234,-0.109617 -0.7506983,-0.178101 -1.11535,-0.313078 -3.7770103,-0.01803 -4.0254755,0.446243 -0.033457,0.0625 -0.095899,0.439439 -0.138772,0.83764 -0.066679,0.619311 -0.061612,0.804108 0.035049,1.278027 0.2187035,1.072276 0.6731378,2.114771 1.2717794,2.917515 0.6590209,0.883716 2.0722726,1.782156 3.5739894,2.272092 1.291107,0.421224 2.093462,0.496586 3.2757699,0.307704 z m 25.148347,-1.085056 c 0.45528,-0.13673 2.189958,-0.272046 2.992197,-0.233419 l 0.701072,0.03381 0.175778,-0.348101 c 0.327392,-0.64834 0.538828,-0.894207 0.963696,-1.120657 0.223921,-0.119346 0.456563,-0.216991 0.516995,-0.216991 0.171638,0 0.123046,-0.07615 -0.290236,-0.454989 l -0.384704,-0.352622 -0.818948,-0.04009 c -2.152727,-0.105315 -4.246951,-0.174673 -4.39139,-0.14545 -0.08814,0.0178 -0.464309,0.03718 -0.836004,0.04309 -0.489804,0.0075 -0.675811,0.03409 -0.675811,0.096 0,0.04693 0.208017,0.434927 0.462258,0.862155 0.25424,0.427218 0.506945,0.868889 0.561551,0.9815 0.124142,0.255983 0.627818,0.989809 0.678696,0.988817 0.02079,-3.38e-4 0.175947,-0.04224 0.34485,-0.09301 z M 16.39124,31.096298 c 0.0385,-0.06219 -0.481253,-1.091274 -0.551144,-1.091274 -0.01611,0 -0.02932,0.261031 -0.02932,0.580086 v 0.580078 h 0.268955 c 0.147923,0 0.288109,-0.031 0.311525,-0.06884 z m 5.599052,-1.611332 c 0.187683,-0.851534 0.213356,-1.492698 0.07287,-1.819534 -0.05189,-0.120783 -0.203456,-0.344972 -0.336749,-0.498203 -0.201049,-0.231111 -0.339774,-0.309627 -0.81389,-0.460655 -0.584479,-0.186179 -1.035432,-0.233542 -1.107862,-0.116352 -0.02239,0.03614 0.0326,0.182015 0.122006,0.324165 0.196487,0.312287 1.225523,2.353064 1.591963,3.157175 0.230384,0.505549 0.266145,0.552812 0.283979,0.375348 0.01124,-0.111666 0.09568,-0.544542 0.187673,-0.961944 z m 6.582219,-0.379591 c 4.7e-5,-0.06313 0.05667,-0.132796 0.125884,-0.15476 0.151735,-0.04814 0.454062,-0.463944 0.762646,-1.048836 0.162179,-0.307382 0.286508,-0.455316 0.432895,-0.515045 0.204599,-0.08348 0.202838,-0.08476 -0.472673,-0.34365 -0.805545,-0.308714 -1.753439,-0.532198 -3.092838,-0.729191 -0.813029,-0.119576 -1.063288,-0.132258 -1.457003,-0.07383 -0.261453,0.0388 -0.492015,0.0872 -0.512359,0.107548 -0.02032,0.02035 0.02342,0.09151 0.09735,0.158131 0.549037,0.495083 1.318146,1.925869 1.318146,2.452156 0,0.159116 0.0047,0.159959 0.870126,0.164988 0.478574,0.0028 1.008317,0.02744 1.17723,0.05479 0.506008,0.08196 0.750489,0.05845 0.750601,-0.07231 z M 17.863379,28.479243 c -0.189903,-0.351229 -0.420924,-0.839558 -0.51337,-1.085181 l -0.168098,-0.446582 0.280982,-0.392382 0.280972,-0.392381 -0.595888,0.04835 c -0.327748,0.0266 -0.637156,0.06418 -0.687585,0.08353 -0.06725,0.0258 -0.0056,0.183911 0.231068,0.593206 0.718578,1.242405 1.378607,2.230031 1.49031,2.230031 0.0148,0 -0.128488,-0.287369 -0.318391,-0.638598 z m 21.594332,-1.272275 c -0.02323,-0.03754 -0.124816,-0.06518 -0.225823,-0.06144 l -0.183646,0.0068 0.170608,0.05463 c 0.242233,0.07757 0.286808,0.07757 0.238861,0 z m 0.501101,-0.114381 c 0.03662,-0.01879 -0.605779,-1.175652 -0.677394,-1.219911 -0.03512,-0.0217 -0.141985,0.02194 -0.237437,0.09704 -0.347717,0.27351 -1.488774,0.575157 -2.504734,0.662144 -0.564407,0.04832 -0.793303,0.165637 -0.323177,0.165637 0.154564,0 0.264038,0.02749 0.243273,0.0611 -0.05086,0.08237 0.125996,0.143642 0.414658,0.143642 0.146546,0 0.220568,-0.0271 0.193546,-0.0708 -0.06463,-0.10463 1.616971,-0.02915 2.115383,0.09496 0.224212,0.05583 0.41834,0.133548 0.431396,0.172705 0.01583,0.04743 0.07334,0.04354 0.172416,-0.01164 0.08177,-0.04557 0.15921,-0.08825 0.17207,-0.09486 z M 12.699906,25.40824 c -0.02367,-0.06168 -0.09057,-0.112137 -0.148673,-0.112137 -0.08929,0 -0.08647,0.02118 0.01825,0.136909 0.139232,0.153852 0.194903,0.143274 0.130416,-0.02478 z m 3.228861,-0.631083 c -0.02267,-0.02267 -0.08158,-0.02511 -0.130801,-0.0054 -0.05442,0.02177 -0.03831,0.03795 0.04121,0.04123 0.07193,0.003 0.112246,-0.01317 0.08954,-0.03585 z m 5.853442,-0.57486 c 0.233896,-0.03987 0.04215,-0.0484 -0.609554,-0.0271 -0.522933,0.01708 -0.965672,0.04595 -0.98387,0.06415 -0.05507,0.05509 1.227929,0.02528 1.593424,-0.03704 z m 4.415077,-0.245143 1.00281,-0.0463 -0.128039,-0.250992 c -0.07043,-0.138044 -0.507431,-0.770705 -0.971123,-1.405913 -0.463691,-0.635213 -0.947098,-1.339189 -1.074227,-1.564399 -0.12713,-0.225208 -0.419857,-0.639797 -0.650485,-0.921308 -0.230637,-0.281511 -0.474575,-0.596329 -0.542078,-0.69959 l -0.122746,-0.187753 -0.271072,0.378552 c -0.295874,0.413179 -0.795148,0.913845 -0.914007,0.916555 -0.04112,10e-4 -0.251365,-0.359141 -0.467128,-0.800175 l -0.392301,-0.801882 -0.185248,0.220699 c -0.101887,0.121382 -0.305212,0.447662 -0.451824,0.725063 l -0.266566,0.50437 -0.787177,0.07897 c -0.741095,0.07434 -1.624783,0.130084 -2.203268,0.138977 -0.140758,0.0023 -0.255917,0.0313 -0.255917,0.06475 0,0.03345 0.123598,0.210032 0.274659,0.392411 0.15107,0.182376 0.339933,0.47555 0.419706,0.651491 0.129949,0.286592 0.174177,0.324933 0.424849,0.368278 0.153899,0.0266 0.77117,0.03622 1.371732,0.02134 0.600562,-0.01489 1.997873,-0.02515 3.105154,-0.02283 1.763967,0.0037 2.040696,0.0187 2.23503,0.121167 0.250475,0.132065 0.288437,0.287826 0.0858,0.352132 -0.07474,0.02372 -0.287584,0.162997 -0.472879,0.309468 -0.251262,0.198611 -0.397752,0.392673 -0.576209,0.763328 -0.131607,0.273354 -0.260216,0.570912 -0.285796,0.66124 l -0.04655,0.164233 0.571011,-0.0428 c 0.314054,-0.02352 1.022282,-0.06363 1.57383,-0.08909 z M 10.487634,23.425018 c 0,-0.03669 -0.247572,-0.627291 -0.374266,-0.892844 -0.05373,-0.112604 -0.2251229,-0.504073 -0.3808899,-0.869933 -0.399812,-0.939059 -0.617925,-1.201251 -1.197064,-1.438989 -0.258765,-0.106226 -0.60868,-0.219746 -0.777587,-0.252266 -0.168907,-0.03252 -0.412558,-0.09092 -0.541443,-0.12977 -0.128886,-0.03885 -0.2415598,-0.06341 -0.2503904,-0.05459 -0.040032,0.04003 0.6045914,0.907085 1.1072644,1.489316 0.91584,1.060792 2.4143759,2.394661 2.4143759,2.149072 z m 5.084556,-0.870389 c 0.04636,-0.04637 -0.781048,-1.276514 -0.95665,-1.422251 -0.088,-0.07303 -0.121563,-0.06602 -0.200343,0.04183 -0.07867,0.107701 -0.19357,0.131844 -0.681083,0.143123 -0.348146,0.0081 -0.716566,-0.02558 -0.906663,-0.08281 -0.176119,-0.05301 -0.329222,-0.08736 -0.34023,-0.07635 -0.01101,0.01101 0.02919,0.185701 0.08933,0.388209 0.06393,0.21526 0.09644,0.502433 0.07829,0.691372 l -0.03106,0.323176 0.518624,0.0267 c 0.759557,0.03911 2.379673,0.0171 2.429783,-0.03302 z M 7.0911741,18.658701 c 0.202538,-0.384424 0.422612,-0.837151 0.489054,-1.006057 0.172391,-0.438252 0.45058,-0.715514 0.45058,-0.449078 0,0.125217 0.521797,0.290941 1.091922,0.346796 0.243977,0.02388 0.702622,0.08685 1.0192129,0.139893 0.31659,0.05304 0.582882,0.08917 0.591761,0.08029 0.04215,-0.04215 -1.3386959,-0.908551 -1.7383959,-1.090738 -1.170542,-0.533546 -3.7691271,-1.212232 -4.2139665,-1.100584 -0.1531868,0.03845 -0.2240433,0.192198 -0.1116086,0.242172 0.028155,0.0125 0.1116086,0.14559 0.1854595,0.295728 0.073854,0.150139 0.1853641,0.341575 0.2477965,0.425407 0.062436,0.08384 0.2146845,0.406294 0.3383363,0.716574 0.1236482,0.310282 0.3258857,0.724355 0.4494149,0.920163 0.123532,0.195813 0.3060543,0.51827 0.4056056,0.716577 0.2167722,0.431803 0.2985799,0.540917 0.3716768,0.495739 0.030207,-0.01866 0.2206097,-0.348458 0.4231515,-0.732885 z M 19.223019,17.786599 c 0.919599,-0.04151 1.748784,-0.08095 1.842616,-0.08765 0.147324,-0.01052 0.167358,-0.04012 0.146799,-0.216917 -0.05189,-0.445941 -0.372987,-1.530121 -0.615651,-2.078665 -0.307244,-0.694521 -0.195279,-0.653226 -1.947603,-0.71829 -0.679061,-0.02521 -1.29608,-0.06228 -1.371151,-0.08237 -0.08617,-0.02306 -0.03082,0.05527 0.150311,0.212598 0.318737,0.276846 0.976584,1.49683 0.974607,1.807414 -0.0028,0.434426 -0.557794,1.029926 -0.959958,1.029926 -0.34308,0 -0.528291,-0.124225 -0.783655,-0.525615 -0.561588,-0.882701 -2.020214,-2.452956 -2.540698,-2.735133 l -0.286989,-0.155589 v 0.198197 c 0,0.187554 0.241531,0.843996 0.642527,1.746286 0.225852,0.508192 0.677279,1.236187 0.936839,1.510812 l 0.19808,0.209572 0.970964,-0.01956 c 0.534023,-0.01075 1.723354,-0.05352 2.642962,-0.09502 z m -7.176492,-2.286051 c -0.07733,-0.449113 -0.160294,-0.855465 -0.184358,-0.903 -0.03199,-0.06318 -0.355853,-0.09276 -1.203922,-0.109977 l -1.1601679,-0.02356 0.49097,0.223639 c 0.7416549,0.337823 1.3835609,0.781577 1.7976799,1.242751 0.204818,0.228093 0.378698,0.408412 0.386399,0.400709 0.0077,-0.0077 -0.04927,-0.38146 -0.126601,-0.830573 z m 18.254508,-2.77862 c -0.246382,-0.486455 -1.024651,-1.816654 -1.762552,-3.0125219 -0.781632,-1.266739 -1.25409,-1.884035 -1.331709,-1.739972 -0.0281,0.05211 -0.08317,0.371154 -0.122522,0.708967 -0.04608,0.395677 -0.17132,0.895131 -0.35209,1.4037769 -0.394877,1.111045 -0.87139,1.805533 -1.527082,2.225598 -0.144299,0.09245 -0.251787,0.178382 -0.238852,0.190965 0.01293,0.01257 0.573427,0.05667 1.245548,0.09796 0.698187,0.0429 1.262052,0.10828 1.315374,0.152528 0.05133,0.0426 0.111975,0.0588 0.134763,0.036 0.02276,-0.0228 0.09883,-0.01072 0.16897,0.0268 0.08542,0.04572 0.127513,0.04548 0.127513,-6.62e-4 0,-0.0459 0.05882,-0.04661 0.175872,-0.002 0.195973,0.07451 1.113492,0.159137 1.621177,0.149532 0.252976,-0.0048 0.321416,0.01555 0.293879,0.08731 -0.04168,0.108716 0.05152,0.157677 0.314672,0.165234 l 0.187636,0.0054 z M 23.986722,12.27516 c -0.160343,-0.177475 -0.270266,-0.390268 -0.328132,-0.635165 -0.08739,-0.36992 -0.501194,-1.564938 -0.718287,-2.0744069 -0.06397,-0.15014 -0.308004,-0.610795 -0.542284,-1.023676 -0.234281,-0.412885 -0.503723,-0.90425 -0.598754,-1.091926 -0.09504,-0.187672 -0.298544,-0.4794205 -0.452236,-0.6483278 l -0.279436,-0.3071033 -0.0047,0.7165741 c -0.01377,2.223013 0.04355,2.523912 0.761475,3.9960169 0.220644,0.452435 0.401171,0.871418 0.401171,0.931069 0,0.05964 0.05376,0.130583 0.119421,0.157623 0.159125,0.06552 1.126651,0.209232 1.546986,0.229792 l 0.335624,0.01641 z m -4.021269,-0.167438 c -0.04468,-0.08446 -0.204824,-0.349786 -0.355772,-0.589629 l -0.274462,-0.436078 -0.116209,0.424528 c -0.06388,0.233493 -0.150583,0.458901 -0.192591,0.50091 -0.167452,0.167451 -0.08214,0.19333 0.796141,0.24152 0.212223,0.01164 0.219856,0.0041 0.142893,-0.141251 z M 13.29291,11.865302 C 13.180028,11.654377 11.704274,10.23598 11.238331,9.8905741 10.63299,9.4418311 8.6208651,8.0429111 8.2014191,7.7791801 c -0.5334,-0.335381 -1.158021,-0.636638 -1.181373,-0.569774 -0.011642,0.03339 0.022891,0.147251 0.076767,0.253017 0.05388,0.105766 0.150742,0.37656 0.215242,0.601772 0.06451,0.225208 0.190754,0.570665 0.280566,0.767685 0.08981,0.197015 0.221767,0.580894 0.293243,0.853066 0.238191,0.9070009 0.438328,1.5179939 0.513829,1.5686659 0.04109,0.02755 0.154354,0.05061 0.251699,0.05119 0.09735,6.61e-4 0.343028,0.0577 0.545962,0.12694 0.540237,0.184331 2.8906079,0.522538 3.8006919,0.546903 0.327721,0.0088 0.354672,-0.0017 0.294865,-0.113336 z m 4.260078,-1.519854 C 17.335248,9.8135271 17.302559,9.7698101 17.11777,9.7634981 16.787887,9.7522481 16.712066,9.6920381 16.500967,9.2738541 16.22598,8.7291041 15.539745,7.7130721 15.172106,7.3063371 14.875215,6.9778845 14.365772,6.6111156 14.481152,6.8088957 c 0.265285,0.4547374 1.42965,2.1560224 1.740539,2.5431464 0.447796,0.557603 1.491639,1.6436149 1.536589,1.5986649 0.01658,-0.01658 -0.07577,-0.288939 -0.205292,-0.605259 z M 25.013762,7.5352951 C 24.940049,7.3007001 24.832111,6.9552104 24.773965,6.7675357 24.637628,6.3275443 23.613295,4.3041154 23.239792,3.7369897 22.658591,2.8545053 22.098155,2.4354047 21.497827,2.4343472 c -0.254418,-4.58e-4 -0.771095,0.2077103 -0.899451,0.3623714 -0.07812,0.094106 -0.05779,0.1218638 0.153758,0.2102617 0.593593,0.2480165 1.532027,1.0304186 2.175056,1.8133939 0.232173,0.2827067 0.453931,0.5474329 0.492792,0.5882805 0.03887,0.040847 0.179722,0.2404645 0.313024,0.4435937 0.133302,0.2031292 0.369007,0.5535875 0.523804,0.7787969 0.154789,0.2252086 0.407409,0.6167668 0.561373,0.8701248 0.153965,0.253362 0.291126,0.460657 0.304791,0.460657 0.01367,0 -0.0355,-0.19194 -0.109212,-0.426532 z m 8.273269,13.7751009 c -0.06107,-0.07353 -0.05901,-0.103036 0.0084,-0.127228 0.0576,-0.02058 0.01714,-0.08791 -0.116583,-0.194194 -0.112603,-0.08948 -0.659954,-0.592694 -1.216334,-1.118246 -0.556381,-0.525551 -1.070782,-0.97759 -1.143109,-1.004532 -0.07231,-0.02693 -0.131503,-0.101034 -0.131503,-0.164648 0,-0.155295 1.567357,-1.66311 1.728786,-1.66311 0.07006,0 0.211774,0.09041 0.31501,0.200921 0.284437,0.304495 1.482067,1.342011 1.982671,1.717611 0.243975,0.183051 0.541666,0.451692 0.661518,0.596978 l 0.217936,0.264154 -0.169184,0.07709 c -0.09301,0.04239 -0.340861,0.207762 -0.550686,0.367481 -0.209825,0.159715 -0.464609,0.351816 -0.566178,0.426883 -0.101578,0.07507 -0.33998,0.26701 -0.52978,0.426533 -0.389434,0.327302 -0.383009,0.324758 -0.491265,0.19431 z m 3.219078,-2.189859 c -0.121988,-0.05302 -0.221796,-0.127103 -0.221796,-0.164625 0,-0.186092 -2.103169,-1.919409 -2.38046,-1.961842 -0.0518,-0.008 -0.191486,-0.10868 -0.310345,-0.223886 -0.118869,-0.115204 -0.253042,-0.209462 -0.298169,-0.209462 -0.193968,0 -0.05077,-0.259622 0.37369,-0.67742 0.489008,-0.481372 1.318624,-1.428804 1.318624,-1.505887 0,-0.04748 0.307376,-0.206155 0.395617,-0.204233 0.02641,6.61e-4 0.0019,0.03186 -0.05442,0.06954 -0.08561,0.0573 -0.06894,0.0932 0.102365,0.219823 0.322268,0.238213 2.660927,2.485301 2.936185,2.821215 0.136365,0.166422 0.23785,0.326233 0.225524,0.355133 -0.03447,0.08075 -0.89727,0.84139 -1.215482,1.071559 -0.155679,0.112604 -0.348026,0.273835 -0.427434,0.358285 -0.167789,0.178445 -0.155791,0.177046 -0.443928,0.05181 z M 51.366496,17.64595 c -1.082789,-0.869867 -1.359265,-1.108591 -1.3966,-1.205866 -0.02145,-0.05579 0.03325,-0.172513 0.122616,-0.261882 0.152559,-0.152555 1.034055,-0.637146 1.163985,-0.639883 0.03334,-6.51e-4 0.191374,-0.116439 0.351192,-0.257196 0.728319,-0.641453 1.07138,-0.695688 1.491228,-0.23574 0.422769,0.463145 1.202116,1.46302 1.202116,1.54226 0,0.04299 -0.222648,0.212497 -0.494778,0.376679 -0.272121,0.164182 -0.602257,0.365606 -0.73363,0.447602 -0.599962,0.374476 -1.083304,0.649978 -1.136336,0.647705 -0.03194,-0.0013 -0.288278,-0.187524 -0.569793,-0.413679 z m -2.302683,-2.153905 c -0.04655,-0.01883 -0.134753,-0.139692 -0.195925,-0.268601 -0.177586,-0.374247 -1.297794,-1.288341 -2.584666,-2.109108 -0.983908,-0.627533 -1.291031,-0.826789 -1.493485,-0.968946 -0.117501,-0.0825 -0.413253,-0.265374 -0.657228,-0.406383 -0.243984,-0.141005 -0.651234,-0.389993 -0.905006,-0.553298 -0.813347,-0.523408 -3.580732,-1.7907349 -3.910315,-1.7907349 -0.05901,0 -0.17221,-0.03473 -0.251534,-0.07719 -0.07933,-0.04246 -0.299957,-0.0962 -0.490291,-0.119429 -0.279642,-0.03413 -0.349899,-0.06903 -0.366038,-0.181798 -0.02323,-0.161998 0.09911,-0.318094 0.821852,-1.04893 0.2909,-0.294157 0.528899,-0.566344 0.528899,-0.604866 0,-0.09735 0.380518,-0.220229 0.675577,-0.218151 0.258015,0.0017 1.952811,0.562684 2.941422,0.973425 0.319046,0.132552 0.682685,0.279357 0.808092,0.32623 0.125396,0.04687 0.410508,0.20318 0.633568,0.347351 0.22306,0.144172 0.419885,0.26213 0.437381,0.26213 0.09768,0 -0.01967,-0.227572 -0.469535,-0.910715 -0.619313,-0.940393 -0.931794,-1.4426841 -0.931794,-1.4977882 0,-0.023154 -0.194886,-0.342924 -0.433091,-0.7106005 C 42.9835,5.5669659 42.639951,4.9743918 42.458253,4.6178107 42.105235,3.9249969 41.452381,2.8169256 41.283562,2.6240301 c -0.05901,-0.067419 -0.08842,-0.1903891 -0.06931,-0.2900416 0.01817,-0.095153 0.0096,-0.1730051 -0.01901,-0.1730051 -0.02866,0 -0.08186,-0.084456 -0.11826,-0.1876738 -0.03634,-0.103221 -0.129593,-0.2644498 -0.207137,-0.3582867 -0.11899,-0.1439909 -0.160286,-0.1576976 -0.264693,-0.087847 -0.734332,0.4913303 -2.587476,1.4875167 -3.399465,1.8274379 -1.500809,0.6282711 -2.99095,1.058218 -3.668185,1.0583697 -0.221149,5.06e-5 -0.392404,0.030469 -0.392404,0.069686 0,0.090526 0.317164,0.6010197 0.503208,0.8099345 0.292867,0.3288736 1.545169,1.3521129 2.247271,1.8362161 0.397068,0.273781 0.874921,0.635324 1.061892,0.803429 0.403728,0.362978 0.975844,1.116939 1.166599,1.537387 0.24007,0.529136 0.162881,1.1554009 -0.20532,1.6658719 -0.108181,0.149979 -0.308902,0.441597 -0.446054,0.64804 -0.2677,0.402949 -0.461658,0.614206 -0.56392,0.614206 -0.03503,0 -0.06229,-0.191941 -0.0606,-0.426533 0.0028,-0.358188 -0.03625,-0.504549 -0.243085,-0.913418 -0.199491,-0.394354 -0.379821,-0.610811 -0.948921,-1.1389799 -0.822104,-0.762973 -1.237933,-1.082913 -2.579374,-1.984536 -1.510176,-1.015037 -2.329236,-1.9179757 -2.60175,-2.8681864 -0.07343,-0.2558703 0.02342,-0.578533 0.231958,-0.7730423 0.08355,-0.077891 0.412869,-0.4336072 0.731915,-0.7904787 0.668018,-0.7472173 0.966093,-0.9318508 1.505877,-0.93275 0.70243,-0.00112 2.68704,-0.3066593 3.073721,-0.4731361 0.08992,-0.038702 0.50125,-0.1630336 0.914138,-0.2763001 1.286132,-0.3528261 2.285476,-0.82152819 3.075688,-1.44253099 0.490366,-0.3853658 0.468917,-0.3234635 0.343502,-0.9914752 -0.01517,-0.080935 -0.153533,-0.46481221 -0.307404,-0.85306561 -0.5249,-1.3244016 -0.712443,-2.2822918 -0.719327,-3.6739672 l -0.0037,-0.7842079 0.307105,-0.07302 c 0.168903,-0.040163 0.353168,-0.091837 0.409469,-0.1148419 0.215211,-0.087922 1.172996,-0.2666387 1.25675,-0.234499 0.04833,0.018545 0.282639,0.2891059 0.520732,0.6012567 0.238084,0.3121508 0.511366,0.6364929 0.607296,0.7207592 0.340477,0.2990867 0.494797,0.467773 0.705437,0.7711269 0.117286,0.1689073 0.322175,0.4179935 0.455318,0.5535248 0.295349,0.3006508 0.520985,0.6200249 0.494787,0.7003228 -0.01068,0.032754 0.02791,0.041399 0.0857,0.019201 0.07353,-0.028221 0.105156,0.0015 0.105156,0.098869 0,0.1718278 -0.179778,0.3749354 -0.221392,0.2501128 -0.0325,-0.09751 -0.358929,0.5920083 -0.462699,0.9773638 -0.08196,0.304314 -0.126436,1.83368431 -0.05461,1.87805741 0.02604,0.016091 0.09581,0.1960267 0.155061,0.399864 0.05929,0.2038373 0.13805,0.38934459 0.175094,0.41223789 0.037,0.022891 0.06734,0.1133713 0.06734,0.2010629 0,0.1718306 0.245942,0.7802713 0.732291,1.8116153 0.168154,0.3565811 0.331606,0.7151985 0.363236,0.7969265 0.03166,0.081731 0.206014,0.3888314 0.387515,0.6824518 0.181511,0.2936195 0.367704,0.6106305 0.413768,0.7044674 0.04608,0.093838 0.137171,0.2544803 0.202454,0.3569848 0.06528,0.1025036 0.30126,0.4863829 0.524385,0.8530638 0.223126,0.3666817 0.461125,0.7262292 0.5289,0.7989912 0.06781,0.07277 0.123224,0.172573 0.123224,0.221798 0,0.04923 0.03007,0.08949 0.06688,0.08949 0.03681,0 0.127888,0.119639 0.202491,0.265862 0.07456,0.146222 0.176322,0.307453 0.226066,0.358286 0.04974,0.05084 0.133452,0.199915 0.186044,0.331286 0.05255,0.131373 0.117923,0.254502 0.145198,0.273626 0.02726,0.01913 0.05976,0.07772 0.07212,0.130219 0.01236,0.0525 0.154114,0.235399 0.314944,0.40645 0.287697,0.305985 0.627443,0.8393679 0.630412,0.9897369 9.36e-4,0.04219 0.06491,0.153485 0.142415,0.247323 0.07746,0.09384 0.117951,0.124549 0.08992,0.06824 -0.02997,-0.06025 -0.02548,-0.07898 0.01115,-0.04549 0.03419,0.03127 0.0621,0.08293 0.0621,0.114778 0,0.03186 0.145872,0.197681 0.32417,0.368513 0.178289,0.170832 0.32416,0.357188 0.32416,0.414123 0,0.05693 0.04702,0.103516 0.10451,0.103516 0.05751,0 0.124245,0.05374 0.148363,0.119427 0.04337,0.11798 0.395411,0.584725 0.95728,1.269036 0.158872,0.193483 0.341479,0.428565 0.405798,0.5224 0.06435,0.09384 0.192047,0.234148 0.283847,0.311804 0.158282,0.133898 0.16127,0.149793 0.05779,0.307698 -0.06088,0.09299 -0.313783,0.255403 -0.572697,0.367848 -0.254971,0.110742 -0.709277,0.353098 -1.009553,0.538571 -0.300277,0.185468 -0.622742,0.378478 -0.716574,0.428908 -0.170027,0.09137 -0.435639,0.112535 -0.596553,0.04753 z M 41.079525,1.4377393 c 0.07643,-0.076383 -0.03222,-0.2321856 -0.161841,-0.2321856 -0.151164,0 -0.160915,0.037971 -0.04393,0.1708977 0.0945,0.1073329 0.144711,0.1222928 0.205723,0.061284 z"
     id="path1"
     sodipodi:nodetypes="sssscsssssssscscsssssssssssssscsssssccscccscssssssssssssssssssssssssssssscssssssssssssscssscssssssccssssssssssscsssssssscsscsssssssscccssssssssssscssssssssssssssssscssssssssssssscscsssssssssssssscssssssssscsscssssssssssssscsssssssssssssssssssssssssssscssssssssssscssssssssssssscccscssccccscssssccsccssssssssssssssssssssscsssscsscssscsssscssssssssssssssssssssssccsssccccsssssccssssscsssscsssscscccsccssccsccccssssscscscsscscssssccscsssccccsssssscsscssccssscsccssscsssscssssscsssssssscssscssscsscsccssscccscssssssscsccssccsssssscssssscssscsssscssccsssccsscscssssssssscssssssssssssssssssscsssssssssssssccssssssssscssssscssssssssssssscsssssssssssssssssssssssscsssssscsssssscsssssssssscsssssssssssssssssscscsssssssssssssssssssss" />
</svg>
