<svg width="157" height="134" viewBox="0 0 57 34" fill="white" xmlns="http://www.w3.org/2000/svg">
<path d="M29.2689 32.6442C29.1838 32.4121 29.0718 31.1602 29.0199 29.8622C28.9408 27.8842 28.8228 27.4832 28.2905 27.3843C27.7411 27.2822 27.6701 27.4639 27.764 28.7313C27.8467 29.8475 27.7504 30.1964 27.3596 30.1964C27.001 30.1964 26.8139 29.7497 26.7376 28.7112L26.6286 27.2259L22.2721 27.4529C19.876 27.5777 16.8179 27.8315 15.4764 28.017C13.8167 28.2463 12.9233 28.243 12.6808 28.0067C12.057 27.3989 13.2029 26.7023 16.1118 25.9211C18.5159 25.2755 19.7842 25.1753 25.8072 25.1551C31.1826 25.1372 33.3411 25.2632 35.4308 25.7171C40.1376 26.7394 42.5267 28.0539 43.1152 29.9449C43.4498 31.02 42.3715 31.3861 41.6143 30.4544C40.484 29.0637 37.0934 27.9959 32.2515 27.5059L30.0338 27.2815L30.2408 29.6868C30.3546 31.0098 30.3614 32.3113 30.2559 32.5792C30.02 33.1782 29.4776 33.2139 29.2689 32.6442ZM6.01005 29.8588C5.73557 29.1617 6.10772 28.3394 6.69765 28.3394C7.40686 28.3394 8.01026 29.1786 7.75929 29.816C7.48767 30.5057 6.27648 30.5354 6.01005 29.8588ZM9.55927 29.2512C9.14968 28.9594 8.98255 28.4791 9.05995 27.8163C9.15575 26.996 9.35681 26.8 10.1986 26.7067C10.8788 26.6313 11.3717 26.7941 11.6712 27.1932C12.2729 27.9952 12.2428 28.2211 11.4284 29.0147C10.614 29.8083 10.3822 29.8376 9.55927 29.2512ZM6.30052 26.9213C5.4474 26.09 6.28733 24.7461 7.39999 25.1622C8.12259 25.4324 8.13388 26.853 7.41557 27.1216C6.71778 27.3825 6.7864 27.3948 6.30052 26.9213ZM36.2329 24.2034C34.167 19.1996 33.1315 16.8599 32.9829 16.8599C32.8867 16.8599 32.9079 18.4172 33.03 20.3206C33.2711 24.0773 33.0209 25.0465 31.9671 24.4391C31.6282 24.2437 30.8594 23.1486 30.2587 22.0055C29.2198 20.0285 29.1551 19.9717 28.9324 20.8413C28.6685 21.8721 27.799 22.9373 27.2216 22.9373C27.0105 22.9373 26.6839 23.2619 26.4957 23.6587C26.3076 24.0554 25.9978 24.3973 25.8072 24.4183C25.5477 24.447 22.4614 18.8339 21.4086 16.4185C21.3433 16.2686 21.0006 16.2541 20.6471 16.3864C20.0964 16.5923 20.0318 16.8843 20.1951 18.4269C20.3067 19.4805 20.241 20.3143 20.0368 20.4374C19.8448 20.553 19.7768 20.9935 19.8857 21.4162C20.084 22.186 19.377 23.1426 18.9311 22.708C18.8049 22.5851 18.3274 22.8272 17.8698 23.246C15.8643 25.082 11.578 24.7215 6.40549 22.2818C3.15064 20.7466 0.510801 18.2536 0.148775 16.3731C-0.464538 13.1873 0.925694 12.6436 2.35807 15.5091C3.48264 17.7588 5.16286 19.0646 8.86589 20.5668C11.6267 21.6868 15.0347 22.2112 15.8831 21.6465C16.6264 21.1516 16.0452 20.0378 14.4454 18.8913C13.183 17.9866 12.9439 17.9186 12.6063 18.3686C12.3928 18.653 11.9734 18.8857 11.6742 18.8857C11.3738 18.8857 11.0805 19.2259 11.0194 19.6454C10.8359 20.9046 10.2791 20.4146 9.3571 18.1825C8.46239 16.0166 8.32331 15.9064 5.79813 15.3637C4.4915 15.0829 4.45172 13.6677 5.7387 13.2497L6.63209 12.9595L4.52603 10.2829C2.39334 7.57238 1.9493 6.30392 2.9961 5.91248C3.65692 5.66538 5.0254 6.81755 6.4494 8.81993C6.95771 9.5347 7.44152 10.0533 7.52453 9.97244C7.60754 9.89153 6.96072 8.17529 6.08715 6.15853C4.35071 2.14971 4.21797 1.50609 5.06248 1.19029C5.74394 0.93547 6.46735 1.4673 6.785 2.45661C7.29912 4.05787 12.3547 10.1073 13.1788 10.1073C13.3213 10.1073 13.053 9.02884 12.5826 7.71075C12.1122 6.39266 11.8092 5.23437 11.9094 5.13679C12.3443 4.71302 13.124 5.43216 13.5208 6.62289C13.7572 7.33225 14.6116 9.28007 15.4195 10.9514C16.2274 12.6226 17.0191 14.3699 17.1789 14.8341C17.4274 15.5562 17.5031 15.4097 17.7022 13.8212C18.0057 11.4 17.5434 8.2358 16.3914 4.85009C15.4129 1.97405 15.4667 0.991176 16.6025 0.991176C17.4642 0.991176 17.8206 1.63624 18.3536 4.16077C18.5845 5.2541 19.0587 6.77346 19.4074 7.5371C19.9698 8.76877 20.0442 8.82586 20.0659 8.0426C20.0793 7.55697 20.3927 6.78514 20.7621 6.3274C21.4269 5.5039 21.4269 5.48928 20.7621 4.93463C19.7769 4.11259 19.9395 3.16345 21.2299 2.20434C23.6888 0.376767 30.4847 -0.377908 30.4847 1.1766C30.4847 1.42099 30.8355 1.72512 31.2643 1.85245C32.2608 2.14836 33.2565 2.99764 33.2565 3.55164C33.2565 3.78814 33.0115 4.2204 32.7121 4.51222C32.2171 4.99455 32.22 5.04278 32.7445 5.04278C33.0618 5.04278 33.4029 4.73892 33.5026 4.36752C33.7396 3.48447 34.5335 3.50109 34.8247 4.39521C35.0413 5.06009 35.216 5.08595 38.053 4.87271C43.5157 4.46211 47.3194 3.52894 51.0996 1.67202C54.5945 -0.0447075 56.2422 -0.413301 56.5806 0.44597C57.0324 1.59324 54.0391 3.57228 49.3678 5.21491C46.1607 6.34262 41.572 11.7266 41.572 14.3617C41.572 15.4186 40.9955 15.6771 40.5297 14.829C39.9557 13.7837 40.9275 10.9748 42.6038 8.83432C43.3703 7.85563 43.9973 6.99815 43.9973 6.9288C43.9973 6.85951 43.4127 6.92243 42.6981 7.07011C41.9834 7.21718 40.6847 7.43437 39.812 7.55275L38.2253 7.76797L38.5046 9.75817C38.6582 10.8528 39.7483 14.3498 40.927 17.5293C42.9544 22.9979 43.0378 23.3413 42.472 23.8835C41.9087 24.4233 41.8347 24.4102 41.2032 23.6596C40.8343 23.2212 40.5326 22.6082 40.5326 22.2973C40.5326 21.9864 39.8607 19.8743 39.0396 17.6038L37.5465 13.4756L37.011 14.5769C36.5093 15.6087 36.5396 15.9516 37.491 20.0102C38.0495 22.3928 38.4215 24.5579 38.3177 24.8215C37.9581 25.7346 36.7126 25.3654 36.2329 24.2034ZM27.3611 19.2878C27.3582 18.4167 27.2412 17.5368 27.1012 17.3325C26.8575 16.9769 23.9016 16.4264 23.9016 16.7366C23.9016 17.1456 25.4521 19.8217 26.0699 20.479C27.0222 21.4922 27.3674 21.1736 27.3611 19.2878ZM30.8202 14.6647C30.4339 9.28077 30.5483 8.44908 31.62 8.84984C31.8889 8.9504 32.466 9.96312 32.9024 11.1003C33.3389 12.2375 33.7403 13.1246 33.7946 13.0717C33.8489 13.0189 33.789 11.8559 33.6615 10.4873C33.4307 8.0088 33.425 7.99758 32.2171 7.6182C31.5423 7.40628 30.8532 6.90139 30.6634 6.48C30.4138 5.92555 30.1353 5.77849 29.624 5.93108C28.588 6.24024 28.6012 6.19389 28.6367 9.38661C28.6785 13.1569 28.9544 14.3809 29.8115 14.5993C30.5468 14.7867 30.7115 15.8285 30.1 16.4244C29.8182 16.6991 29.8739 17.2642 30.3086 18.5396C30.6348 19.4968 30.9694 20.2141 31.052 20.1336C31.1346 20.0531 31.0303 17.5921 30.8202 14.6647ZM16.2991 16.4046C16.0082 15.6592 15.7357 15.5093 14.6708 15.5093C13.9673 15.5093 13.4623 15.5781 13.5486 15.6621C14.2244 16.3207 16.4722 17.7236 16.5503 17.5356C16.6042 17.4059 16.4912 16.897 16.2991 16.4046ZM23.5177 14.0744C22.4443 12.5597 22.3956 12.5253 22.6809 13.4835C22.8961 14.2065 23.7445 15.1717 24.1647 15.1717C24.2365 15.1717 23.9454 14.6779 23.5177 14.0744ZM20.4368 14.2233C20.4368 14.0731 20.1902 13.6553 19.8888 13.2948C19.3874 12.6951 19.358 12.692 19.5424 13.258C19.6532 13.5981 19.7439 14.0159 19.7439 14.1865C19.7439 14.357 19.8998 14.4965 20.0904 14.4965C20.2809 14.4965 20.4368 14.3736 20.4368 14.2233ZM25.1881 11.3959C23.8122 8.51847 22.7966 7.1971 22.2253 7.54117C21.6278 7.90103 21.7124 9.76958 22.3262 9.76958C22.6032 9.76958 23.1388 10.4503 23.5165 11.2824C24.2805 12.9655 26.0249 14.873 26.2359 14.2561C26.3093 14.0417 25.8378 12.7546 25.1881 11.3959ZM11.8683 11.7275C11.0677 10.9474 10.3452 10.3776 10.2626 10.4614C10.18 10.5451 10.3473 11.1834 10.6343 11.8798C11.0814 12.9647 11.3112 13.1459 12.2399 13.1459H13.3238L11.8683 11.7275ZM36.5093 9.72478C36.3862 8.82092 36.128 8.08141 35.9355 8.08141C35.7163 8.08141 35.6671 8.74466 35.8038 9.85399C35.924 10.8289 36.0336 11.9304 36.0473 12.3018C36.0693 12.8972 36.1113 12.8819 36.4026 12.1726C36.5843 11.7302 36.6323 10.6286 36.5093 9.72478ZM27.2379 9.51635C27.2489 9.19138 27.3198 8.32877 27.3954 7.59943L27.5329 6.27337L25.8905 6.18033C24.9872 6.12916 24.2481 6.1548 24.2481 6.23737C24.2481 6.31993 24.7938 7.08404 25.4608 7.93551C26.1277 8.78698 26.6734 9.62394 26.6734 9.79542C26.6734 10.3791 27.2178 10.11 27.2379 9.51635ZM30.4237 4.33759C32.7807 3.5369 31.5149 2.99151 26.768 2.76243C23.7974 2.61909 23.0773 2.68549 22.3134 3.17325C21.7934 3.50528 21.5322 3.88175 21.7051 4.05019C22.6821 5.00225 27.9554 5.17608 30.4237 4.33759ZM47.4621 18.1009C47.4621 17.4647 53.1077 9.25819 53.5255 9.28713C54.4235 9.34941 53.8527 10.6456 51.2581 14.4364C48.7219 18.142 47.4621 19.3581 47.4621 18.1009ZM45.5959 17.2596C45.4998 17.1081 46.4186 15.4748 47.6377 13.6301C50.3688 9.49764 50.5596 9.27656 51.0138 9.71919C51.4135 10.1086 50.3635 12.0419 47.915 15.4249C46.4378 17.4659 45.9643 17.8405 45.5959 17.2596Z" fill="white"/>
</svg>
