<?xml version="1.0" ?><!-- Uploaded to: SVG Repo, www.svgrepo.com, Generator: SVG Repo Mixer Tools -->
<svg fill="#000000" width="800px" height="800px" viewBox="0 0 100 100" data-name="Layer 1" id="Layer_1" xmlns="http://www.w3.org/2000/svg"><title/><path d="M46.9,25.91A2.91,2.91,0,0,0,44,23H28.66a2.91,2.91,0,0,0-2.92,2.91V69.62H46.9ZM39.31,54.3a1.5,1.5,0,0,1-1.5,1.5h-3a1.5,1.5,0,0,1-1.49-1.5V32.63a1.5,1.5,0,0,1,1.49-1.5h3a1.5,1.5,0,0,1,1.5,1.5Zm35-28.39A2.91,2.91,0,0,0,71.34,23H56a2.91,2.91,0,0,0-2.92,2.91V69.62H74.26ZM66.67,54.3a1.5,1.5,0,0,1-1.49,1.5h-3a1.5,1.5,0,0,1-1.5-1.5V32.63a1.5,1.5,0,0,1,1.5-1.5h3a1.5,1.5,0,0,1,1.49,1.5ZM82,73.3V77H18V73.3Z"/></svg>