<?xml version="1.0" ?><!-- Uploaded to: SVG Repo, www.svgrepo.com, Generator: SVG Repo Mixer Tools -->
<svg fill="#000000" width="800px" height="800px" viewBox="0 0 100 100" data-name="Layer 1" id="Layer_1" xmlns="http://www.w3.org/2000/svg"><title/><path d="M34.15,82h-10V59.42A2.42,2.42,0,0,1,26.6,57h7.55ZM75.82,59.42A2.42,2.42,0,0,0,73.4,57H65.85V82h10ZM44.83,82H38.15V37.43a1.28,1.28,0,0,1,1.28-1.29H42V30.3a1.3,1.3,0,0,1,1.3-1.3h4.55V20.19a2.19,2.19,0,1,1,4.38,0V29h4.55A1.3,1.3,0,0,1,58,30.3v5.84h2.53a1.28,1.28,0,0,1,1.28,1.29V82H55.17V71.79H44.83ZM43.06,45.59A1.37,1.37,0,0,0,44.43,47H55.57a1.37,1.37,0,0,0,1.37-1.37V43.33A1.37,1.37,0,0,0,55.57,42H44.43a1.37,1.37,0,0,0-1.37,1.37Zm0,9.24a1.37,1.37,0,0,0,1.37,1.37H55.57a1.37,1.37,0,0,0,1.37-1.37V52.57a1.37,1.37,0,0,0-1.37-1.37H44.43a1.37,1.37,0,0,0-1.37,1.37Zm1.37,10.61H55.57a1.37,1.37,0,0,0,1.37-1.36V61.81a1.37,1.37,0,0,0-1.37-1.37H44.43a1.37,1.37,0,0,0-1.37,1.37v2.27A1.37,1.37,0,0,0,44.43,65.44Z"/></svg>