<?xml version="1.0" encoding="UTF-8" standalone="no"?>
<!-- Uploaded to: SVG Repo, www.svgrepo.com, Generator: SVG Repo Mixer Tools -->

<svg
   width="800px"
   height="800px"
   viewBox="0 0 16 16"
   fill="none"
   version="1.1"
   id="svg1"
   sodipodi:docname="tag-1.svg"
   inkscape:version="1.4.3 (0d15f75, 2025-12-25)"
   xmlns:inkscape="http://www.inkscape.org/namespaces/inkscape"
   xmlns:sodipodi="http://sodipodi.sourceforge.net/DTD/sodipodi-0.dtd"
   xmlns="http://www.w3.org/2000/svg"
   xmlns:svg="http://www.w3.org/2000/svg">
  <defs
     id="defs1" />
  <sodipodi:namedview
     id="namedview1"
     pagecolor="#ffffff"
     bordercolor="#000000"
     borderopacity="0.25"
     inkscape:showpageshadow="2"
     inkscape:pageopacity="0.0"
     inkscape:pagecheckerboard="0"
     inkscape:deskcolor="#d1d1d1"
     inkscape:zoom="0.2296875"
     inkscape:cx="398.36735"
     inkscape:cy="398.36735"
     inkscape:window-width="1920"
     inkscape:window-height="974"
     inkscape:window-x="-11"
     inkscape:window-y="-11"
     inkscape:window-maximized="1"
     inkscape:current-layer="svg1" />
  <path
     d="m 8.3111625,12.865041 c -0.023545,-0.06418 -0.054501,-0.410356 -0.068854,-0.769282 -0.021883,-0.546959 -0.054501,-0.657844 -0.2016949,-0.685192 -0.1519198,-0.02821 -0.1715511,0.02198 -0.14559,0.372473 0.022893,0.308654 -0.00376,0.405132 -0.111828,0.405132 -0.099163,0 -0.1508959,-0.123524 -0.1719983,-0.410689 l -0.03012,-0.410717 -1.2046647,0.06277 c -0.6625729,0.03448 -1.508203,0.10469 -1.8791561,0.155986 -0.4589421,0.06341 -0.705987,0.06249 -0.7730436,-0.0028 -0.1724951,-0.168069 0.1443705,-0.360693 0.9487445,-0.576713 0.664785,-0.178524 1.0154979,-0.206228 2.6809854,-0.211815 1.4864129,-0.005 2.0832845,0.02992 2.6611312,0.155404 1.301531,0.282687 1.962167,0.646175 2.124901,1.169077 0.09252,0.29729 -0.20565,0.398521 -0.41503,0.140887 -0.312569,-0.384557 -1.250143,-0.679826 -2.589031,-0.815322 l -0.6132412,-0.06205 0.057237,0.665116 c 0.03147,0.365839 0.033334,0.725731 0.00413,0.799811 -0.065236,0.165639 -0.2152178,0.175507 -0.2729289,0.01797 z M 1.8795942,12.094819 c -0.075903,-0.192765 0.027006,-0.420145 0.1901346,-0.420145 0.1961129,0 0.3629662,0.232058 0.2935644,0.408314 -0.075109,0.190717 -0.4100305,0.198928 -0.4837039,0.01185 z m 0.9814349,-0.168013 c -0.1132584,-0.08069 -0.1594744,-0.213501 -0.1380706,-0.396779 0.026504,-0.226828 0.082086,-0.28103 0.3148629,-0.306826 0.1880915,-0.02084 0.3243851,0.02414 0.4072044,0.134527 0.1663814,0.221768 0.1580589,0.284237 -0.067137,0.503683 C 3.152692,12.08086 3.0885911,12.088962 2.86103,11.926801 Z M 1.9599153,11.282537 c -0.2359037,-0.22987 -0.00365,-0.601489 0.3040254,-0.48643 0.1998124,0.07472 0.2029346,0.467541 0.00431,0.541817 -0.1929556,0.07214 -0.1739812,0.07555 -0.3083333,-0.05539 z M 10.236857,10.53098 C 9.6655916,9.1473231 9.3792539,8.5003465 9.338163,8.5003465 c -0.026603,0 -0.020735,0.4306256 0.013003,0.9569568 C 9.417862,10.496111 9.348686,10.764115 9.0572753,10.596156 8.9635616,10.542124 8.750972,10.239305 8.5848664,9.923214 8.2975883,9.376531 8.2796972,9.3608245 8.2181164,9.6012878 8.1451396,9.8863234 7.9047036,10.180876 7.7450436,10.180876 c -0.058376,0 -0.1486874,0.08975 -0.2007262,0.199481 -0.052012,0.109695 -0.1376789,0.204241 -0.1903853,0.210048 C 7.2821766,10.598302 6.4287474,9.0461996 6.1376253,8.3782896 6.1195533,8.3368287 6.0248037,8.3328157 5.9270559,8.3693822 5.7747753,8.4263164 5.7569154,8.5070611 5.802067,8.9336242 5.83294,9.2249648 5.814767,9.45553 5.7582919,9.4895703 5.7051961,9.5215453 5.6863987,9.643342 5.7165279,9.7602297 5.7713592,9.9730985 5.5758627,10.237614 5.4525597,10.117439 5.4176738,10.083453 5.2856259,10.150415 5.1590859,10.266206 4.6045044,10.773932 3.419251,10.674246 1.9889415,9.999617 1.0889063,9.5751008 0.35893454,8.8857333 0.25882655,8.3657347 0.08923247,7.4847934 0.47366121,7.3344494 0.86974366,8.1268213 1.1807113,8.7489112 1.645328,9.1099926 2.6692949,9.5253825 3.4327176,9.8350854 4.3751017,9.9800932 4.6097028,9.8239419 4.8152427,9.6870904 4.6545248,9.3790995 4.2121468,9.0620705 3.8630647,8.8119006 3.7969513,8.7930967 3.7035957,8.9175338 3.6445586,8.9961765 3.5285854,9.0605241 3.4458515,9.0605241 c -0.083065,0 -0.1641727,0.094074 -0.1810689,0.2100726 C 3.2140389,9.6187895 3.060076,9.4832992 2.8051228,8.8660726 2.5577185,8.2671559 2.5192599,8.2366823 1.8209939,8.0866147 1.4596826,8.0089675 1.4486825,7.6176347 1.80456,7.5020491 L 2.0516013,7.4218021 1.469231,6.6816646 C 0.8794963,5.9321482 0.75671004,5.5813923 1.0461724,5.4731504 1.228903,5.4048229 1.6073172,5.7234204 2.0010835,6.2771224 2.1416439,6.4747713 2.2754277,6.6181775 2.2983776,6.5958152 2.3213174,6.5734272 2.1424721,6.0988644 1.9009112,5.5411878 1.4207461,4.4326633 1.3840434,4.254689 1.6175668,4.1673636 c 0.1884379,-0.070461 0.3884761,0.0766 0.4763151,0.3501661 0.1421666,0.4427837 1.5401411,2.1155792 1.7680221,2.1155792 0.039404,0 -0.034785,-0.2982178 -0.1648613,-0.6626974 C 3.5669692,5.6059344 3.4831807,5.2856397 3.5108892,5.2586566 3.6311506,5.1414728 3.846754,5.3403315 3.9564736,5.6695957 c 0.065373,0.1961529 0.3016311,0.734767 0.5250317,1.1969252 0.2233998,0.4621249 0.442322,0.945288 0.4865103,1.0736489 0.068716,0.1996775 0.089653,0.1591688 0.144701,-0.280086 C 5.1966487,6.9905668 5.068813,6.1155979 4.7502587,5.1793772 4.4796825,4.3840906 4.4945598,4.112305 4.8086347,4.112305 c 0.2382779,0 0.3368283,0.1783734 0.4842154,0.8764603 0.063849,0.3023287 0.194974,0.7224649 0.2913966,0.9336277 0.155514,0.3405836 0.1760893,0.3563703 0.1820876,0.1397823 0.00367,-0.1342858 0.090369,-0.3477165 0.1925139,-0.4742921 0.1838296,-0.2277167 0.1838296,-0.2317575 0,-0.3851331 C 5.6864216,4.9754401 5.7313822,4.7129824 6.0882046,4.447767 6.7681433,3.9424037 8.6473545,3.7337201 8.6473545,4.1635742 c 0,0.06758 0.097005,0.1516789 0.215574,0.1868868 0.2755534,0.081825 0.5508853,0.3166699 0.5508853,0.4698597 0,0.065396 -0.067752,0.1849291 -0.1505386,0.2656201 -0.1368762,0.1333772 -0.1360782,0.1467094 0.00891,0.1467094 0.087743,0 0.1820628,-0.084024 0.2096309,-0.1867261 0.065539,-0.2441811 0.285066,-0.2395881 0.3655856,0.00768 0.059891,0.183855 0.1082044,0.191003 0.8926953,0.132037 1.510553,-0.1135395 2.562357,-0.3715799 3.607663,-0.8850589 0.966414,-0.4747139 1.422039,-0.5766359 1.515614,-0.3390276 0.124934,0.3172422 -0.70278,0.8644916 -1.994494,1.3187136 -0.886831,0.3118359 -2.155705,1.8006214 -2.155705,2.5292829 0,0.2922544 -0.159414,0.3637344 -0.288218,0.1292159 -0.158722,-0.2890468 0.11,-1.0657681 0.573532,-1.6576575 0.211955,-0.2706297 0.385334,-0.50774 0.385334,-0.5269167 0,-0.019175 -0.161652,-0.00176 -0.359256,0.039053 -0.197629,0.040659 -0.556748,0.1007245 -0.798069,0.1334626 l -0.438758,0.059513 0.07724,0.5503324 c 0.04246,0.3026904 0.343911,1.2696841 0.669845,2.1488843 0.56062,1.5121839 0.583681,1.6071419 0.427223,1.7570709 -0.155765,0.149265 -0.176225,0.145646 -0.350848,-0.06191 -0.10201,-0.121225 -0.185437,-0.290734 -0.185437,-0.376705 0,-0.085971 -0.185792,-0.6700108 -0.412846,-1.2978529 L 10.600039,7.5645022 10.45196,7.8690342 c -0.138729,0.285312 -0.130351,0.3801332 0.132729,1.5024233 0.15444,0.6588395 0.257302,1.2575365 0.2286,1.3304265 -0.09944,0.252494 -0.443843,0.150399 -0.576492,-0.170919 z M 7.7836146,9.171712 C 7.782813,8.9308335 7.7504826,8.6875214 7.711749,8.6310298 7.6443646,8.5326998 6.8269912,8.3804733 6.8269912,8.4662493 c 0,0.113098 0.4287496,0.8530968 0.5995825,1.0348535 C 7.6899046,9.7812752 7.7853585,9.693175 7.7836146,9.171712 Z M 8.7401297,7.8933267 C 8.633311,6.4045549 8.664949,6.1745749 8.9612907,6.2853933 9.0356449,6.313202 9.1952269,6.5932385 9.3159044,6.9076935 9.4366068,7.2221549 9.547601,7.467456 9.5626151,7.4528276 9.57762,7.4382175 9.561054,7.1166311 9.5258191,6.7381856 9.4620013,6.0528277 9.4604246,6.049725 9.1264118,5.9448188 8.9398164,5.8862193 8.7492658,5.7466076 8.6967798,5.6300814 8.6277599,5.4767661 8.5507481,5.4360969 8.4093649,5.4782921 8.1228875,5.5637816 8.1265368,5.5509668 8.1363552,6.4338195 8.1478981,7.4763855 8.2242084,7.8148475 8.4612126,7.87524 8.6645385,7.9270593 8.7100822,8.215141 8.540994,8.3799187 8.4630676,8.45588 8.4784766,8.6121433 8.598672,8.9648168 8.6888761,9.229503 8.7813969,9.4278499 8.8042367,9.4055923 8.8270747,9.3833604 8.798176,8.7028138 8.7401398,7.8933249 Z M 4.7247366,8.3744457 C 4.644294,8.1683282 4.5689462,8.1268764 4.2744778,8.1268764 c -0.1945313,0 -0.3341781,0.019027 -0.3103098,0.042269 0.1868719,0.1821178 0.8084374,0.5700483 0.8300338,0.5180628 0.014913,-0.035841 -0.016364,-0.176587 -0.06946,-0.3127452 z M 6.7208328,7.7300954 C 6.4240154,7.3112506 6.4105477,7.301738 6.489442,7.5667006 c 0.059505,0.1999227 0.2941066,0.466823 0.410302,0.466823 0.019881,0 -0.060644,-0.1365448 -0.1789112,-0.3034282 z m -0.8519343,0.041158 c 0,-0.041516 -0.068193,-0.1570649 -0.151534,-0.2567503 C 5.5787168,7.3486738 5.5705853,7.3478152 5.62158,7.5043099 c 0.030616,0.094043 0.055722,0.2095758 0.055722,0.2567504 0,0.047136 0.043123,0.085723 0.095815,0.085723 0.052673,0 0.095785,-0.033986 0.095785,-0.075548 z M 7.1827337,6.989429 C 6.802268,6.1937589 6.5214336,5.8283717 6.3634567,5.9235147 c -0.1652222,0.09951 -0.1418305,0.6162028 0.027907,0.6162028 0.076595,0 0.2247,0.1882319 0.329144,0.4183279 C 6.9317704,7.4234578 7.4141336,7.950923 7.4724802,7.7803371 7.4927561,7.721052 7.3623988,7.3651406 7.1827401,6.9894308 Z M 3.4995253,7.0811206 C 3.2781434,6.8654125 3.0783561,6.7078507 3.0555167,6.7310266 c -0.02284,0.023141 0.023441,0.1996463 0.1027824,0.3922152 0.1236341,0.3000002 0.187178,0.350106 0.4439831,0.350106 H 3.9020059 Z M 10.313287,6.5273332 C 10.279254,6.2773945 10.20785,6.0729038 10.154621,6.0729038 c -0.06062,0 -0.07422,0.1834031 -0.03644,0.490154 0.03323,0.2695854 0.06355,0.5741715 0.06733,0.6768716 0.0061,0.16464 0.01772,0.1604085 0.09825,-0.03574 0.05024,-0.1223341 0.06352,-0.4269524 0.02951,-0.6768747 z M 7.7495478,6.4696974 c 0.00303,-0.089862 0.022636,-0.3283908 0.043573,-0.5300691 L 7.8311198,5.5729426 7.3769611,5.5471918 c -0.2497824,-0.014156 -0.4541578,-0.00708 -0.4541578,0.015762 0,0.02284 0.1508958,0.2341216 0.3353379,0.4695737 0.1844118,0.2354519 0.3353077,0.4668881 0.3353077,0.5143045 0,0.161402 0.1505395,0.08699 0.1560961,-0.077167 z M 8.6304891,5.0376597 C 9.2822499,4.8162523 8.9322294,4.6654403 7.6196101,4.6020948 6.7981761,4.5624392 6.5990523,4.5808115 6.3878181,4.7156945 6.2440253,4.8075092 6.1717969,4.9116117 6.2196097,4.958189 c 0.2701629,0.2632659 1.728341,0.3113341 2.4108794,0.079471 z m 4.7114819,3.8058495 c 0,-0.1759239 1.561128,-2.4451983 1.676659,-2.4371959 0.248317,0.017217 0.09048,0.3756456 -0.626984,1.4238835 -0.701314,1.0246772 -1.049675,1.3609546 -1.049675,1.0133124 z M 12.825926,8.6108714 c -0.02658,-0.041893 0.227494,-0.4935352 0.564602,-1.0036345 0.755207,-1.1427132 0.807967,-1.2038466 0.933563,-1.0814498 0.110526,0.10768 -0.179821,0.6422785 -0.856884,1.5777509 -0.408477,0.5643797 -0.539411,0.6679651 -0.641281,0.5073334 z"
     fill="#ffffff"
     id="path1"
     style="fill:#1a1a1a;stroke-width:0.276521" />
</svg>
